<mxfile host="Electron" modified="2024-07-12T23:30:03.273Z" agent="Mozilla/5.0 (Windows NT 10.0; Win64; x64) AppleWebKit/537.36 (KHTML, like Gecko) draw.io/24.0.4 Chrome/120.0.6099.109 Electron/28.1.0 Safari/537.36" etag="-dvzuC3kFVZY3lNaYed2" version="24.0.4" type="device" pages="3">
  <diagram id="4dsqE-HZkMd2rEpmww_y" name="App Screens">
    <mxGraphModel dx="1571" dy="959" grid="1" gridSize="10" guides="1" tooltips="1" connect="1" arrows="1" fold="1" page="1" pageScale="1" pageWidth="1654" pageHeight="1169" math="0" shadow="0">
      <root>
        <mxCell id="0" />
        <mxCell id="1" parent="0" />
        <mxCell id="AZcHS8FLPlwrAeguX1iB-1" value="" style="shape=image;verticalLabelPosition=bottom;labelBackgroundColor=default;verticalAlign=top;aspect=fixed;imageAspect=0;image=data:image/png,iVBORw0KGgoAAAANSUhEUgAAAZcAAAIjCAYAAADP1VbzAAAgAElEQVR4Ae2d248t2X3X9wuCf8JvPPLWUj/MP4BAiFsQkAZEi4dDAxLxE0IoUiMQdOKEZEKIQgKG4wSTS3sSJkmPM3aPx6d9HLs9Z3o8x3Oxz/gy7XFm4pnxuO0JTkIULfSrvVfVb13rstfeu6r6c6R9qnbVqnX5/T7r911rVVXvxfvvv29ubm7Md77zHfPOO++Yt99+2/zBH/yBefPNN83v//7vm29961vmhRdeMN/85jfN9fW1ef3116vPN77xDaM/X/3qV4189LHYful0UsZzzz239XK7toP6uZxYJrDfenbBftjP9qVtxj8b/7/2ta+Zr3/965U+iE689dZb5tvf/rZ59913zXvvvVdpykKERQ7ICUn0xhtvVCIiFZeLJZPPf/7z5rXXXjOPHj0yX/nKV6rPl7/8ZaM/L7/8spGPPhbbL51OyvjsZz+79XK7toP6uZxYJrDfenbBftjP9qVNxb9XX33V2I8ty8Z/OS7HZJAjOiGiI9ohIiOTFJmsLOQ/EZYPfvCDyc/R0VHynL3uR37kR4x87PfUtnQ6KYf6hb7ramfsF9pObIL91rML9rud9pMVLiswC1kGkxmLdCj+YQEsgAWwABYYYgHREFnpkhmM3FpZyKxF1AZxGWJOrsECWAALYAGxgGiI3DqRe/Nyz34hKiPrZjKN5R8WwAJYAAtggSEWEA156aWXqvvzcs9+ISojN+sRlyHm5BosgAWwABYQC4iGvPjii9UDX3KTfyGPGss6GctiAIIFsAAWwAJDLSAa8vDhw2ppTJ4eq5fFEJehJuU6LIAFsAAWEA354he/WD2iXM1cZFlMbsIgLsCBBbAAFsACQy0gGiIv3L/yyivVffyFTF/kxZgu4vL0Jz5p7n7kl3p/Pv67T5s/+7M/G1pnrsMCWAALYIGRW0A05Pnnn69eppf7+Au5qy9vWnYRl4/95m+bB198Kft5/sWXjXx+6+l75snfXX7+96//RvXG5shtQ/WwABbAAlhgoAVEQx48eGC+9KUvVROWhayNyav8XcTlmWcvzB/98Z/0/nzyU/eq554H1pnLsAAWwAI7s4AEzC6fnVUwUfBisajqnThdnZM0pf6JhsjfOZOb+jJhWciTYrJG1kVcPn1x33z50Rvmxz78KfPj//MZ86GPnJuf+F+fND/5K0+bV175mnnvO++ab15fV5/vvPuu+cUnn6s+eXF5ytxZ3DFPtbXwtcfNY4vHzOOvRRLmztXJpZzE9as0T91ZmMWd1prUOeZ3VHmd6pfPrT5bMi9jjLTZbbKqty30qTtLuwwuO5KnzZstFhi5BURY2v51SdOWR+nzUqc/9+f/QlRgcueG1kM05PLysnocWSYslbjIH8HrJC73PmO+8tqb5p/+1G+Zf/af/4/5Fz//G+Zffvhj5oO/9GvmxRdfM995921zff169bHi8uGPf94UERenxUOCVcs1Ejgfu2PuPJYXIKca2S8t5WWv1SdL5aPzVPtWOOyhSkAW5jGl4q89/pjz3Sbtvt1wG7pXhJRYoLcFughHlzS9Cy5wQUxEYscKFFVpiPyRY3liTCYsC3lSTKYxXV6i/MT5s5W4/OhHnjb//L9+zPzDn71rfvjnfsH88C/8l0pc3nvHFZdfuviM+ZXnPjUJcbEB1G7XN3apgFoqn0SLKlF93NgJobT/zuOPm8fq6cxr5vG1BXfDbUg0jcNYoIQFughHlzQl6jIkDy0men9IXrlrREPu379fzZREU3qJy9MrcfmhD33Y/JUf+1nz1376p83f/LmfND/0iz/mzFxkaUxmLk88/Lh58tXf6iEuqyD0+B0ja4HyaUbQNkDJdnmuSlMFQXtu2fRqecumqYOkm8Y1kgqgXrA1ZnXdU7Isl6hT7lwVtf2ypbymDbaKYb3luibdcsnOy2s107D2snnV9Y7aUrdetd3YfSnDLlX6+3Zmt6pHKn9Vr8cef9xdklTnpN62zu4SXaSdNqGuPvtYYMMW6CIcXdJsuJrZ7K2opJbJshd3PBmIi9xz6bosZmcuf/Unfsb89Z/5KfO3fv5D5u/89/9o/v5H/t1SXN5527nn8vJbLxn5dF8Wk4Ci7nvIko0T5LzAZofbVgDq79YaOkDpfXt+tXUExQZYm2ZVp8dWo/sqMOp6LMwieU6ns/tLYWlE05ajt7quel/S6O/LutUxN1Y3e9KxpS5L33d5ytxZteWpO6v6OstmYdn1PSonf7deMhta1Pe73HNG11mX9dQd89hjzXJcuRml23a+bdcCdhDUtt1urfKldRGOLmnypWz27DbERW6tfO5zn6vedRFN6XXPxYrL3/jZnzR/+xd+3Pzd//EfzA//8r81/+hXf1TNXJob+n/yx39k5NNPXGwQFmP7wcye08f9dNVd6nrm4wY1e73rSD9wVcHQBmWnDsvrmhG2Xw8vUDsBdVV2FUztrMCth6kCtJ2p2Lr6ZajvkbzSdVPXecVW5Up7VXC3NrHbVcvVDMTPT32XelnBrS70ztUDhlWu9qECdV0lbjIjrPLxBd9vAN+xwOYs0EU4uqTZXA3zOVthka3ez1/V/2wRcfmh/3Zi/t7df2/+wUePzT/+9X9j/slv/KtKXN5959vVzfzlstg75v33v29uvvvd7YqLE3B1UFIBzrGbHLcBXW+tAPjXLWceS+3pek6lc+qnKuIcz9U7n9cgcVkF9afkfot9WE6O3Xncu9+iyg5EV51b5ddMJL1zKXHRy3K1qNwxTwX5KbuxiwU2bIEuwtElzYarGc0+JiaxY9GLex5cT1yeedY8fOlr5kO/+evmJ578VfOffvuj5qfPftk8/vGPmC984aERcbGPIr/7zjvme9+7qV6e3OrMRUbfdtQsQSk2e9BG0+nr476AqHs/VZ5aeHLnYrOPZd7BspiuR7beKlBXAb65Z7FcYtJ1s+VLw/R1dUNXO8s6NbM8m17E1uZnj9k8/fz0d9lv6lXNBB0/NOfcOhtTzZS85bA7d+6oe29+3fmOBTZrgS7C0SXNZmsZ5p4Tkdy5MKduR9YSl9/95LPmT//0/5nv3bxnvr/6vP/975n3v39jvv+998wP/u8fmj/+ox+YP/zD9yth+e533zPyKS8uy+Wnat22GmrrwGYDpdwL0Y8W6zSNsWSkHwR6swxy+gb6nTty32A5s6lH96uAnTu3fKLXL3sZfN38UvXOtbWqaP2gQSgOVgikvX4dGhvIXiUAVpRXp8Q29T2V6pjOQ+/LSe+7iOXKXvkb+rqOtj3qmCO0q4qxwQJbtIAE4i6fLVapU1HS/6TeqX9yTtKU+reWuPzax36zEgoRi9jnmU9/xjx78Vlz/uyFc/6jv3Ja/a5yqUZsNx8vaDqF5845CfmCBbAAFpi1BdYSlx/84AeVSMhPWPb5vPXWW0aunea/nIDkzk2ztdQaC2ABLDDEAmuJy5ACp39NTkBy56bfclqABbAAFuhqAcSlq6VIhwWwABbAAp0tEIiL/KGxi4sLc3R01DkTEmIBLIAFsAAW0BYQDTk7OzPn5+eVpvR6iVJnxD4WwAJYAAtgAWuBYObS58+/2EzYYgEsgAWwABbQFkBctDXYxwJYAAtggSIWQFyKmJFMsAAWwAJYQFsAcdHWYB8LYAEsgAWKWABxKWJGMsECWAALYAFtgay43NzcGD7YAAZgAAZgoC8DiAsCygACBmAABoozEIjLo0ePjPzesfxEZV+lIj2jGxiAARiAAWEg+JljxAUwCA4wAAMwsC4DgbjolyjXzZzrARQGYAAGbicDwbIY4nI7QSAA4HcYgIGSDCAu3Mjj3hoMwAAMFGcAcQGq4lCVHP2QF6NpGJgmA4gL4oK4wAAMwEBxBhAXoCoOFSPNaY408Rt+K8kA4oK4IC4wAAMwUJwBxAWoikNVcvRDXoymYWCaDATiwkuU03QkHRC/wQAMjImB4CVKxAVAxwQodYFHGJgmA4G48BLlNB1JB8RvMAADY2IgWBZDXAB0TIBSF3iEgWkygLhwQ58b+jAAAzBQnAHEBaiKQ8VIc5ojTfyG30oygLggLogLDMAADBRnAHEBquJQlRz9kBejaRiYJgOIC+KCuMAADMBAcQYQF6AqDhUjzWmONPEbfivJQCAuvEQJYCUBIy94goHbyUDwEiXicjtBIADgdxiAgZIMBOLCS5QAVhIw8oInGLidDATLYojL7QSBAIDfYQAGSjKAuHBDnxv6MAADMFCcAcQFqIpDVXL0Q16MpmFgmgwgLogL4gIDMAADxRlAXICqOFSMNKc50sRv+K0kA4gL4oK4wAAMwEBxBhAXoCoOVcnRD3kxmoaBaTKAuCAuiAsMwAAMFGcgEJfLy0tzcXFhjo6OihfGCGSaIxD8ht9gAAb6MiAacnZ2Zs7PzytNWfASJRD1hYj0MAMDMOAzEMxcEBcg8SHhO0zAAAz0ZQBxYa2V5U8YgAEYKM4A4gJUxaHqO8IhPaNiGJgfA4gL4oK4wAAMwEBxBhAXoCoOFaPQ+Y1C8Sk+7csA4oK4IC4wAAMwUJwBxAWoikPVd4RDekbFMDA/BgJx4WeO5+dkOi4+hQEY2DYDwc8cIy5AuG0IKQ/mYGB+DATiwkuU83MyHRefwgAMbJuBYFkMcQHCbUNIeTAHA/NjAHHhhj439GEABmCgOAOIC1AVh4pR6PxGofgUn/ZlAHFBXBAXGIABGCjOAOICVMWh6jvCIT2jYhiYHwOIC+KCuMAADMBAcQYQF6AqDhWj0PmNQvEpPu3LQCAuvEQJRH0hIj3MwAAM+AwEL1EiLkDiQ8J3mIABGOjLQCAuvEQJRH0hIj3MwAAM+AwEy2KIC5D4kPAdJmAABvoygLhwQ58b+jAAAzBQnAHEBaiKQ9V3hEN6RsUwMD8GEBfEBXGBARiAgeIMIC5AVRwqRqHzG4XiU3zalwHEBXFBXGAABmCgOAOIC1AVh6rvCIf0jIphYH4MBOLCS5TzczIdF5/CAAxsm4HgJUrEBQi3DSHlwRwMzI+BQFx4iXJ+Tqbj4lMYgIFtMxAsiyEuQLhtCCkP5mBgfgwgLtzQ54Y+DMAADBRnAHEBquJQMQqd3ygUn+LTvgwgLogL4gIDMAADxRlAXICqOFR9RzikZ1QMA/NjAHFBXBAXGIABGCjOAOICVMWhYhQ6v1EoPsWnfRlAXBAXxAUGYAAGijMQiMvl5aW5uLgwR0dHxQvrq3ykZ7QEAzAAA9NkQDTk7OzMnJ+fV5qy4CXKaTqSDojfYAAGxsRAMHNBXAB0TIBSF3iEgWkygLiw1sryJwzAAAwUZwBxGRVUp+ZwsTCL1efwtM+I5cqc7DfXVnnsn5irHu27Otmvy14cnq5g03XaNydXfeq0ubSnh01b90+uineMOY+WHT8r3ix3/nZ/f98cnpyaqw6+d/KuGRrIwelhw2OHevr1rr+vW48efWjO3PRtG+IyMnB00GwCfIfOeXVi9oMO2EcMXHFqhA1x6dupxp7eEYCAmUa06+Cs0uy3BGon75a0rXZCXCY9aEJcRiYuTufsMfNwrlPBoBGJFoFyxOnQnNZ2QVxag2BtqxYbjyRdipWYmESPZUTDyTuTrpNNERfEpRMoI+lYo6+rE+S7zjzcWcf+4WEzi+nawXVH7nrNDn2qZ3gsi/UTtV4CcHVlrk5PzKGz5JrmslfebfxoJnsMtEbfx9vaPZPzzFxG50hXKDrNPAJB0rMNPQtJByEdrDuVuWO76foiLmm/xgLtMAFwuUwt2Q7LO1F/xGVeMxd+5jgB+haDqQ6cqU6sg4bToVcjPJ1Hu1j0FyNd/i72dfsQl37MOrz0maV2CPaD8471rw7l7YI9yuzGW/Azx4hLN8NtFLBencodUdpAqzu5PZassy6vT7CJBYQtHUNchnOq2egyeKm50ZwklqkG5x3jpkN5dd1i13NspzOfQFx4iXJ4py0Hup5JpNe3q/KCJbFV/fXxRCCw9dWBOpzl5OsSvfbq1Jwc7jf3feQBA/s4a6cOb9f51aPRi30jTyrZR6t1uW3ieXV1ag73vfpU+Z2Y08TjtTr/0CaKEW3nxcLk0rYGXms35/7G0nb7h1LXMo9ct9Yj5SMd7BODkMF5x8rU5bUwbFlmq9iM2XSLx7jnskVjdwffnY10DlhOB9R55ARKp4vdn+knLqeHWhBij7Xm6nJjbiohiF1njy2v18E/LS66bfb6cKtFy/qoc5DUAXCxMOm63BhdZ9enV6bdbqt67x8mBdHWvW3buW1O39C2TPtwWN6JgKht67CdSO/UlzRtHGz6POIyUiB1J00HLN3hw8CWDmaq4+mRd3Q02l1c5GW76KOr6tHo6nwqUOi6+Nc43w/NYetLlLreoaAE9fTr5NQlJrpLG2obZ9t2o+vj5hfk4bQ1Vnf3+r5BQrPVvixmZ5FNPdI83ph+eSsOY/0QcdnpslZfrvz0iEsM6jEc08HND3y2fjrNIjKa1J0zKhxuMIgHDR0UwzJigXG5hKMCR2Q24o7cJa0rlBKoqxmFWrYKH4ldBrxYvf16+XVaLpU1AbMqz3nTX9cnbPeyI+k0Nq9E4E/5wvFh2OaqnKsrc6r/ekLLDMnv5P53RwBahcy2S7b75vA0vzTn5J1gzq9P8ru2WaoP2L7AdnRChLiMFkod1OMBy+nI0c7XlocOjqkAqvMI0wRB3AnQSmCckXs4y7rxgmw6iOk6LwNfIC5eXsH52ueyHKWDp2tnbd9oHqocPWsLhdNdEtN56TLaZhF90iYD9o07oAhmcC1iE1tC1GWVqmOVpxaXlnol27GuwNWsaJbZ1z5P7SMuI4ZHB74wYLlBVgesxtk6TSgMTkCPipN0oj7i4gbnph7Lzqjb4wfS3Dk/H6fekVG8k1eyXTZA6PZ5N+SVeCwi+TSBdN+cnDZ/fif0RdoPTR5y4z5vv8AOA9l1yhwUtCMsreri5L1uYEdcRjcb6cMg4jKwg/Yx8uC0qnMFAUsHvsxTSrqz+3nkzjV11sE3DCpOIG8JJro8V1x08PUCfMI/uly3Xevlla5XGPjrOlTCo+zkC5H2lX9O+diOvuUvLJycdvtDkY2frFi2b9N+iF17ZWQJUZ7+s/VbbkN7SF365R0rTx2L2Matg551JvZbmBxiP65RPkr0T7ER4pIxzs4hygQlpxMv4h29qn8mjzo4xu7X1HZRQTOSrskjstRV57GE0amz0+nzZcT8oPNyxaV/Xjc6iHnBX5fjzh5VOau2NLZw/aHzcOsqdnHFMBY89/cPzYn8VWLPnjG7dDmm6+OKaUvQ0HaKzBil7MF5x9qmy/P80qWdpGnxZ8zmBY8F4sJLlLt1iNshdODRAUsfX5h8gFBB0BEhdTzbcVW6rYiLbmfGFyrwuAE7X1/Xvqv8VV7B8pc+pwVRHbeiowOrPeaKRzjzW9bH82duqUqEpuWmerSNKmjoeubZCe3fCKgs44U/6bBO3kG9lY1jZQXpVRs5F/pu2zYJXqJEXHbvFA2B7qx1wNKzkcySmM1HB4Q6D9Vx3eDstz8frHXe+Xxyo1pdxsjERd9zUsG08Yuqr/JLbQt1rDVARpef4ss9df4DAmpT97aBic+C50NnsLJMu07eltd6qxhttd0AO9TlcO1G7u0E4sIb+mGH2imEqoPZgOJ04EgHD+obyaMRhdRo2tpBB/4wbZPPdJfFHHvq2ckq6DRttO1XMw0lOM7DD/Z4xPaBf2LBrXr8WP4asf+XBazY2LpYP3XftrU3Wz/VnkWEvbXy9u2gy7L29NPwfSPCkGWgo82DZTHEpXsnLeGA9jxUcK86mApssnwSCYZBnnr0XKX388y1WaXd2LKY26Z6dpWBuAn4vqitl1fUnirIVQKv7GkF39q8qddyRtN87/aggs0n3JZ712UdAXCuRVxGG9hDfnJ9fDPnEJdMABuDg9w1ewlYOth3DVgq4IpAZYJj2GZdXjha1sHTD7R+Xk5g8kTROdc6StV18sXFW7rpmVdc2FR5Um8lNn563Y7DU3VdJBC7vu3myz729u1vv+s6RsU02ScURzKwidh2eN6RAKfsHCvLtodtxHZJH24vLeIyAie0dY6mw+6bkxP9u+Jqvb+lHTqPw/qx0lAswrroABmm7xPsmjpEZlxK8OSJqbRQ+S8+RtIOzittz6ad+k/PRNKrsvWLlakg7tgkEqxdf7jBPW2jfABxyvRE3i3PzedKB/uEj4bmHS1Xl9dqG7eu0fxa+gjXlLUh4jIF4FTAch5V7REY9Gi7ySMSHAN7bElcbty32CuBqf4ScAN87E+2pISoEYPlPYr+f/6lKbcKOjrQ2ae5ovbX9rL3RzKzEt+3q6fB/MeOw7Z38Z3XhpVv+wrAKN5zQVwmtwSHuATBNN4hdzuq6Rmwom2K5BENjn779XUbnLlUdXZH5o0INkF6eWzfNLOvyMylykvX278+8r0tePkikBi5Cye+sMVufGuenGBvhatlO3TWIuUOKc/3hb8caNuzVt6+D2KC3mIXv56WlxP1N+psXdn6fb3sd8QlGojLGrkExH0DVqxMP49UgHCv1UF60+Iidm8TGPnjiW6ATAda+R2XiJB4Aart72Ut7eHXK7SFtVsQYDuI+NXJofv7N14dm6DZ/scjbT1S26B+ybIitpOZVSZQr5e3994M4jK52YpmDnGZiLgEy1odApZ2tOy7Hb/rssq2xWUp7MtlIPdPjsib6vbHvXRb0uKyyus08kivPOLrLbv59vK/6zKzsxFvltNNxOW3bOSJsEPj3KtZBf7qLf3TqyJv6bvtiAiILzYrW3V5ebN33rosZi6TFhO/vwTiwkuU45u1+E7jOz6CARgYOwPBS5SIC9COHVrqB6MwMH4GAnHhJcrxO42OhY9gAAbGzkCwLIa4AO3YoaV+MAoD42cAcZnKDX3qOaubnQTH8QdHfLSejxAXgjZBGwZgAAaKM4C4AFVxqBjxrTfiw37Ybw4MIC6IC+ICAzAAA8UZQFyAqjhUcxh10QZmDzCwHgOIC+KCuMAADMBAcQYQF6AqDhUjvvVGfNgP+82BgUBcLi8vzcXFhTk6OiLoIDwwAAMwAAODGBANOTs7M+fn55WmLHiJklHTHEZNtAGOYWC3DAQzF8Rltw6hQ2B/GICBOTCAuDDlHTTlnQP8tIEgDgObYwBxQVwQFxiAARgozgDiMhSqq1Nzsvphp339g0eyX/240qGRH1fyfwt9yEjJ/QXJlh/5Kvbrfcsfkap+6GoTeQ61u3PdlbmK/RBY7YMTc3p11aHT5H4QLXduc6O+IZxs7Br942f+D3o5/kjZw/0Vz84/nhbknfPF0HOpOnN8XZ4QlwDgPFTLYNbh1/tqwdk3+yena4iM7jTLcrO/vLgJIdhEnj3t7oJ+ZU4P3V+pbH4GOOIb9QuWbj7W19rG/s8X587Z68e5tcKb+1niuD289mxRXPJ1zvli6Lmmrfmym3SdbLYW3/MoC3HpDEHPgFaLyyrYSYDrXJaCKxbYc6PHWHq/Lj2+j27mogNdj3YsFvLb88quji/WD0zjCjh6puCLZcoGmePa5jn2HJvq/HR9Fgk/6DSpOg/1U+46qWeXsnV72O/CO+KS7BAaIA1fMzKuf9f8SqfVv4XepK1G1r07pi533+zvN/mlA6VXF799OlAsBgreNvL0y5DvTt0b0a6WHz0fXMmyZWR2E7dbW/BpsWmsrjs9Vrg92u69GRbbaY5T4rJunde5fp1rp8bG9uobiAs/cxwa373nIfdUDs2pF8xSSn514i7fZJe0/IDkd2o9Kzk87XAvIWyLG6CnJC46AIiwyEykw/2UK/+6WJt1mtSoOWJL31+j+V64PT6HvduJuKTiw5yPBz9zjLh4QUR3LFmGGTBycwUmFty8MledV1+3FKUCQcNpT/e6ZDvBJvL0Apgr8D0FwKnfwoQCX8CuXn2z9tp42sLt0fYbwD8zl3j/3i0jm69TIC68ROka3Q1qQ4Ox7uypZQG3XLdDNsFU1ycMkn4eke86UExlWcypc0wcIu30ArgW6nCAoP3T2Hq6nb9we7T9EZdhKwYej9Nlq72v2bYFy2KIizKe7lSLYUHNGroKbvv75lCeHOuypKaXwHSH1seHiIPTpqFiqWwknWYTearO6AjDkDav6ngo9j88MafBclouGOfO+XZY3udxH03fN/tSZovP9aChvi+0um/k5GcZUvaxjLl+aO7PNU/SDRRO7V/NYqwO0WOZZTGdd/QBDV3nnC8GnOtcdi5vj4FV+6P+jNomfn3t0wlfg7hknFckqGXyzwGk4XRnKJmO2qUsp0NNQVzc9i6G3mvK2iYXPHLnbGDo9iTh/mH6kXTtbxGX9ketddBd1cPxLeLS9K+ED3vYS/vH7Y+WAb3V5RXqY1l+ddnj2UdcMk7TQIVLKZt0ooYzDCKO6PUdSTodqhD4m8iz9ou2xXqzxybY+L7TZfj2zp2TfDzxi46+VaBPiKNmbX/ffQikmXmofGL3/xw/eGmrevlt8+2Q+K7z7ctb5UfXRvXMTM7pvKO203XO+WLAuT5l67RtNtCrCwl/p1lM+KDuD9M5j7gkneZ2iPbRSjmnt4qHBn2hO1+HOjjXTkBcnPp2vV/VwQ6O3wcEptX1jq9k6VRmJ3oJ7Cqc1cRY0uJixSRYTpMn39Tj6JLOCdR1m3Lt6WsbTwDaAmtdB12O25eG1znXrqHnpJ65a207dBtyfU6nS/nH5jnvLeIS7Qw+cJsaMcfg6gKnmyYWrJIjIydYT0Bc9Ciwr5AmfevbPRdcup5rCSROO0K7++KS9qmuT4pLnSYXCH07JL5rZm6tuNwYPZBI+kfbauj9wc7cJvw1kusRl6QjdAdtCRyrPPwAYUegwTbXQbvC2RKsEJc+HU/72g/G6XM62HS5F6T58Efv+tyiJSg5aaPLLuk6J7lI9gNmLrXNdN9M9OG+TNR55+w/0XOIS9JxuoOmRohuAHM6fXT9eLUOngBTQHPyiAYOW6ZbPweLN2YAACAASURBVD9YJaHVHaQliCXz8G22iTxtGU7efuC3tlh3q23pl5E+p33Vyf5qQOCPfHVebULVHsDSde7sU2t/2WofZNhN5+3OtOO26lLnXJqh54Sd3LWaLd0OnxNJp893G5CmbabLneZ+IC68RGkdqYHblri4ZQYznoGC5QCsA8XkxGVTHVbb3Q8aqXNuIOnlK/GjN3DQ4uILj+O/G3d5xs9nmTZVZ8t2z61m5laLi2v7wE/aTqX6lhb5ie0HL1EiLrbjecHDCwZ+h2/9rkatySfPdJqckETP+UHRtsPbbqIDbCLPuiPpQNlN5Ft9UedtbaPL8O2YOufxEfVJ7Imt+Ox1MuIyKGhqW/n27eKDLmlSfpJrc+e6nLfle2k9odUzykB4AuZ0nvPcD8SFlygbR2tY2tbBWwOaFg4PyuW1ugNmglIuiHURwE0IwSbyrDujZ5cubayvbXwpNhZ/yh8blRdZ3Zcac8Endc6rV84vsXMeA/MWl5QNtX/WTZO7PndO6tB2XtdTL11rodQ86OPuta1xIsHuFK8LlsUQFwWDEzTXXJJpExenrO5w9hZAp5zwqaVBEG8iT9XJerdRXdu0R3d+fwaUCy6pc25+8fsIiqVonZrzoxaXnsG3sfmqfZ34SNm5sVFeBHLX585J/m3ndR1uzI3qy/UMRbfRGzgE9mhhYS7pEZeso90AstbsRQEZWxZzAmgfODXUXf5EjZN+GuLi3FDu0saYT7X9g0eac8Elfa6PILQFjD55OaxEZ3LpOrfVI37e7Qe9hVTbPsl2lzrn0gw9N0BctBit2qN9UgtOjMNbdAxxaXO27hiyvJHsHN7oxsv36uTQ1Dd9gzx0x/BH1fl8/SdUWus3RXHxn6JLvjyYspVr3/AmuD7vzxrT53RAabW7dyPeD0DjFhe9FNS3D7jCFNre+ixt50bwcmmGnpPyc9fa+rnbxl/Ci26jz497XdOW+R9HXDwRiDm/AcnejO3+ey43sR+t8sXFEbABcPa5fqLi4gYA8cPQ33OJ2TcXXDLnHFu2DAqctGEdNGO+8PhMOqK2lZmL9ziyDLIyfydN19epazBj1AE2Y+e6j+bSDD0ndchdq+uo9lWf2z85MYf2vprft+u6q2tvyTHEpZOj5U94RG6y7x+ak1Pvz31IfvInP05Pgj/VsZy5yF9Gdn/kysk7GizawNSdI3zMVXd2d4lpIsti1keqQzezwPhfmi73S5TatnlRqOpU/ZCc9u+VOT05NM5fNo74WDOwvrjokXSL6FnbdtjqOi7buhR458/dWP6lzd6fqknPWoTvLnXO+WLoua5l+33Qra/lsc13Tl/sYPMpp0dcejjYHYVFxMaOXlLb6C9Y6k4x/KEBt+NnRMMZQWfS9bDLRgQrUf7VqReoU7aOHE93fO0DX0By58LAZINMehu3ufZfup7LAOdwGBEqP1DruvS+X+L4IR5Qdf7J/dYRfTrvps45Xww9l/dhU7YvLu47L8t2++yE10xZLPrWHXFxOk8HGKo/Htjxr9baAFfNcPRotinHCRSD3iFY5eWN6pMBauLiUgEe+QOOyaAmPhD76z8mGfh8ncAk9r8yJ4cdmIgOLpb+Kysu7hNN2jZJLgKbNIy6QSX8Q5w6/3B/NbPskr/HsM2rqfNQP+Wui/efsOyIPZy+1LJi0KX9M0sTiAsvUUYgijpdljtk6UvenfBnMc37FMGSgZOXN1qLjkK71+dE1yM1UnQ6RHwU7QaTDuVvIk/HTok6yP2savll3112qgTF/khXXNTdNuaCT+6cWy+7FOcsgcnTbZnBha1HcXGRBwhklqeZqJ60Oy30S4qKfzuIqrdL/k/kh/G6+FGlydc554uh5xof5stu0lmf+TPE3CynuSaWzzyPBS9RIi7zdPRthJs2w/JmGdCCVmigpoR2s3XfPBuBuPAS5eaNPnVoqD+MwIC39LjWqsM8eQqWxRCXeTqaYIBfYaAkA3pJmxv5MbYQlxlNQ2MO5ljJgEJe8CQMeA81pO5v3vLYgrjccgAIFggGDHRgwHloxX2Ahxv5cfshLohLoaeH4oARuLDLPBjQN+8bcWkek8bPvp8RF8QFcYEBGGhlwF8K6/jnh1rzna8oIS632Pn+SIPv8+3o+BbfbpsBxAVxYdQKAzAAA8UZQFyAqjhU2x4hUR6jchgYHwOBuFxeXpqLiwtzdHRE0EF4YAAGYAAGBjEgGnJ2dmbOz88rTVnwEuX4RgCMyvAJDMDA1BgIZi6ICxBPDWLqC7MwMD4GEBemvIOmvHTm8XVmfIJPxsQA4oK4IC4wAAMwUJwBxAWoikM1ptETdWE0DwO7YQBxQVwQFxiAARgozgDiAlTFoWKkuJuRInbH7mNiAHFBXBAXGIABGCjOQCAu/Mwxo58xjX6oCzzCwDQZCH7mGHGZpiPpgPgNBmBgTAwE4sJLlAA6JkCpCzzCwDQZCJbFEJdpOpIOiN9gAAbGxADiwo284jfyxgQ4dSHgwsBuGEBcEBfEBQZgAAaKM4C4AFVxqBgp7makiN2x+5gYQFwQF8QFBmAABoozgLgAVXGoxjR6oi6M5mFgNwwgLogL4gIDMAADxRkIxIWXKHej8oyusDsMwMCcGAheokRcAHxOgNMWeIaB3TAQiAsvUe7GEXQA7A4DMDAnBoJlMcQFwOcEOG2BZxjYDQOICzfyit/IozPvpjNjd+w+JgYQF8QFcYEBGICB4gwgLkBVHKoxjZ6oC6N5GNgNA4gL4oK4wAAMwEBxBhAXoCoOFSPF3YwUsTt2HxMDiAvigrjAAAzAQHEGAnHhJUpGP2Ma/VAXeISBaTIQvESJuEzTkXRA/AYDMDAmBgJx4SVKAB0ToNQFHmFgmgwEy2KIyzQdSQfEbzAAA2NiAHHhRl7xG3ljApy6EHBhYDcMIC6IC+ICAzAAA8UZQFyAqjhUjBR3M1LE7th9TAwgLogL4gIDMAADxRlAXICqOFRjGj1RF0bzMLAbBhAXxAVxgQEYgIHiDCAuQFUcKkaKuxkpYnfsPiYGAnG5vLw0FxcX5ujoiKCD8MAADMAADAxiQDTk7OzMnJ+fV5qy4CVKRj9jGv1QF3iEgWkyEMxcEJdpOpIOiN9gAAbGxADiwpR30JR3TBBTF4IqDIyPAcQFcUFcYAAGYKA4A4gLUBWHilHk+EaR+ASfbJsBxAVxQVxgAAZgoDgDiAtQFYdq2yMkymNUDgPjY2C04rL4168aPtgABmAABtZjYFfCG4jLWH7mGKDWAwr7YT8YgAFhYFfiEvzM8djE5fr62vDBBjAAAzDQjwE7uBiNuIzlJUprGIDqBxT2wl4wAAPCgI2huxKXYFkMcQFMghMMwMD0GUBcEk9rWcMA+fQhx4f4EAa2z4CNocxcPJGxhgHK7UOJzbE5DEyfARtDERfEhQcXeHgDBmCgGAOIiycqVmWtYRhBTX8EhQ/xIQxsnwEbQ21M3faWG/qMlIqNlAgg2w8g2BybpxhAXJi5ENwReBiAgeIMjE5ceImSkVBqJMRx2ICB6TCwa3HhDX1GTMVHTASg6QQgfDVfX41OXHiJcr6wEUjwLQzcHgZ2LS7c0GfmwswFBmBghgwgLtzQp2PPsGMzQ7g9M4Sx+hpxQVwQF8QFBmCgOAOIC+JSHKqxjqSoF6N5GNgeA4gL4oK4MGqFARgozgDigrgUh4rR4fZGh9gaW4+VAcRlE+Jy79jsLRZmYT8Hd4sE8LsHqzz/0l82f2lxYO5OYbTl28LaZLFnju+tAkOVJtGe5PVii8Q1tV3umoO6vKXt9o7vxX1x98AsgjopHzr5fMB8wPmu06l22XrUbYjV19Yxdu4WBM6c76391t3mysidy5Vb+1T7XvaV/3N5J6+XPFpY8K/V8UWXqfdzbdnQudGJy+Tf0K+ClIbjnjneW5iFBmCQMyUIKXAH5bGDYJUCXNsplUbamDuXs0F13cIc3NVtXgbyUGCWPjo4OIj7KVeH3DlbvyrNntnb8+tzba7FDnt7Zq8toNi82MYHB9ouvk/87zrt0P1UnpvmWudf1d2LL6l6lW5nh/x2LS4ze0N/GbzcgGYD5JrCUBqaDnAUmW4n663EMpnG2k6LtRaL1P6yw4UiksjPlm+3vm1SxyVd7pzNZ5Xm+HjP+HWS2ejBscx0+7Yx1XaOBz7p4iPrq67bZJ6b5LpDfEnWayAXa+Q3OnGZ9Bv6wagi4dDKYXY6rURn5UgJQnZJrQpGTvqFOfhxLxjp8wfH1UypErhVfvXymf4u+3sH5kBmVXVgW8K7LLsl2FVttW3IzMx0mbrjyvV2NpdKI+lz53R+er/nNffE3qu6SLD3BSBbhy5l2TSy3Ts29+q6ir0PzF173jlubev5wbG7Ykeu7XzO81dV/qo8zU9Vn45M+G3wv6fqptOt9gP+rV2q86l62r6m67uyjy1D1aEeANpztgyVxlnisuft1r/OHpfrN8V1VTePB1uu3ep66f3qvLaNymeVLrS7Tu+xZsvLbHctLvN6Q1+c7wQPC7zeLh1Ww62BqZysgltwbgWEA42bXxUoF6vlFyedF6hXZdX1uF4tDa2Wkap8km1xy1wGtQR8q3KsWOptHcT9empgM9fXnVinl/1OfrA+kbaouseuba2f6qh+XeR7fb3Y2CtLAlF9XuqU80Ourm3n1JJcxZWth+tLh59sXaz9VlunDbrNcj5TN31dtZ/gv8qjaYNbzy51UYKa6le5evp+XdVV82z3d8p1YE/LZoarnN11fr4NWr4jLiVv6McCk++AwFmq41XnbKf3Oqi+Tu8HZapgodNJPfT3aj9RVlVnVS+/DcH3TFpdpr5Ol59KI+lz53R+ej+wybWpH4aobsSrdgdplf1snrk65M5FrpegaINPtSQmYq7z0PvV9dq2kbrZMrzgm1/SVHnm2p+tS5eAbgNbpt66jGpf+Uafy9WztkFO6BL56jL62NC5TtlCtyGVRuqbO+e3x34PbKDKtWl0vqn9Kq1ioErXxT6R8my5kS3iUlpc6iWmhCMCQNSIQsMgztLfE/vhDGNAfnVZdinGbhVwPjxVfWw62SbS6no7eaiAk0zj2cC5PmHfui02sPnpVKdajcztiNPZ2qWNtvxydbf11Wlkv5oRSj1WdfTPB0+iadsu7Wbr2sw8pZ2Zc1UZob/a+dHX9PCzblNlh0TddDq979k9W09rZ7vN5FOJrj6v93P1tHnbbXCd5WzZzsovyTQDuZbYYZmx9fC3usxgP+FLnU7y09/1vl9Wy3fEpaS4JEc+OeDk3Cp4+I7U31P7gVhlykrl4QPVAs0SPj/g6e+2o3mgOvlm2q3T6Trr49n9pcDaGYI7iu9QblWmak+uDrlzto5OmlX5d63IeDZy0io72rz0Nhds9LkqT9WeitPV9z786LL9fb/e/nedPqhbRGQlvc4jV0+dt39d23ddhp+Prqd/LnldB75idfLzj36XvJulwYZrdVzXK7Xv563T+XXzz/nXZr4jLkXF5dpUIywrFpXhl4GuuRejQJDzGmDfkfp7at8TtGX5FkC3rOW5REf21tedju0DpOt8bZecdPBSQVHXW+XjjEQTaYJRprq+6ViqLH2+ylOt31fnVr5Y+adaKtMzFHW9c2N/3fp519slulr8nPNq5in10eeqfWVn7YfcOZ0u8FeMEctPpi7KVktfxPLRrOXqrdOt9v22Zzn3GPBtoW3o56vP+dd5dnOY09cpW2ya62UfVra0s297f1TXS+/n+reTroU51VbHHpHjiEthcakMXkGppqB+AKucac8rUFqdnOuEq/wODpqZ0LUVu+W5vePj+FJMDcYyQCyXXFS96vO2E9sgbfO92zyh5qd12mrbLFs/iOhzNt97q+AanosvC9n62a1bz+qa2hfS1kwbdWDx/aLbmDtn0/lpqrxV2f75VSCN+sFhS+UhZSXPuXbYO/b8VZW/srHHj7vU5pVn27faLgOf9Z1iLVc33Xa9L9dEv6fqaX0u26a90eUpna/ez9Vz1cY6oFbXxbjcAteOn9WDCr7N/LaluPLTOd89W/p2yHxHXDYhLhmD13BuLE1L0NxYubpzs795P2/KxlPhZyr13JSfxp8v4jJ1calGGWpEWY1q1OgJMWl/o/s222gq/EylnreZJa/toxOXy8tLc3FxYY6OjsxNIvBv47g1zBRGoHo5IvnUluf4KbSLOm5ndDoVfqZST7hdcmtj6DbidawM0ZCzszNzfn5eacpi0m/oE8CZJcAADMBAxcCuxWVeb+gDFYEFBmAABhCX2FTKHrOqyxR3O0sz2Bk7w8C8GLAx1MbUbW+ZuTDKYaQLAzAwQwYQl8RDA9YwjKbmNZrCn/gTBrbDgI2h256x2PKYucxwxELn3U7nxc7YecwMIC7MXFiSQOBhAAaKM4C4IC7FoRrzaIq6MdqHge0wMDpxefTokXn48KGR3z+2a2e72FrDAOJ2QMTO2BkG5sWAjaG7iN9SpmjI/fv3zYMHDypNWSAu8wKMgIE/YeB2MjA6ceEN/dsJIgEIv8PAvBjYtbjwtBg3ErnnAwMwMEMGEBdu6NOxZ9ixmQXMaxYwRX8iLogL4oK4wAAMFGcAcWkRF2sgtq8abIANYAAG+jKwq6fFRn/Ppa8hSU/ngwEYgIGGAcQlMYPZlWEo92an7zlhf+wPA9NmYLQzF8CaNlj4D//BwO1mIBCXsbxECZi3G0z8j/9hYNoMjPYNfcCaNlj4D//BwO1mIBCXsbyhD5i3G0z8j/9hYNoMBMtiiMu0HUqHxH8wAANjYABx4Sk1ngqDARiAgeIMIC5AVRyqMYyaqAOjdxjYLQOIC+KCuMAADMBAcQYQF6AqDhUjxt2OGLE/9h8DA4gL4oK4wAAMwEBxBhAXoCoO1RhGTdSB0TsM7JaBQFx4Q3+3DqFDYH8YgIE5MBC8RIm4APYcwKYNcAwDu2UgEBdeotytQ+gQ2B8GYGAODATLYogLYM8BbNoAxzCwWwYQF27oc0MfBmAABoozgLgAVXGoGDHudsSI/bH/GBhAXBAXxAUGYAAGijOAuABVcajGMGqiDozeYWC3DCAuiAviAgMwAAPFGUBcgKo4VIwYdztixP7YfwwMIC6IC+ICAzAAA8UZCMTl8vLSXFxcmKOjo+KFjUFNqQOjOhiAARjYPAOiIWdnZ+b8/LzSlAUvUW7e6ICNjWEABubOQDBzQVyAfu7Q0z4Yh4HNM4C4sNbK8icMwAAMFGcAcQGq4lAxKtz8qBAbY+OxM4C4IC6ICwzAAAwUZwBxAariUI19REX9GPXDwOYZQFwQF8QFBmAABoozMFpxeeKJJwwfbAADMAAD6zGwq1laIC5j+ZljAer6+poPNoABGICBgQxIHN2VuAQ/c4y4IGiIOgzAwDwYGJW4jOUlSmYu84CbIIUfYWB3DOxSXIJlMcRldyDQCbE9DMBASQYQl8iTGsxc6GQlOxl5wdNtZABxQVy4YTnwhuVtDBi0GaHsygDigrggLogLDMBAcQYQF8SlOFRdRzakYxQMA/NlAHFBXBAXRq0wAAPFGUBcEJfiUDEane9oFN/i264MjEpceIkScLuCSzpYgYFxM7BLceENfabizJpgAAZmysCoxIWXKMc9EmGkiH9gAAa6MrBLceEN/ZmOWLrCRzoCFQzMlwHEhRv6LEsg8jAAA8UZQFwQl+JQMRqd72gU3+LbrgwgLogL4sKoFQZgoDgDiAviUhyqriMb0jEKhoH5MoC4IC6IC6NWGICB4gwgLnMQl3vHZm+xMIvo58DcXavj3DPHewtzcDcywqrKHZB/sr575vjeqpxc3snrxQYt9fGvPbjbdCpdpt5fy34Ru9n8UmWkjst1+lxq3+a/zvbugVkslD9sXlWZMdZUWl0ve523vXe8Z/aO77nt0WlsHsnypA4fMB+IMi/n9szxR1P9QtVVl1nvL5l3+pPmpE6X8W2pNNL+XZW9ZhtGJS68oT8QVtsR14QhvkSxKXGJiEAV0FbHc23KncvZQOdfpVsFEdt5h+abKrMtv9R5fVzv++WkzqWO+9cnv698fnBgFtY2Nm0qby1GqTQ2j+u75sAOAlJpY8djx2yesXOxY5Je19Ver7Z3DxZeuz1OVNp4nxnYjxP5Sn2ig7tE+m3UqUsZuxQX3tAvBUeqExXJf4viUgWd1agy16bcuWSbJaBFOmmVV4cyk/lmAklbPVPn9XG979chdS513L8+9d1eb7c6XexYdV5xkkyztFU9a5HrUmljx2PHbN1i52LH/Lra6+utcBKZ2STzyvi/znPNNCKGe8fmXqn8tpTPqMSFN/QHQtgF/FWa4+O9evmsWpawoFWjObXcUY9Y1Sh2tQRRXxeUuwzgy+WEyMzElhVct2q31MGWm0ojeeTO2TL8bdW+TJ38fIMyEm1bpQvtqtNHgpVfnq5vXXYkj/qcZ4f6eHhNOBK/NhLga1vrsq/dc3Jt7e9cna+7ioukU/ao6+2xHzseO2brHjsXO1alV3W119fb5bmUbZoRu7az4krK3DswB3vLpbm/aGdoQbldrrf5Slpls7quns1GdnyX4sIb+qVgqDqREga9Du0EaxUonGC7BL2eelfnLMyrzlaPnFRap/O6HbYKXvU1XifI1LcOZE7e3a9PBgVpU6o+1g+6TL2vA6cNvjavVVvqemu7Onl4bZAyU+f1cb3vX6PPpfb9a6q2ur5qAqbU0Qtkvt10OVVeq3Z1bbd/ffU9wa4TmDP2irYxk17XVbeh3l8yXt9zsX2oPu/az2F91Z5lX3LTVf6uuHGPp6+3zLjpXX/ZNOPbIi6zuaFvRzkJyCrorWBkOl7VgXSACcGuR8I6UOj9IA+vTkHa1Xldx1QayTt3rg4AXpl+kIyl0/mm9v22VekSdtV5tJWnz+vr9L6k0d+77Ff5ej7U1+lyZT+wkxpM1OXHxCBhg1j+WjRSdYkdjx2z+cfOVcda6mqvT26V0FiRCcpS/aU619hCzxBlvxqE9LjeCkkwg0zW1+N+h+kQl1slLkqAfMCr77oj2g7iBSY7cpeOpvMIrpe8bB4e8Po6B34VyJJpvADrXO+Vo8+1jla9fHX5ubbpdFKe/q73dV3sfuq8Pq73c/nrdHp/VVY0yNl61Nulr+sRe3IGrDiqr1W2j5Rvg2QgXqm0seOxY7b82LnYMZu+77bKa8Vzta/7imLdL1O+17OVAdev6om43JibSKxOHWNZrC/gqfQ+0LF0fhr9vdrXQqBGYt6SkASJGvQgj5agY+ulr7PHqq0qN5nGC+DO9SrABceVcDnn1HFdZmrfuTZSl67XVfmo9up89exB5ydp9Pcu+3W+Upb4RwRE+1rZTOdXX2fL1IGxxc+pfPz6x77bcmN5xI4NTW+v87fJQYgaZPWsx92DPXN814qMtWfChom86z7n13fE35m5RNRQjFKPtEbsvLqOCSDr89IGP43+7nUoAbmZdaxGs949hmpNWefhi5BzTgWwWF1WNg7Xnvt1QKe9Eb9V+TuzqVjbVmU69VeBxa+/k86zc3UuEchX9atsbW1bHVuKXX0Px89Dl5fdD8uVsg6OVZDzbFTVxS79RM7Fl3Q838p1ul5ePsG5VNrY8dgxm3/sXOyYTZ/cekys0jls5liPlVn1L3W/s+/1fvpk3SO+2GFaxGU24uJP05vvoRD4AWDVoeqnwe6qFydXgVXeeajP31uKb9CRloFxmS4MbnXwr65r6mfzdV6ATKRpAlzs+uWx+sGEWMdadfS6TB1MdXv0fpVPom1+Oud7Y9dcnZZi3rSnFpaqXC8PnX9qfxWMpI1Ouau2O8dqG0n7Mj6zAxBdZn2tF9SyaVY82ZdyU2ljx2PHbB1i52LHbPqWre+T8GGQjjxU5Uhaf6DU9/qMb1raUve7LadDXOYgLluGZlewUq4XxPv6fY1gW9L2MgtwBXTNdvW1w9TSi7A7s9tp2AtxQVymtQQ4tcAwovpWSzt6prazusVG8tMImCVFtmte1XKmnentzGf9/TMqcbm8vDQXFxfm6Oio15MBqScGhh4Xo3R1POn6Q4fNtmyzasYiy27+0syW66ECI7OXjrYX301w1iJ9fJfiIhpydnZmzs/PK01Z8IZ+R+BUJyVQYzMYgIExMrBLceFRZESCGSIMwMBMGUBcuOdC555p5x7jaJY63Z5ZFuKCuCAuiAsMwEBxBhAXxKU4VIxOb8/oFF/j6xQDiAvigrgwaoUBGCjOAOKCuBSHKjWS4TijXBi4PQwgLogL4sKoFQZgoDgDoxKXR48emYcPHxr5/eOhL0CWuE6Mwgjr9oyw8DW+hoHyDOxSXERD7t+/bx48eFBpygJxKe9gOg02hQEY2AUDoxIX3tCnE+yiE1Am3MFAeQZ2KS68oc86L8uPMAADM2UAceGGPp17pp2b0Xj50Tg27W5TxAVxQVwQFxiAgeIMIC6IS3GoGN11H91hK2w1VwYQl4S4iGH4YAMYgAEYGM5AiVdDhuQx2hv6QxrDNTc7fTcJ+2N/GIABywDiEpk1WeOwpaPAAAzAwDAGAnEZy0uUOHSYQ7EbdoMBGBgDA6N9Q38MxqEOdFIYgAEYGMZAIC5jeUMfhw5zKHbDbjAAA2NgIFgWQ1wAcwxgUgc4hIFpM4C4cEOfJ8xgAAZgoDgDiAtQFYeKEee0R5z4D/+VYABxQVwQFxiAARgozgDiAlTFoSox6iEPRs8wMG0GEBfEBXGBARiAgeIMIC5AVRwqRpzTHnHiP/xXgoFAXHhDH7BKgEUecAQDt5uB4CVKxOV2A0FAwP8wAAMlGAjEhZcoAasEWOQBRzBwuxkIlsUQl9sNBAEB/8MADJRgAHHhhj439GEABmCgOAOIC1AVh6rEqIc8GD3DwLQZQFwQF8QFBmAABoozgLgAVXGoGHFOe8SJ//BfCQYQF8QFcYEBGICB4gwgLkBVHKoSox7yYPQMA9NmAHFBXBAXGIABGCjOQCAul5eX5uLiwhwdTvJfrwAADO1JREFUHRUvjJHItEci+A//wQAMdGVANOTs7Mycn59XmrLgJUrg6QoP6WAFBmAgxUAwc0FcgCUFC8dhAwZgoCsDiAtrrSx/wgAMwEBxBhAXoCoOVdeRDekYBcPAfBlAXBAXxAUGYAAGijOAuABVcagYjc53NIpv8W1XBhAXxAVxgQEYgIHiDCAuQFUcqq4jG9IxCoaB+TIQiAs/czxfZ9OR8S0MwMC2GAh+5hhxAb5twUc5sAYD82UgEBdeopyvs+nI+BYGYGBbDATLYogL8G0LPsqBNRiYLwOICzf0uaEPAzAAA8UZQFyAqjhUjEbnOxrFt/i2KwOIC+KCuMAADMBAcQYQF6AqDlXXkQ3pGAXDwHwZQFwQF8QFBmAABoozgLgAVXGoGI3OdzSKb/FtVwYCceElSuDpCg/pYAUGYCDFQPASJeICLClYOA4bMAADXRkIxIWXKIGnKzykgxUYgIEUA8GyGOICLClYOA4bMAADXRlAXLihzw19GIABGCjOAOICVMWh6jqyIR2jYBiYLwOIC+KCuMAADMBAcQYQF6AqDhWj0fmORvEtvu3KAOKCuCAuMAADMFCcAcQFqIpD1XVkQzpGwTAwXwYCceElyvk6m46Mb2EABrbFQPASJeICfNuCj3JgDQbmy0AgLrxEOV9n05HxLQzAwLYYCJbFEBfg2xZ8lANrMDBfBhAXbuhzQx8GYAAGijOAuABVcagYjc53NIpv8W1XBhAXxAVxgQEYgIHiDCAuQFUcqq4jG9IxCoaB+TKAuCAuiAsMwAAMFGcAcQGq4lAxGp3vaBTf4tuuDCAuiAviAgMwAAPFGQjE5fLy0lxcXJijo6PihXVVPNIxOoIBGICBaTMgGnJ2dmbOz88rTVnwEuW0HUqHxH8wAANjYCCYuSAugDkGMKkDHMLAtBlAXFhrZfkTBmAABoozgLgAVXGoGHFOe8SJ//BfCQYQF8QFcYEBGICB4gwgLkBVHKoSox7yYPQMA9NmAHFBXBAXGIABGCjOAOICVMWhYsQ57REn/sN/JRgIxIWfOQasEmCRBxzBwO1mIPiZY8TldgNBQMD/MAADJRgIxIWXKAGrBFjkAUcwcLsZCJbFEJfbDQQBAf/DAAyUYABx4YY+N/RhAAZgoDgDiAtQFYeqxKiHPBg9w8C0GUBcEBfEBQZgAAaKM4C4AFVxqBhxTnvEif/wXwkGEBfEBXGBARiAgeIMIC5AVRyqEqMe8mD0DAPTZiAQF16inLZD6ZD4DwZgYAwMBC9RIi6AOQYwqQMcwsC0GQjEhZcop+1QOiT+gwEYGAMDwbIY4gKYYwCTOsAhDEybAcSFG/rc0IcBGICB4gwgLkBVHCpGnNMeceI//FeCAcQFcUFcYAAGYKA4A4gLUBWHqsSohzwYPcPAtBlAXBAXxAUGYAAGijOAuABVcagYcU57xIn/8F8JBgJx4SVKwCoBFnnAEQzcbgaClygRl9sNBAEB/8MADJRgIBAXXqIErBJgkQccwcDtZiBYFkNcbjcQBAT8DwMwUIIBxIUb+tzQhwEYgIHiDCAuQFUcqhKjHvJg9AwD02YAcUFcEBcYgAEYKM4A4gJUxaFixDntESf+w38lGEBcEBfEBQZgAAaKM4C4AFVxqEqMesiD0TMMTJsBxAVxQVxgAAZgoDgDgbhcXl6ai4sLc3R0VLwwRiLTHongP/wHAzDQlQHRkLOzM3N+fl5pyoKXKIGnKzykgxUYgIEUA8HMBXEBlhQsHIcNGICBrgwgLqy1svwJAzAAA8UZQFyAqjhUXUc2pGMUDAPzZQBxQVwQFxiAARgozgDiAlTFoWI0Ot/RKL7Ft10ZQFwQF8QFBmAABoozgLgAVXGouo5sSMcoGAbmy0AgLvzM8XydTUfGtzAAA9tiIPiZY8QF+LYFH+XAGgzMl4FAXHiJcr7OpiPjWxiAgW0xECyLIS7Aty34KAfWYGC+DCAu3NDnhj4MwAAMFGcAcQGq4lAxGp3vaBTf4tuuDCAuiAviAgMwAAPFGUBcgKo4VF1HNqRjFAwD82UAcUFcEBcYgAEYKM4A4gJUxaFiNDrf0eiufPvEE08YPsNssCufBeLCS5QEhl3BSLmwl2JAhOX6+ppPTxuI3VI23fTx4CVKxIUOvmnoyB/G+jKAuAwT1lGJCy9R0vH7dnzSw8ymGUBcpicuwbIY4kKg2HSgIH8Y68sA4oK47Gx9ry+spCfAwcB0GEBcEBfEhafPYAAGijOAuCAuxaFidDmd0SW+wlebYgBxQVwQF0atMAADxRlAXBCX4lBtaiREvoyyYWA6DCAuiAviwqgVBmCgOANbE5d7x2ZvcWDu+i8rpo4PTedft6HvYrddDaKCR5F5iXI6o7ldQUO5MLJtBhCX6c1ceEOfUebORjbbDlCUN11RRFxmIC68RDndDkjwxHdzZWB84nLXHCwWZlF91DKas3x2zxzv7Znj44NVuoVZHNzd6t9HG9WyGOJCgJprgKJd02V7u+JiRcPfWhER0ViYg7vL2cS94z2z2Ds29+S+SSAukoe9bilIe8f3tiYwiAtLUyxNwQAMZBjYrrhYMVBLUVo09H51I15EY88c34uLixUh+avOlRBtcfaCuGSgYrQ53dEmvsN3pRgYn7j4s5pu4nJ996CZ5WzoCTH90wSIC+LCqBUGYCDDwPjEJTK7SSyLMXN5wbz88stmwT0XRpulRpvkA0ulGBiVuFy791yc+yzOktkyXX0/5np5z0WLjZ5lbGKfmUtmxFIKTvIh0MHAdBkYl7jIvRj9tNhqSSw1czlonhbb5s18ESvEBXFhSQQGYCDDwNbEpeh9EG+GUzRv9bBBJl/EJQMVo83pjjbxHb4rxQDi0k1M/KW1UYnL5eWlubi4MEdHR4ykED0YgIFRMIC4TE9cREPOzs7M+fl5pSnc0CeYjCKYlBrxks88Zk/TFJdhguDPPtb5PqqZC0+LzaMzElTx45wYQFyGCRXiwmyB2QIMwECGAcQFcaGDZDrInEaStIWZ0TYZQFwQF8QFcYEBGCjOAOKCuBSHapujI8piNA4D42RAxIXPMBvsiunglyi5oT/OzrUrQCgXHmAABoYwgLiwhMFsEwZgAAaKMxCIy6NHj8zDhw+N/P7xELXiGkY5MAADMAADoiH37983Dx48qDRlgbgABYEBBmAABtZlIBAX7rkA1bpQcT0MwQAMBMtiiAtQEBhgAAZgYF0GEBdu5HFvDQZgAAaKM4C4AFVxqNYd8XA9o2YYmD4DiAvigrjAAAzAQHEGEBegKg4Vo87pjzrxIT5clwHEBXFBXGAABmCgOAOIC1AVh2rdEQ/XM2qGgekzEIgLL1FO36l0THwIAzCwawaClygRF6DcNZSUD4MwMH0GAnHhJcrpO5WOiQ9hAAZ2zUCwLIa4AOWuoaR8GISB6TOAuHBDnxv6MAADMFCcAcQFqIpDxahz+qNOfIgP12UgKi4vvfSSkRPrZs71AAoDMAADt5OBQFy++tWvGsTldsJAEMDvMAADpRgQcfm93/s9c3V1VWnKAnEBrlJwkQ8swcDtZQBx4Z4Ly58wAAMwUJyBQFzkJcoXX3zRyAswjDpu76gD3+N7GICBdRgIXqLkDX2AWgcoroUfGIABYSAQF16iBAyCAwzAAAysy4Asi33+8583X/ziF80rr7xiFiIusiMn1s2c6wEUBmAABm4nA6Ihl5eX1W2WV1991Sy+/vWvG9lBXG4nEAQC/A4DMFCCAdGQ5557zjx8+NB8+ctfNovXX3+92kFcAKwEYOQBRzBwOxkQDXnw4IH50pe+ZL7yla+YxfX1tZGb+ojL7QSCQIDfYQAGSjAgGiIvUMptFnl/cvHGG29UO4gLgJUAjDzgCAZuJwOiIfJaiyyJyb38xZtvvmlkaUxOpD5HR0fJc/YaeQxNPvZ7als6nZRD/ULfdbUz9gttJzbBfuvZBfvdTvu9/PLL1UrYN77xDbN46623jMxe5Ma+rJPJlEbWzORxMpniyBra008/XT0FII+Zyd+O+exnP2vu379vPvOZz9SfT3/600Y++lhsv3Q6KePJJ5/cerld20H9GkY0D9hvPbtgP+xn+9O24p/EfIn9VgNkKzfwn3/++Uov5G9UiobIrEVutyzefvttYwVG1EbWyuQejDxBJiokFzz77LPVxS+88EKVkWQmoiMZ248Ij3zs99S2dDopR8QvVZ49XrrcrvlRv4YR6wvZYr/17IL9sJ/tT9uKfxLzJfbb+C9beTJMdEL0QnTDCsu3vvUts5D1MTkpiUQ8ZLYilZbnlT/3uc9VKvWJT3yimhlcXFxUsxMZNYngfOpTn6o/zzzzjJGPPhbbL51Oyvid3/mdrZfbtR3Ur2FE84D91rML9sN+tj9tK/5JzLczZtneu3evmsmITshg5wtf+EIlPKIjcu/l/wNXkEuIvatEsQAAAABJRU5ErkJggg==;" vertex="1" parent="1">
          <mxGeometry x="120" y="350" width="407" height="547" as="geometry" />
        </mxCell>
        <mxCell id="AZcHS8FLPlwrAeguX1iB-2" value="Initial App Screen" style="text;html=1;align=center;verticalAlign=middle;whiteSpace=wrap;rounded=0;fontSize=18;fontStyle=1" vertex="1" parent="1">
          <mxGeometry x="238.5" y="310" width="170" height="30" as="geometry" />
        </mxCell>
        <mxCell id="AZcHS8FLPlwrAeguX1iB-3" value="" style="shape=image;verticalLabelPosition=bottom;labelBackgroundColor=default;verticalAlign=top;aspect=fixed;imageAspect=0;image=data:image/png,iVBORw0KGgoAAAANSUhEUgAAAZYAAAIjCAYAAAAgFz3NAAAgAElEQVR4Ae2dbY8sx3Xf59voAxCY75AgyJODJGYSZJA3QRIgyAshLy4MMEiQrC07dhzFcK7tXVJ2LMscyY5sBLS8V5a5iuSYq11JlEg9Xz5JlERSl0tSoe0YRgWnuk/PqYfu6Znpmema/l1gbvd0VZ069a9/nX9Vdffs7L333nOPHj1yb731lj/+6Ec/8ufy/c0333RvvPGGe/311933vvc998Mf/tD94Ac/SD7f/e53nXxyaXrtK1/5Smv6uvK7posP1A/+ysX4uCu/1pWHf4y/UuOPxHyJ/aIBogWiCaIN8hGtUO2Q83fffdf9+Mc/du+//76b3d3d+cxiQIVEBsL3v//9RlBeeeUV9/LLL3vxeO2111z8eemll5x84uv2+xe/+MXW9HXld00XP6gf/C0f7fmu/FpXHv4x/kqNPzJpktgvGqACI9ogGiGaIWIj53J8++233TvvvOPFZSZfPvaxj/nP008/7XKfXdPF5pNPPpm1LWm72l9XnvrBH/4x/nKxjfgzXPyVhYmsYERcZqI2H/3oRx3/QAAEQAAEQGAbBERDZGUuW2YiMDM5QVi2gZIyIAACIAACgoBoyMOHD724yFaZX7HIVhL/QAAEQAAEQGAbBERDvvOd73hhkV2wmagLwrINlJQBARAAARAQBERDvvGNb/iHuOQm/0z+Q1ggBwiAAAiAwLYIiIa88MILftUiT5LN5D+EZVs4KQcCIAACICAa8vzzz7tvfvOb7tVXX3UzuZOPsEAMEAABEACBbREQDfnSl77kvv71r/v3XmaiLn2E5VN/eOme+sivb/x55g8+5f7qr/5qW38pBwIgAAIgMHIERENub2/d1772tc2E5eO/+/vuC1/6aufn5ssvOPn83qeedZ/8g+rz0ad/x7/6P3JccA8EQAAEQGBLBFRYXnzxRX8Df3Zzc+MuLi7Wmvv0Z67cn/35X2z8ufyjZ/1LM2srIAMIgAAIjAwBedmvz2dkbrv79+97v9v8kjZJnqH+iYZcXl66z372s+76+trN5Ddg+myF/fHV/3Zf/+Zr7qfP/8j9zJOfdh/6yAP3s//j0v3cb33Kvfjid9yjH73lXn3lFf/50VtvuV/55LX/dAvLQ/fg/n3fQGmkfB481KZK2tLdPtLveuwqo3n0+MjdLo395a2rzBnbj27dMluP2tjlWPu6alRg7NHt0t3fW91BVeaLabu5ujptw2yVY+Ozhw+qPhb8t8D74QPLC6k90wapQ3Dewn7VnozNjRtKgVNDQALwun998qyzMXS6+PSrv/ZrWXHpStvWD9EQWaTIk2Hy23n9heXZz7pvfOt1989//vfcv/iv/9P9q1/+Hfevzz/u/s2v/7b78pe/5X701hvulVfkx8pedios58/8H7deWIx4+KDwwFXa0jbQ265HkHhbUUB6dOtuvfGeNiKT+a9dtqq05dK0sTEiaSJ6ubQm0x5OOvztxGxbV6p2tmhrP6MqGpq79nNpZh0i0va7Zu1/7MClvxFynhgCfUSjT55jwJITkNy1IXzbWlj+8MFnvLD81Ec+5f7lf/+4+8cffsr95C/ddz95/795YXn0Zigsv371Wfdb13+0mbAEM9G2gd523cJTzbrbg1kfG9Ze13mXrSrtwYNM0PPB8kHLqqyrvl3T2vxdh9m29bbVt4E9EZJmtSmLkqV7cHvrlk0Hi++7CvQAfm7QJLKWgUAf0eiT51ittUJiz4f2Z2th+VQtLD/xoXP31376w+5v/MIvuL/9Sz/nfuJXfjpYsch2mKxYPvH8M+6TX/u9zYQlmJm2DfS26wYqP6PVlY+53pxaG/bc1Vspun2mNuo8t/WWzv379exYrmve+9VWTFOHnKhtOaotua6BUNOrQrLlo1uCflvHX67zJHVb+1X5VX097MVbjGsxi7Gxq8E2H+X6qk3ViiJsc7V1VeVZ3t62CK3iJe3Sc7GjmMbnKjJ1XVnswvYkdderIu0P1bBwWy7TFs2oXcKxaAT6iEafPMcEQQWlbWtsCN+2FhZdsfz1n/1F9zd/8efd3/nlD7m/92v/yf3Dj/z7SljefMPZeywvfP+rTj7rt8JWged+EyikqdGgbVov19vK1JmiGW5TtDmxttvOxYUHoYBo0BABbHy15ZsK6pNVWhCQGv9W6WFJe13OjWh11m3LWYv2uj03eRqfzLXgtPJDIQjvZVRpjRj29jG02XXPaYXfQ/egXr08fFALSOuEZJ1fK3EM6w79Ctpq6xJ+LFer0d234wLAT+6LivS645ga3kc0+uQ5ZpuKEJa/9eGfc3/3/s+4v3/xH91P/sa/c//kYz9lViyrm/d/8ed/5uSzXlh0dqkzSP0ug1vPbbe0XTd5/GxTZ7PmenNqbZhzX86KlgZ0k8fbsN/teVNBfWLSTOAOgqRtow/IWr+23dhYW3eUt5e92tV1mGXSW9sRTAoin2yawaTyIs5b+yYHDeh69HSpgnoY0K0Ne+6NrDjVVXdXW005L2wPdZtOV1LGZ06LR6CPaPTJcywgVFTkaM+H9idZscgvUvb52XxdsfzEr565f/DUf3D/6DefcP/06Xvun/3Ov/XC8tabP/Q37qutsDfde++96+7efnszYfHbHDqLjIOCQtF2XdPlKINc7djrem5tmPNMQKlKmDz+gv1uz9W+Hm1aHXiaQCR5THpQtw1SJs/auk3e3vbU1zWYBfaqMgcVFql/eeseyv0VfXJQrj24je6vGAwsvjF2tb3VjqAp19lW7RtdOcn3B+5hYk9x5VgyAn1Eo0+eY2CQE5LctSF8Ew157rnn/M+6fPvb33az3sLy6c+457/6Hfeh333a/ewnP+b+8+//pvuF//Ub7r888xH33HPPOxEW3Qp768033Tvv3PkXI4+yYhGk6tl6E4TkWvapMBNQfCDS+ycWbpvHG1/NfJPg1VGu9mn19JKxK2l6g9oHtj4rlkgMvP26XG97xt/av3bMjFgHwde0w5uz3+15DruVzXA7yvjlT6u2hk/RiW1Z4dnVqa3Pnm9Sd2W3wSFoa/XwQLwF9uCBbpvGfvO9ZAT6iEafPIfGoEtAutK29TMRlr7vsfzB5WfcX/7l/3Pv3D1y79af9959x7337p17951H7v3/+2P353/2vvvxj9/zovL224+cfNYLi279yFGDqTRPg8YqfXXzd3VN9mtXgTqCxQcEk1cDdyAGUfCJy/joEuUJyouG1XU0kUj9iMvVs1tNDuxo4Lzv7i8fuAfNU06xjeh7LQZ+3/qBfcqsr73Gmeokbn+DmW5VKp5xX7V9j/wN2ryaAFT92HbzXl1brsS3dttjH+Bu67PnUiD6brDrvnlv26Y4mGseM/O99o1D+QhIEO7zGVtLZTyJ323/JE3yDPUv2QrrKyy//fHf9SIhQpH7fPqPP+s+c/U59+AzV0H6b/7W0snffOEfCKxFwAdou/pYW4IMIAACI0Bga2F5//33vUDInzLe5COiImX5BwLrEPCrD7tCWleAdBAAgVEgsLWwjMJ7nDgxBMx2XXKv5MSaSnNA4IQRQFhOuHNpGgiAAAgcAwGE5RioUycIgAAInDACibD0fdz4hDGhaSAAAiAAAjsgkDxujLDsgCZFQQAEQAAE/Ev2wQuSfR83BjsQAAEQAAEQyCGQbIUhLDmYuAYCIAACINAXAYSlL1LkAwEQAAEQ6IUAwtILJjKBAAiAAAj0RaBVWO7u7hwfMIADcAAOwIFNOYCwIKBMIOAAHIADg3IgERZ93HhThSI/sxo4AAfgABwQDrS+xwJBIAgcgANwAA5sw4FEWPRx422MUQYSwgE4AAfgQLIVhrBACgIDHIADcGAXDiAs3LQb9KbdLmSkLMEMDpwGBxAWhAVhgQNwAA4MygGEBUINSihmnKcx46Qf6cddOICwICwICxyAA3BgUA4gLBBqUELtMsuhLLNkOHAaHEiE5ebmxl1cXBBsEBw4AAfgABzYigPn5+fu8vLSXV1duevrazfjcePTmDEw86Mf4QAcOBYHkhULwgIZj0VG6oV7cOA0OICwsNTdaqlLADiNAEA/0o/74ADCgrAgLHAADsCBQTmAsECoQQm1j9kPNplVw4GyOICwICwICxyAA3BgUA4kwsLfYylrZsBMjv6CA3BgbBxIfjYfYYGkYyMp/sBJOFAWBxJh4XHjsjqQAUd/wQE4MDYOJFthCAskHRtJ8QdOwoGyOICwcNNu0Jt2BICyAgD9RX/tgwMIC8KCsMABOAAHBuUAwgKhBiXUPmY/2GRWDQfK4gDCgrB0C8vtmZvPZm6WfObu7LYmu8+zcMsclq3lxWZLGW/n1p3No3oXy25fc/Xv41pLm+Znt9v714Xhtm2o/Uz82kdd2/pIue05M2LsEmHhceOyZgZ7n8m1BaHlYiUMbXmE+F1pHQNjuZi5WSAktdAE147UV9k2Ld1iNnNJEO9o42H6LiPgWf+PhOUx8aHuvYla8rgxwsIACwJeaxCSQFqvWlrzbCssxrYd/F312Hz7Pm/zw4rtvn3oY7/28+xsHgpem/99bJJnb8E4GHeF45wIC48bIywBwduCkARRXT205ZHB0ZXWOnj6rk6qVUK1TWe21aTO+cIt/Fba3H0g2HKrbC+W0s99yhu76m9rm2JBzNhPytb+fFi2HE1dPt9qK7DyV7mZsau+2WNTl9QR2zbfvSCu6mr69a727cxsh0qfW9+UA77enn5ZHzk/SaFKtsIQFh28HL3A2CAS3Wdptn2aAJbBrKP8KoBlygVBP94Wk/xWIO7c7dnczeZn7lYCVV1nFYzDfD7N5wuvt5fP+NbaXmvTnlv/wuuNP4HNKkA3YhKkheUDv+Mgbcu1TgSiurzI6P2zqq4GV+2TAOcwr/rc6VfsJ99PTlwQFkjdTWobnCxW/vq+tsLiYG5mwjpDTvySPNYfDXh1UK/LScDzgrhB+WAFJxgkZdVfE/STPCv/fNDt8keCuwZvi3m27pXdbj/FN4uPWbEEdVh7pj0+T8f3jvYmfgX1KXYcTwknhAWSbycs9ezVz1CToGKCRFfapth7WzY4mu0bv5qyaSZwSrlmlWLz9Cwf+9naJhOUfZ4O+1l/Kp87Z/tddtf5KWVF0GL/E5s1RtGqMF4lBt8TG9J2tWP4EPvI9+7xVyg+CEuhHXew2U0chBq84iBqAnmTp2t23xFs/HZMzp6ZMbf6la9zuZi7s6UKTD5Pg2mXbWlbW7r1uy1PjU2nPxutWDpwzPggT9st/D2TGl+fxwqA6deNhSXXZx3+WZ5wflICg7BA6G5CZ4KTBOBgVt2SxwfqrrRW7CsBibeDgjrjoGfrsedahw/69nFgI1KSx5ax51reHrPpEpB72hdbsT+BzcqW3q+ofNPg3+G39VHOA5t1gPfXZDVRi4AVw7s75x/zblYaUV0x5sH3KG+u7tg/vnePvYLxSYSFx42ZYTUz9yY4xVs6JjB15Fndy8iVr641wTMziKogZ8om9x2qAFw9FaaBtyWg+q27eEa9SXnDiyY4G99mM5e2pcW+b6ukGX/iQBzVEdrushv7aeqoMfYC3dRdCYK+ADs/W/oXU6v6IrEIhETqidN7+pXp64BzpBcvOMnjxgiLGZgQvHiCE7DgMxw4PAcSYeFx48N3AsQHczgAB06JA8lWGMICwU+J4LQFPsOBw3MAYWG7i+0uOAAH4MCgHEBYINSghGJ2ePjZIZiD+dg4gLAgLAgLHIADcGBQDiAsEGpQQo1t5oQ/zObhwOE5gLAgLAgLHIADcGBQDiTCcnNz4y4uLgathBnD4WcMYA7mcAAOHIsD5+fn7vLy0l1dXbnr62s343FjyHgsMlIv3IMDp8GBZMWCsJxGxzJA6Uc4AAeOxQGEhb1Vtj3hAByAA4NyAGGBUIMS6lgzJOpldg4HxsMBhAVhQVjgAByAA4NyAGGBUIMSilnjeGaN9AV9cSwOJMJSys/m37t3z/EBAzgAB6bKgWOJRp96k5/NL0lYHP9AAARAYIIIiJj2CfDHypMISymPGwuw/AMBEACBKSIwdmFJtsIQlinSlDaDAAiUhADCsqeb46xYShoG+AoCIDAkAggLwjIkn7AFAiAAAv7BpWPdP+lTL1thkBQEQAAECkOAFQsrlsIoi7sgAAJjR6A4YeFx47FTCv9AAASmjsDYhSV53BhhmTplaT8IgMDYEShOWHjceOyUwj8QAIGpIzB2YeHm/dQZSvtBAASKQwBh4eZ9caTFYRAAgXEjgLAgLONmKN6BAAgUhwDCgrAUR1ocBgEQGDcCCAvCMm6G4h0IgEBxCBQnLDxuXBzHcBgEQGBiCIxdWHiPZWKEpLkgAALlI1CcsPAeS/mkowUgAAKnjcDYhYX3WE6bf7QOBEDgBBFAWLh5f4K0pkkgAALHRABhQViOyT/qBgEQOEEEEBaE5QRpTZNAAASOiQDCgrAck3/UDQIgcIIIICwIywnSmiaBAAgcE4HihOXm5sZdXFy4Pn/X+Jh5BFj+gQAIgMAUERi7sJyfn7vLy0t3dXXlrq+v3Yz3WKZIU9oMAiBQEgJjFxbeYymJTfgKAiAAAs45hIV7LAwEEAABEBgUAYQFYRmUUBgDARAAAYRlj8Ii4PIBAzgAB6bIgWM+PLWu7mLvsaxrGOl3o3+yjz6ij+DAaXIgEZZS/h4LhDxNQtKv9CscKJ8Dxf49FshXPvnoQ/oQDpwmBxJhKeU9Fgh5moSkX+lXOFA+B5KtMISl/E5lYNKHcAAOHJMDCMuenlo7ZqdSN0EFDsCBY3IAYUFYeHoMDsABODAoBxAWCDUooY45S6JuZulwYBwcQFgQFoQFDsABODAoBxJh4T2WcSg+My/6AQ7AgVI5kDxujLBA5lLJjN9wFw6MgwOJsPC48Tg6hgFCP8ABOFAqB5KtMIQFMpdKZvyGu3BgHBxAWLhpN+hNOwb2OAY2/UA/HJMDCEspwnJ75uazmZsln7k7u60Hkc+zcMtcm1rLi82WMt7OrTubR/UuluMQo5Y2zc9ut/evC8Mcrn2uNX7mcF66he/TTNpy4WYz079xXY3dun/69Ms6m00d4ldb3V1pBPRjBvSx1I2wNANp5AOiLeD5QFEHpbY80sautA4MlouZmwUBqxaa4NqRsMu2qQrUO4lLBx5bDVzv59zN5zO3WEZYSf/N526eiHuF82KxiPCvy9t+9/726Zc1NoN2d4lHV1rUvsAmaVvxp0AMEZZSOi0bRGWgmkHemmdbYTG2LU5d9dh8+z5v8yMJukcOaLWfZ2dzFwueCPfiTFaj0YpF26bHAEvpl4xI+bxtqwzDgazNGKOWvvd+dKXFdvg+FTGx7UyEhceNRzoQ2oKBBFFdPbTlkWDQlRYELdv+PrNgyV8FumqbzgRIqXO+cAu/lTZ3HwiCZz179jP4PuWNXfW3tU1x4MvYT8rW/nw4CvI+32orMFxxZOyqb/aodclxfuZumzQpv3BLTW+u37nbs3nTryI+gSBtKZydNqVub1e31RbhVlhbmm+T9rH2UQcu1k681daVZrCxAYxzO17Hc548boywjKdzgkHjg88qwNl7LU3QyQSoxkZH+UaYsoPXBol4W0ywsgJRB0QNnnWdVTAO83mh8/nC6z74Zctn+qW1vdamPbf+hdcbfwKbVdsbMQnSwvKB3zGOTTkpY1YUEkhlUtCkaxul3iifYqICYL/H9WW/r7FZTw60rb49jQ8hDkGa992unrpw6fKhK01x4diM52wfjwefRFh43Hg8nROQKAk+tZ/+eh2E2vIICbvSepO0CjBe1FpXSSZAWN/uwlm4BCcviIlf7eUDPDrbZIJbh30fIOt2ZP2RwN8WwDvsdvnZ1HN35/w2mKzYYltJvRXuGvT9yqLNr7a+3Nim6YdsWcs5I4JxW+xWbSReIU5RG9vawfXtH0w5IHbJVhjCUpiw2MGaDGrTlq60TQnnbdnAEq+kbJpuj9QB1AdEM3P3tnqWj/1sbZMJiuvsZ/2pfPbC0xbAu+x2+SnlvE3xscYmaEclinZF2pyrmEug17JxXdnv622mbV1h2JWWiOJaXCoB0TY1Yun97kozXM62kfRQqI+LB8JSCkmD4GNJswoAySC3bWstb21F560BrGtFYGxk6lwu5u5sqcE1M1vfxOeMfT+4rN9teep6Ov1JZurdbWsd2IEPdX+1YRDkjevTlUEVgMOgLHlbrvexmbTV8KorLbYdf7f9GZ/bftokLc7L99GtYhCWUkjZMmCD2WRLHh/wutJaMahnutGsPagzuscSiFuuTh9M7M1oI1Lihy1jz3M+ZtOr4Nrcd+ryT2zG/gQ2o0Dt0zS4d/gd+xrYrLbAZMbe+GjS08e7V+Jib+L7PmjugUiefF9J3/ezGbY1tN+RZnyvhLUDlwA/xd6u2hTbKC3Gk++jE5J4UoWwlEJSPyjjLSP5Hm01JS9Q1gGstXxlM539hgFNty78MRIanSlXeUxwSIKOzqqNzx7/KnD1K7/yqxKhFJO0LS32m7qNP7HPEW6h7S67sZ+mDi9mOZzEnrkeczOe4dei2PSNbpUF5Tawado6PzsLfWlLi/FqMNV+idoT+LxBWtAmgy3XRykyCAvEHCUx4xkQ3wmmcKAcDiAsCAvCAgfgABwYlAOJsNzc3LiLi4tBK2GmUc5Mg76ir+AAHNiVA+fn5+7y8tJdXV256+trN+NxY0i1K6koD4fgwLQ5kKxYEJZpE4KAQP/DATiwKwcQFvZW2faEA3AADgzKAYQFQg1KqF1nOpRntgwHyucAwoKwICxwAA7AgUE5gLBAqEEJxWyz/NkmfUgf7sqBRFj42XxItSupKA+H4MC0OZD8bD7CMm1CEBDofzgAB3blQCIsPG4MqXYlFeXhEByYNgeSrTCEZdqEICDQ/3AADuzKAYSFm/fcvIcDcAAODMoBhAVCDUqoXWc6lGe2DAfK50CxwnLv3j3HBwzgAByYKgfGLMBFC4vjHwiAAAhMEAER06KEpZTHjQVY/oEACIDAFBEYu7AkjxsjLFOkKW0GARAoCYHihKWUx41ZsZQ0DPAVBEBgSATGLizcYxmyt7EFAiAAAgdAAGHZ0+O8rFgOwF6qAAEQGCUCCAvCMkpi4hQIgEC5CCAsCEu57MVzEACBUSKAsCAsoyQmToEACJSLQHHCwuPG5ZINz0EABKaBwNiFhfdYpsFDWgkCIHBCCBQnLLzHckLsoykgAAInicDYhYX3WE6SdjQKBEDglBFAWLh5f8r8pm0gAAJHQABhQViOQDuqBAEQOGUEEBaE5ZT5TdtAAASOgADCgrAcgXZUCQIgcMoIICwIyynzm7aBAAgcAYHihOXm5sZdXFyM+q+TyV9OE2D5BwIgAAJTRGDswnJ+fu4uLy/d1dWVu76+djPeY5kiTWkzCIBASQiMXVh4j6UkNuErCIAACDjnd2yK+pv3rFjgLQiAAAiMGwFWLNy8HzdD8Q4EQKA4BBAWhKU40uIwCIDAuBFAWBCWcTMU70AABIpDoDhh4e+xFMcxHAYBEJgYAmMXFv4ey8QISXNBAATKR6A4YeGpsPJJRwtAAAROG4GxCwvvsZw2/2gdCIDACSKAsOzx5r2AywcM4AAcmCIHeEFyT+IyZmDx7W70vzdHH9FHcGA/HCh2KwxC7IcQ4AqucAAO7MoBhIXVFCsLOAAH4MCgHEiEpZT3WHZVVMozK4MDcAAO7IcDxb7HAiH2QwhwBVc4AAd25UAiLKW8x7JrwynP4IEDcAAO7IcDyVYYwrIfoCEwuMIBODAVDiAs3LQb9KbdVAYO7UQk4EA7BxAWhAVhgQNwAA4MygGEBUINSihmce2zOLABm6lwAGFBWBAWOAAH4MCgHEiEhfdYmFVNZVZFO+E6HNgPB5LHjRGW/QANgcEVDsCBqXAgERYeN4b8UyE/7YTrcGA/HEi2whCW/QANgcEVDsCBqXAAYeGm3aA37aYycGgnIgEH2jmAsCAsCAscgANwYFAOICwQalBCMYtrn8WBDdhMhQMIC8KCsMABOAAHBuUAwgKhBiXUVGZktJPVBxxo50AiLDc3N+7i4oJgg+DAATgAB+DAVhw4Pz93l5eX7urqyl1fX7sZjxu3qzAzFLCBA3AADqznQLJiQVjWgwaxwAgOwAE40M4BhIWl7lZLXQZV+6ACG7CZOgcQFoQFYYEDcAAODMoBhAVCDUqoqc/UaD+rFThw5xAWhAVhgQNwAA4MyoFEWPjZfGZczLjgAByAA7twIPnZfIQFQu1CKMrCHzgABxJh4XFjSEFggANwAA7swoFkKwxhgVC7EIqy8AcOwAGEhZt2g960I6gQVOAAHEBYEBaEBQ7AATgwKAcQFgg1KKGYrTJbhQNwAGFBWBAWOAAH4MCgHEiEhceNB5pt3J65+WzmZtFnsazt+/SFW+YI3VJ2Npu7s9ucf0u3COppsZura1/XWtuwD99u3dl85hps4zYtF2E/LJaZQSQYKr6Vvbjv/Pf5B90H52m/Vmln7jauW77H9c9Nvi4e5GwNeW3buvuWs/nseZ82tOW31+25tWmvJ+dp37XyxtrkPDNmcrGoupY8boywtIO10RLfElpJ6a/VwSuXHuTrG4ArUbGD4/Zs7mY2eKndQx5b2rcf3zqExQd1i2WVd352Gw6U5cItFguXXG9ph+dCV1qNtW/vzNZ/55aL2ap/etjYiHeb9PG+697FfltZe92e23bb623nTf50/OwN76bOgWLMiO0lwsLjxgN1uiV0QwAJagMLS7YeO/uW9lSDp5qBmyAnZecLt/Az8Ln7QCBGxtde5Y1daW/Wr9z1Ft8aG6sZphXPoE11G8J0aXeL4Ph2m1WDzyf9snSLAIOcv4YfbW1s+jvuBy1r/KptLERs6lVn0A6fnknzbdC+q7Fvy+v9sTjXbW1Wudp3No9eqzFoeLJwy9rnZrUdrMi0XGQrLhNwqh4TDW4duFs79rytrM1jz+P8cb/bdM7DSVgPPJKtMDRjJ9cAACAASURBVIRFB/+OxxyJ5ZoSOJeuHdaVpnmaYxWkulYoMkPWmbifQetWkK9Ht5CskGgwqYJvv/IRXi1tiFcsrbZ94DEBJ7Jny+lWUxCQBZ+oTOtMVPLV/SJ2AztdNrrSpH4JuNrfTX/lcFr1T1gmEiZbnz+3vnbkjQVW/bL27qqV1HqexLhKvSomdy7lV50W1GWEtQ2nIL/BzF635xZfe73t3OaPuRakmbq53ltgEJZ9kcUTejXT1NloE2gs4WMf1pWN88v3YNZoAnIyaEwgiHyQoGADS3UeBSxvLxcsogHYqw0dtpM2Gr+tDz5fFKi0rPiwLrDfVcFQ2+1xVOEVOxFGgTh1pUlZ6RNrS/2yx9hG/N3mte3uzCd9YfBqyxtc7+iLIF+MSVzO8MCWazsP2tdS1ubpY6ctj71ubTYrVlN/kM71gPc9sEFYeoC0Kag+f5bEJgBm02sCd6X18deXV3GRgR8LXJ0W1yPffSC2q5cNylvfYtte+NQnHagdtmtbsoJoRFlnxrHterYdrDSkfJzPf1d76kvVJ6s6JH01A09sdLXRpmn964Qt66Opv27byr9uUW/FK+dHUHdHXwT5+uIa5bM25Dznj8XP5m+7vmmetvxehJUPyk2OW8W9uq8QFkvaIc9bSNxstbSkt4tSC9FbZsVNPXbmGrcv8aEWlKUd+BJwwkDXEC4pb3zMpPltksBWh23vt9nqCezF5YxgB21suy7ljbhGQW6FXRQcA9tr0nxeU09Q1vgVtCu2KeVbMIjLdeGV5K37KbgeY9rRl0E5k0/aKHxUPG2+tvMAF2urBTuxo/bbBMHm6VOv9bnVH+sb500MaMELYWkBZh1wa9MtoZs6zGDJpteE7UprbCm5o+Dj00090d5568Cv7VbB3+z5b1i+wSXbhiqg2u0hCeLBNpQGjbi8/76aVSblbAC2GOVWSuaatDdZ6Ui6bmHFfljbXWkBnqEwi+/Z4CtlrE173qQZQbQi3ZU3vseiefVY+5pg2tkXdZvioGy/W/v2vM2f2g/lkMdJ+8GnVfxp+KKrua48tl573tSVGz86tjhqX2x6TISFx40HIpMnsW67rI5NEGtJ9wGtLa0teNaz1dV2ySoAV4SoBk+VbtJyA81fM3n8ANygvA7YnG1Jq9u2Cg4ttut7H02bkie/apGSbb4kLerDus7GVhOQxUYY9Fd4tQRwbV/Tllz5qH4vZCsONKKSsxHhpkLvfbftjPKJ3615vc85nBVDbUMuj/aZ5km/ewFotltNvlpA/NZi4m9LXRZfFY7GtpmEmHxh/VEeW68/N/1Q223GpLG5aSAlf8j55HFjhCUECMKABxyAA3BgMw4kwsLjxpsBCOHACw7AATgQciDZCkNYQoAgDHjAATgABzbjAMLCvmrvl54YXJsNLvACr6lyAGFBWBAWOAAH4MCgHEBYINSghJrqDI12szqBAysOICz7EhZ5tFHfA9hXHTm75tHWwz1GWT+2GrxPsCIZAw4s4EAPDvixGz/q36NcLg4c+VqxwpL+rZM1HXLoQD9EfRvbkHcD1uCwB8L59ycQFVZ+e+DW5ATJvmBaMJ6JsNzc3LiLi4vRD5KNVwMbB+kdZwqHrk9IKHU2L//t6H9vUh9HzCYXcHr3x6H6nXr2w8Fq9X+43Yb99OP5+bm7vLx0V1dX7vr62s1Kedw4Kyx1MD8zP1xYdZC+YVy9devf+vZBWN/CNW9Zz89cVd6+QZwL2hJQqzzBG8+6YlBh0aMGBvs954Pmk6PmrY9puywp7JvM9U+GBPbr9gS26r+t0fytDfldqhVWDbm9nZaVUDDDqnxo3qpvypVy3eIp5/v2m/rmfrzsG+dS7Fd8kHjSjCEbDwo6T1YsxQiL+ZmH6ucuztxtHUibgGiDXh1Qqz8dK0QzwqFpcfmoI+WnIwLbue0fqVOuW5v2Xote90Er44OtU/PGftl25fL7a9VgUn+b7arYlv9ei4bYVWG0ddg8tr74J+clzeeVdolAGTEq5XrUvr23h/qq3ZFS+LFvP4UPGkNibhT0vVxhscFaAZdOt9ft9/g8FiYRGptHbdqj6fDlIg6auvoxqwXxJbap3+WY88HWZ/O2tSuXX65pWU339WXaaPO1nauNzDE3u9IVXDzrKuG6+iiTFfVfr+l33QIZ4rraoL7Vb53tA2fpM8V67PaTsZsZd8rBsR6nKyw2UGvH2cCq14KjzMJlNm7+hK0P2JHIWEGJbep3PQb2o60RzaNHzRt/z12P88j3nHjafG3naj9zlMEaD1Q/4zKBuSG/XxGtAvZor8ft3Lff1FetWvaNc0n2c7shMU9G/H1awtJsf4XbRE2As4G1pdMkkC4Wi1Uwjcr4WVEsLE299azJi1qLD7Zeta1HTYu/Z6+H9r1fdosuV8bajc91i0zL6VEGayDSUm8tvkGZUq5H4t5sWYr/ZgIx2HXqq8ZfKfzYt59VjEgmazreCjmWKyzJNtLcnX2yYyvM/AS37zQJnNaGFYOuzvPlzL0RY9dvZ4joRLZ8UK/rmmu61JHzwdatwV2PmhZ/b7se2K99jsva713nQVC1wdAGXDmP7kM1IlPCddsuOd93e6iv+mud+8a5FPvCh+rhGb032kx6dYwXckyEhZ/Njwc739eRu1kNFUL6de0hHc4fjQPJDkCZfZH8bD7CUmZHHm0geDGpH1EufF/4uBjCu8nj7+8B2e3WcjmRCEspjxtPnoSsDkb/Ei8cLTcw0ne79V2yFYaw7AYohAQ/OAAHps4BhIWZPzN/OAAH4MCgHEBYINSghJr6TI32s1qBA3cOYUFYEBY4AAfgwKAcQFgg1KCEYrbGjB0OwIFEWHjcGFIQGOAAHIADu3AgedwYYYFQuxCKsvAHDsCBRFhKedz43r17jg8YwAE4MFUOjFnAk62wkoTF8Q8EQAAEJoiAiCnCsocb5AIs/0AABEBgigggLHsQFVFqhGWKw4k2gwAICAIIC8LCSAABEACBQRFAWBCWQQmFMRAAARAoTlhKedyYrTAGFwiAwFQRGLuwJI8bIyxTpSrtBgEQKAWB4oSFx41LoRZ+ggAITBWBsQsL77FMlZm0GwRAoFgEEBZu3hdLXhwHARAYJwIIC8IyTmbiFQiAQLEIICwIS7HkxXEQAIFxIoCwICzjZCZegQAIFIsAwoKwFEteHAcBEBgnAsUJy83Njbu4uBj1L2fyW2HjJDtegQAIHAaBsQvL+fm5u7y8dFdXV+76+trNeI/lMMSgFhAAARDYFoGxCwvvsWzbs5QDARAAgSMhgLBwj+VI1KNaEACBU0UAYUFYTpXbtAsEQOBICCAsCMuRqEe1IAACp4oAwoKwnCq3aRcIgMCREChOWPjZ/CMxhWpBAARAoCcCYxcW/h5Lz44kGwiAAAiMBYHihIX3WMZCHfwAARAAgTwCYxcW3mPJ9xtXQQAEQGC0CCAs3LwfLTlxDARAoEwEEBaEpUzm4jUIgMBoEUBYEJbRkhPHQAAEykQAYUFYymQuXoMACIwWgeKEpaT3WARcPmAAB+DAFDkgfz5krJ9i32MZK6D4NV6y0zf0DRw4DAcSYSnlPRYIchiCgDM4wwE4sCkHin2PZdOGkp/BAQfgABw4DAcQlhHvUzIIDjMIwBmc4cCwHEBYEJbR3gBksA872METPA/FAYQFYUFY4AAcgAODcgBhgVCDEupQMyLqYfYNB8bLgURYSnmPBVKNl1T0DX0DB6bNgeRxY4Rl2oQgIND/cAAO7MqBRFh4jwVS7UoqysMhODBtDiRbYQjLtAlBQKD/4QAc2JUDCAs377l5DwfgABwYlAMIC4QalFC7znQoz2wZDpTPAYQFYUFY4AAcgAODcgBhgVCDEorZZvmzTfqQPtyVAwjLvoTl9szNZzM3iz6LZU1an75wy1z9LWVns7k7u82RfukWQT0tdnN17enacjFzTVuljuXCY5FcWyxTYbPY2PNNfa3rbPogV9edYKe43rqzedpnvvz8g+6DrWln7jbnW1z/3OTbpV25uja5tm3dfcvZfPa8j49t+e11e25t2uvJedqvARetHc7TMbkhJomw3NzcuIuLi50N76p4xZe3xNZO8dfqIJZLD/L1FYdKVOwguT2bu5kNYmr3gEfxYX522/BIvi8Wi+SazZPt8y6cutrjg7rFsBKNpL7lIvHL+9FVb1da7ZPvg5mt/86J2Db90sNGFo+uNvdN23fdu9hvK2uv23PbZnu97bzJn46bveHd1JmbFJ7mtfPzc3d5eemurq7c9fW1m/G48UAdbYndEEuC28DCkq3HzsKlPdUgqmbuJthJ2fnCLfxMfO4+EIiR8bVXeWNX2utt6wy9trWU+qJrsgIL/Fi4ZdOmnN+5a3GfVSJixbYRi6Z+KaNtXLpFcL32KRKGJvA0/sX16vcYf71u/KptLERs6tVm4K9Pz6TJ9abPaszb8nreWbyEe/a79lnuWle/1O0JVmQttup2rlbmti5dKSo+HbhbO/a8GVtRWZvHnsf543636Zw3E8OG+z0xSVYsCIsheU8Qs6DnyCzXlMi5dK2vK03zNMcqWDUz4eb6qh0yU9aZup9J65aQr0e3rDTI1uWMr/3Kr+qr8JAAYoKNb7fUYa5peuBHR4C4q2b92bbYdvfFL2pjGtjV16ht6+xLwNV+tn7Z87rN2ha/VdiUEexM0LX11eVWvnbk9cKp/VtvR0od1l4XpnFdQTnbv3cu5VWNXVDGCKtgkcMpyG9wt9fteYJppt62/ME2qKnL2uR8K3FBWPZFHE/m1YxTZ6VNwGkluwbWjrI5n4PZowlKyeAxASHyQYKDBrrVeRS4vL3M4E18MkIl9dRi1tx7Mdf8ikVFRuxYv+x5V1ts/VKmCdLtAWPVxjrIqeDGPljb69IkXfrC2orL52wE7Yx9bu+zdFLTI29Q1wb921nO+GzztZ3nMMnhovn62GnLY6+rPX80HA2um7ZwHWFJB9kRCZIls5mxZdNrf7vS+hDdl1dxkcARi1SdFtcj331AtgNug/KRbxK4ZWatR98/y+o+SxDUc36o0ARpHb7YuoMyKlSKgeJS9UUj+B4js0KJbXTZt2lyLmXXCVtsP/5eryRW/nWLub9/0/SzyZvzI6irA9Mgn+IYYxTjGuWzNuQ854/Fz+Zvu75pnrb8yUTliPHCtvUEzlmx7KsTW8gczNg1eMY+tJTNCmfL7Lipx64w1tZTC0pwL0QCjwkm1sY6P2vflgsN5nXQWSxdcs3WYe3a8662WL/iLaAmTdpiRDUKcivMouDYlO8r/KaeoGzHxCJpp9nCsmn23NuuhKHZGrPp9tz6EVzfoH+DclEQlr5WPG2+tnPrT3Degp3YUfttgmDz9KnX+hz4ELWNtI1XLQjLvkhjid3UYQZNNr1v4LLEjwKLr8vUE+2hB/vaGR9kJSGzZN0SEzGTgNt8t4MxUz4UP7kpPjcBQfyuxEtuQDc3dGM79rs97/KlwbjGRvxUEdE0cy1YRdl03cKK6g3a1ZVW26pwNG3UFYgGx9iG/W7PxZ7/bgSxTYTjvLHAql091r727l9bzvJA7NjvNp89b/On9kMxFn/CrcRKkBsOKpbaV758lMfWa8+bunLjxo4rzrU/tjkmwsLP5g9EKE9m3SZYHcOZ5ep6s+Uhg6WlrORpyjcDRPytBkljIw6oQXq0erBBSmz6uk0eX4+1b9KyA9biVw32MEjUj93aoBDbCb7XNho/W3wJ8Kh98HYsxhroxaaeW3/FdksAt/YD/2z56NwLmalfRaXB2fgQ2VSB931aPwXm+z7KJ4O+NW9r3/XENK4r+u4FIN5+83Ua+1GZkKuGSxZfFY7GtpnYmHxh/VEeW68/N/1Q282PpagPTX3bBNiplkl+Nh9hgVhTHQy0G+7DgWE4kAgLjxsPAywEBUc4AAemyoFkKwxhYTBMdTDQbrgPB4bhAMLCHurGT3ww+IYZfOAIjqfKAYQFYUFY4AAcgAODcgBhgVCDEupUZ2C0i9UFHOjPAYRlX8Iijzjax0v3VU9s1zzierjHKevHS+0jxLFffEfA4UA3B/zYbX8EuyRhS4SllMeN0791sqZDDh3oh6hvYxvmPYwDDmL/HgWi0h00DtgfJQUgfI1WAfZF04I5kzxuXIywbLoa2DhIRx2+aScfuj7xT+psXiTc0f/e7T2OmBGQDtW/1HNYrlWr/8PtNuynfxNhKeVx4+w2Ux3Mz5K/caFvAldv3/qfhvBBWN/GNW9bz89cVd68FZ0N2hJQqzzBm8/2zW0Rv1hg7PecDzaga976mLbLkkL80fbUf1AqsF+3J7BV/+2T5u97yJv9K6wacns7LSvCYIZV+dD89EZTrpTrFk8537ff1Df342XfOJdiv+KDxJNmDNl4UNB5shVWjLDYICrnGsTtz57YoFcH1OpPyArRjHBomg+EbT+bUv0USRNsxXZu+0evW5t2daXXfdDK+GDJo3ljv2y7cvn9tWowqb/NdlVsy3+vRUPsqjDaOmweW1/9cyLBIPB5pV0iUEaMSrketW+1CtxTe6iv2kIshR/79lP4oDEk5kZB38sVFhusFXDpdHvdfo/PY2ESobF51KY9mg5Pf503s1pQscv5JHXlfLD1qT961LT4e+56nEe+59po87Wdq/3MMTe70hVcIDjmN63GfF19l9/oUj/1mn7XrZEhrqsN6lv95tk+cJY+U6zHbt9PZmzMyIw75eBYj9MVllzH2cCa7UyZtcps3PwpWx+wo5m5FZTYpn7XY7aeeotE8+hR88bfc9fjPPL9QMLiZ1wmMDfk9yuiVcAe7XXFU4/79lvr0SP1hQ9C7BuPMdrP7YYoPwo4TktYmu2vcJuoCXBxMM50oMx6Fovqj1X5clEZPyuKhaWpt541eVFr8cHWqbb1qGnx9+z10L73S8gal7Xfu851i0zr0qMMykCkpd5afIMypVzP3ffYZ3uorxp/pfBj335WMSJeVTUxSsfdyI/lCkuyjTR3Z5/s2AozP8XtO02CqLVhxaCr03w5CTSrgGB/vnsuohPZ0iW43+7QdCmf88HYbUTABnwtFwTzaIWjNgL7tc9dtmxafB6IxKrt1Q1uXbHJoDP3qPxMUINyCddtu+R83+2hvlkzCSmBH4fgQ/XwjN4bLU1Q1N9EWEp53FgbwDEOTof/3qyGVNA4hls54AEefTmQ7AAcfjwPEVOTx40RljI7cggybG+jmmVln5LrO6DIR/CdOgf8Cl9X/2XHoURYSnncePsgWHaH0W76Dw7AgbFzINkKQ1gg7dhJi39wFA6MmwMIy9SX37SfLSg4AAcG5gDCMjCgzKTGPZOif+gfOLB/DiAsCAuzNTgAB+DAoBxAWCDUoIRiNrj/2SAYg/HYOYCwICwICxyAA3BgUA4kwnJzc+MuLi4GrWTs6op/zADhAByAA8Nx4Pz83F1eXrqrqyt3fX3tZqU8bnzv3j3HBwzgAByYKgfGLITJiqUkYXH8AwEQAIEJIiBiirDsYf9SgOUfCIAACEwRAYRlD6IiSo2wTHE40WYQAAFBAGFBWBgJIAACIDAoAggLwjIooTAGAiAAAsUJSyk/m89WGIMLBEBgqgiMXViSn81HWKZKVdoNAiBQCgLFCQuPG5dCLfwEARCYKgJjFxbeY5kqM2k3CIBAsQggLNy8L5a8OA4CIDBOBBAWhGWczMQrEACBYhFAWBCWYsmL4yAAAuNEAGFBWMbJTLwCARAoFoHihIXHjYvlGo6DAAhMBIGxCwvvsUyEiDQTBEDgdBAoTlh4j+V0yEdLQAAEThOBsQsL77GcJu9oFQiAwAkjgLBw8/6E6U3TQAAEjoEAwoKwHIN31AkCIHDCCCAsCMsJ05umgQAIHAMBhAVhOQbvqBMEQOCEEShOWHiP5YTZSNNAAAROAoGxCwvvsZwEzWgECIDAlBAoTlh4j2VK9KStIAACJSIwdmHhPZYSWYXPIAACk0YAYeHm/aQHAI0HARAYHgGEBWEZnlVYBAEQmDQCCAvCMukBQONBAASGRwBhQViGZxUWQQAEJo0AwrJHYRFw+YABHIADU+TA3Z5i6xB2k6fCbm5u3MXFhRvCODbuwHHE5Ief8BMO7IcD5+fn7vLy0l1dXbnr62s3K+U9FgixH0KAK7jCATiwKweSFQvCAql2JRXl4RAcmDYHEBa2atiugwNwAA4MygGEBUINSihmqtOeqdL/9L9wAGFBWBAWOAAH4MCgHEBYINSghGLGyowVDsCBRFhK+XsskBfywgE4AAfGyYFi/x4LhBonoegX+gUOwIFEWHjcGFIQGOAAHIADu3Ag2QpDWCDULoSiLPyBA3AAYeHmPTfv4QAcgAODcgBhgVCDEorZKrNVOAAHEBaEBWGBA3AADgzKAYQFQg1KKGarzFbhABxIhIX3WCAFgQEOwAE4sAsHkseNERYItQuhKAt/4AAcSISFx40hBYEBDsABOLALB5KtMIQFQu1CKMrCHzgABxAWbt5z8x4OwAE4MCgHEBYINSihmK0yW4UDcABhQVgQFjgAB+DAoBxAWCDUoIRitspsFQ7AgURYeNwYUhAY4AAcgAO7cCB53BhhgVC7EIqy8AcOwIFEWIp53Pj2zM1nMzdbLIOtnOVi5mazhVuWusXl2zVG/2/d2XzmFsto0Gzjr/ad9J/5NLa7bLaUnc3m7uw28k05sFwE9cScqQLh0i0aG1VbrW/N+fyD7oPz0O9V2pm71Tqbo9i1+cfYty24NW0gHbHcjAPJVlhZwjJ384UdzEu3mM/dHGEJxHaYQTG0sEQB1gtGLQ5rhSUq2xUAvajY/FU75me3IUbLhVssFi65vpMvlag0gnl3527P5m42t5zdbMAO05fUCY775UDhwiLBwMxUb8+q4BAIi50x2gBz5+6CmewGadGs2QaOuztT33zhhW41kzZpgY/aybn03DXNb45dbbE+2XqlHfMzd+ZXedWsurst8Yol51vumvFTRCAbrCXgDy0sHWIYBHetWyYmUdDP+lq3pyuttZ2Cj+FsZ98If6Rf5u4DgV/qr/jRgrfvWy0fcbtLiEkLJxzgsRUexQvLUmaa9fbM7dnCnS1li2w1kGRrTGehfrbYbJ3JgFzl2yzNBIYouNj6KuFa5bVpYX0m8K6zFwQYLdfVljvXWq+va4WP99fYt+VUhBXrZsa3jb9RGW9LrmnduXQd4F1pmkePffOauqXNQRu7bHSleR8qYetaoViMA0542+qLFZJamGus+pVXnnBseKsc4biVcKzDsXxhkQHoxUIG38Itg8Gemx2qmMRpdtB1pdl8cm6Duj2XNBsQYptx3tpu4r/6q3WthGrVubHt2pYfNHGaqTeoK15JmHwmSAZBV64HNuIycd22jfa+Q33eW1g6ytpAIb6pTXs9OpeArpMPL6DN5CNun8V1TZqtI1hN2v6L8TH4BbhWW2jq48rf/uVXXInaYP3kfC9BdorYly8sErz9fZalW0hACAakDLw4CJmB7fNqurkuA6wr7a5aBTQ3bXXlI2WCQBYLi9alx6jOpt5aTIK2SECw9qIA0epvBwaxffvdntcBJ5nNb+tvxnbVtnqGnk2v29uVVvvZDOQ4r/8eYy+Y6jU9GjGPbdg6utJsPnvuy2i/b9g3nluWAxuUtz5wjoDsmQMnICwS5Ofu7Ky+8RoMdhl4Jkh0gSmzykAUTOAO0qrB3MzcO+uLg0APXzrtSd0alIx/cbsSf1vqDepSMdW8MXZVAG7arXUGNuIyLf4GZVbtaISrJd0LRlea+tQcW3z2q8waR7EX9Xvjh9jpqq8rTcpKP9jVT+3Xyn6M1wqLtN6aS7LV2/i7SXlju8GHa80kBEwGFdtEWG5ubtzFxcWgleyl8+yglgGsAdder1cWuoUQ3EMIgm8dBHTAdqVF9qsAsAr2EjSC+tSvLl8sqSP7iT310Zbp8rer3qiuOJgldc90z98EpMhGUibnb1Sm4ocRoWx6XWdXmsVEzy03MtdkWykRSymjgtBVX1ear0vaFGNm2rlJ3+gTZTPDrw3L72UcKqYcxx8zD9hH5+fn7vLy0l1dXbnr62s3K+tx43p2bQe4PTeDu9q2WgmADDIJgsl2Vg1+V5q/yapbbP7JLxs8qmDi7S7OVk86rfFlNeirWfbqXRxjr2P11eVv+OSQwSDGKv7ut95qjJJ2qrhs4a+vx2JfnTcBviXdB/u2tCSAq3+66rD16apMfNdzkz9e0bThnuBlbei57T/xweDfxYmcbX9th/I1t1dcUx85gsmwHEhWLMUISwmDJBccSvAbH5l9wgE4sAMHEJYdwEtnOTp719lxPLscdlaQ1o99MIEDcOD4HEBYBhWW43cog4o+gANw4NgcQFgQFpb8cAAOwIFBOYCwQKhBCXXsmRL1M1uHA8fnQCIspfxs/r179xwfMIADcGCqHBizgCY/m1+SsDj+gQAIgMAEERAxLUpYSnncWIDlHwiAAAhMEYGxC0uyFYawTJGmtBkEQKAkBBCWPd0cZ8VS0jDAVxAAgSERQFgQliH5hC0QAAEQ8A8ujfkeC1thkBQEQAAECkOAFQsrlsIoi7sgAAJjR6A4YeFx47FTCv9AAASmjsDYhYX3WKbOUNoPAiBQHALFCQuPGxfHMRwGARCYGAJjFxZu3k+MkDQXBECgfAQQFm7el89iWgACIDAqBBAWhGVUhMQZEACB8hFAWBCW8llMC0AABEaFAMKCsIyKkDgDAiBQPgLFCQvvsZRPOloAAiBw2giMXVh4j+W0+UfrQAAEThCB4oSF91hOkIU0CQRA4KQQGLuw8B7LSdGNxoAACEwBAYSFm/dT4DltBAEQOCACCAvCckC6URUIgMAUEEBYEJYp8Jw2ggAIHBABhAVhOSDdqAoEQGAKCCAsCMsUeE4bQQAEDohAccJyc3PjLi4u3Jj/nrL4JsDyDwRAAASmiMDYheX8/NxdXl66q6srd3197Wa8xzJFmtJmU/1CvwAADIpJREFUEACBkhAYu7DwHktJbMJXEAABEHDO79iMeVcJYYGmIAACIFAYAqxYuHlfGGVxFwRAYOwIICwIy9g5in8gAAKFIYCwICyFURZ3QQAExo5AccLC32MZO6XwDwRAYOoIjF1Y+HssU2co7QcBECgOgeKEhfdYiuMYDoMACEwMgbELC48bT4yQNBcEQKB8BBAWbt6Xz2JaAAIgMCoEEBaEZVSExBkQAIHyEUBYEJbyWUwLQAAERoUAwoKwjIqQOAMCIFA+AsUJC++xlE86WgACIHDaCIxdWHiP5bT5R+tAAAROEIHihIX3WE6QhTQJBEDgpBAYu7DwHstJ0Y3GgAAITAEBhIWb91PgOW0EARA4IAIIC8JyQLpRFQiAwBQQQFgQlinwnDaCAAgcEAGEBWE5IN2oCgRAYAoIFCcsvMcyBVrSRhAAgZIRGLuw8B5LyezCdxAAgUkiUJywlPQei4DLBwzgAByYIgfu9nSbYQi7xb7HMkTjsXHnwAAM4AAcGJoDCMuIVX/ozsYeAQQOwIFDcABhQVhYtcABOAAHBuUAwgKhBiXUIWZD1MGsGw6MmwMIC8KCsMABOAAHBuUAwgKhBiUUM8lxzyTpH/rnEBxIhOXm5sZdXFwQbBAcOAAH4AAc2IoD5+fn7vLy0l1dXbnr62s3K+U9lkOoLnUwu4MDcAAObM6BZMWCsGwOIsQDMzgAB+DAigMIC0vdrZa6DKLVIAILsIADIQcQFoQFYYEDcAAODMoBhAVCDUooZm7hzA08wGOKHEBYEBaEBQ7AATgwKAcSYSnl77FMcRZAm5n9wgE4UAIHiv17LCWAi48EATgAB6bIgURYeNyYgTDFgUCb4T0cGI4DyVYYwjIcuBAVLOEAHJgiBxAWbtoNetNuioOINiMecCDkAMKCsCAscAAOwIFBOYCwQKhBCcXMLZy5gQd4TJEDCAvCgrDAATgABwblQCIsvMfCDGuKMyzaDO/hwHAcSB43RliGAxeigiUcgANT5EAiLDxuzECY4kCgzfAeDgzHgWQrDGEZDlyICpZwAA5MkQMICzftBr1pN8VBRJsRDzgQcgBhQVgQFjgAB+DAoBxAWCDUoIRi5hbO3MADPKbIAYQFYUFY4AAcgAODciARFh43ZoY1xRkWbYb3cGA4DiSPGyMsw4ELUcESDsCBKXIgERYeN2YgTHEg0GZ4DweG40CyFYawDAcuRAVLOAAHpsgBhIWbdoPetJviIKLNiAccCDmAsCAsCAscgANwYFAOICwQalBCMXMLZ27gAR5T5ADCgrAgLHAADsCBQTmAsECoQQk1xdkZbWZVAgdCDiTCcnNz4y4uLgg2CA4cgANwAA5sxYHz83N3eXnprq6u3PX1tZvxuHGovMxEwAMOwAE4sBkHkhULwrIZgBAOvOAAHIADIQcQFpa6Wy11GUjhQAIP8IADKw4gLAgLwgIH4AAcGJQDCAuEGpRQzNpWszawAIupcgBhQVg2FpZPfOITjk83BusCCvh14yf4gOF6jNbxaB2G+0pPhIWfzWeWtY5sQmZ5yINPHoO+QRH88vgJLmDYjk1f3vTBcN1Y3zY9+dl8hAVhWUcmhKV70PcZ0GAIhn0FYtt8fXi4bqxvm54IizRCljHbGqTc6QsTQZGguG2w61uuT1CEh7vzcF/xOtkKQ1hOXxh2JRMDevcBDYZg2Fdkt83XR5x3jQVt5REWbt5vvDolKBIUtw12fcv1CYrwcHcetgnDrtcRFoQFYRn4QYTJBMVnn3CPPfaEe3Zg/ER8isZwj7j0Fea+GO4qIG3lERaEpRhhefaJx9xsNms+jz3xbPVkWjyQn3rc53n8qe4Z3SaDdJO8RwuKdbsbjB5/ar9P7sW4DygwR8MwbkOujblrtty6dJt3j+d9MGwThl2vIywISxHC4kUlmB0/5R6fzZwXFzuQ5Xz2mHvi2eOISt+Zogz6TcRqXd5KdB93T5lA9dTj4fd1NjZOt7ibeje2kynbJygOjWHW71wbc9dsG9al27x7PO+D4a4C0lY+ERYeN+bmfRtZ9PpBBnQw4EREMmKhA9gec/kCW/sXnD4DelgMn3VPPJbBp253uNKr89WYPfH4agW4WuFVoq0rH39d8jerxdDGSW+FKbcsh+y1Llx8vsfd44/lMB4HD3VMD31MHjdGWBCWdSQbNij2GGB2INsB/ooEwMfdUz79saOvVHTGe3Bh8cGt5+pEtstki8yXmblGTOS6XxGKSJnrHu8aZ8Ve+0OPen3A48ExbPO9xklFtjl6rNbg4ssawfdblT37qc2fDa73wXDdWN82PREWGRyyjNnWIOVOX5hGKSyyUnlCg2MPsdpggKpg9D32GdCDYrguwMfBUYJiXEa/69HiE5f3KxcV9BO/ed+Gh2LYrOJ0VWJwScqKEBmhsRjv4bwPD/cVr5OtMITl9IVhVzINGhR7DaiWAakDV4+vvOL8ts++b1qv8bnPgB4WwxZ8xE/BxgYzxUqP2hb9rke9rjb8DD0S7FxeW26H88NjGLVNfc+1Ua/pUfPqUa/rUa/7FTbCwqqFG/tZDgwbFFsGdDMYq/TeN+9fqbZymifGIjt9Vx275DtGUGy9eR8FtwbH6LoXIC8ebVth8fZYLVo5wRkA82NgmO3zGCdpW3NNBL0DlyZfzfFmu7Ef57P+bIBtHwx3nWS2lWfFgnhkxaONMHL9GMIig6wKnrrlYAZ0PID9zLB+YmyDgbjrQNbyfQb0PjCM8fH3Ul55xT1lbtA/9vjj1bsnMWb2u5ybLZ705v2suh9jywyM87Ew1D5sjrk22msRVv4+labHaXI/cGCcGj8zdvtg2DXOd0lDWBCWYoSlaxCNKa3PgN6HsIwJg119OQkMVWAyQX9XfPqU74PhLuLRVRZhQVgQloEHfp8BjbB0bwedBIYIi3vhhRfcSy+95GY8bszN+66ZiKQRFCcQFAcW2z4zbJvnJISlAAzXjfVt05PHjREWhGUdmRAWhMWKwD7OEZZujvXBvA+G68b6tumJsIjDsj+2rUHKnb4wISzdg77PgAZDMOwjDrvk6cPDfcVr7rFwj2XjSYQQlk83BusGLPh149cnKILh7hiu4+m26QgLwrKxsGxLNsqd/mqWPqaPhQMIC8KCsMABOAAHBuUAwgKhBiUUM1ZmrHAADiAsCAvCAgfgABwYlAMIC4QalFDMVpmtwgE4kAjLzc2Nu7i4INggOHAADsABOLAVB87Pz93l5aW7urpy19fXbsZ7LMw2mHHCATgAB3bhQLJiQVgg1C6Eoiz8gQNwAGFhqbvVUpfgQfCAA3CgjQMIC8KCsMABOAAHBuUAwgKhBiVU2wyG68xu4cB0OICwICwICxyAA3BgUA4kwsLP5k9nVsEMkr6GA3BgHxxIfjYfYYFo+yAaNuEVHJgOBxJh4XHj6XQ+A52+hgNwYB8c0K2wF198sfrTxK+++ip/6Iv91kH3W/dBXGwSEOHAeDkgwnJ7e+sQFsQEMYEDcAAODMIBFZavfe1r7uWXX3az1157jRUL5BqEXMwoxzujpG/om31yQITli1/8omuE5bvf/S7CgrAgLHAADsCBrTkgwvKlL33Jff3rX3dy3372ve99D2GBUFsTap+zIGwzy4YDZXBAhOXLX/6y+8Y3vlEJi9y8l0fF6MAyOpB+op/gABwYGwdEQ3Qr7OHDh9U9FoQFoo6NqPgDJ+FAORxQYZGtsJdeesnNfvCDH7AVxlYYK1Y4AAfgwNYckK2wr3zlK+7b3/62k/v2sx/+8IcIC4TamlDMKsuZVdJX9NW+OCDC8sILLzj5JRe5bz978803vbBIwtNPP539SNou6WL3ySefzNqWtF3trytP/eAP/xh/+4pvxJ9KH+TGvbzD8v3vf78SFlm6yA2Xb33rW/7Nyeeff97fiPnCF77gnnvuOfcnf/In7vOf/7z70z/90+xH0rrSpdwzzzyTLStp68rvmk794A//GH/bxi/iz+e9BogWyN+zF124ubnxb9rLI8by+epXv+r1Qx41ltsrs0ePHrnXX3/dydNhojayRyY3YGRZI3tmKjLyur48TqaG7FEqkY+9Fp9/+tOfbk1fV37XdPGF+sE/5qR+35Vf68rDP8ZfqfFHYr7EfnniS7RAPqILIiSiEfITLvLRx4xFS2QXbPbOO++4N954wy9fZG9MBEbu6ovAyArmm9/8pn+bUguLgfhjjcdp+v1zn/tcUk7T1pXfNV3qoX7wV77Fx135ta48/GP8lR5/5I160QLRBPmIPsj9FNnpknPRDBEV0ZK3337b/X+p3UUoDOJVswAAAABJRU5ErkJggg==;" vertex="1" parent="1">
          <mxGeometry x="620" y="350" width="406" height="547" as="geometry" />
        </mxCell>
        <mxCell id="AZcHS8FLPlwrAeguX1iB-4" value="Screen for Manually Configuring a BLE Message" style="text;html=1;align=center;verticalAlign=middle;whiteSpace=wrap;rounded=0;fontSize=18;fontStyle=1" vertex="1" parent="1">
          <mxGeometry x="664" y="300" width="332" height="30" as="geometry" />
        </mxCell>
        <mxCell id="AZcHS8FLPlwrAeguX1iB-5" value="&lt;b&gt;Note:&lt;/b&gt; This app assumes that the BLE-capable server has a BLE GATT Characteristic which is dedicated to sending replies back (like an ACK signal or a reply string). That is the role of the BLE Server Write Characteristic UUID (because it will write a reply back to us)." style="text;html=1;align=center;verticalAlign=middle;whiteSpace=wrap;rounded=0;" vertex="1" parent="1">
          <mxGeometry x="630" y="920" width="380" height="60" as="geometry" />
        </mxCell>
        <mxCell id="AZcHS8FLPlwrAeguX1iB-6" value="" style="shape=image;verticalLabelPosition=bottom;labelBackgroundColor=default;verticalAlign=top;aspect=fixed;imageAspect=0;image=data:image/png,iVBORw0KGgoAAAANSUhEUgAAAY0AAALGCAYAAAC50M3jAAAgAElEQVR4Aey9W680QVYlli+W/Svg0f8gH/of2LJ8w7KNbMspP/Q5toXhoeUHayRbWHYxgIcet0czjI0NjDEzFAY3o9PQw4E+HC4HBrqge7g3t+YOfSsuBsYjFNaOjB25YkdEVlaeumRlrU/6lJlx2bFjxYq9IiKzvq/50pe+5D7/+c+7L3zhC+5zn/uc++M//mP3h3/4h+73f//33e/93u+53/qt33K/+Zu/6X77t3/bffazn/XPmibpv/Zrv+b/yn3t70//9E9X8w7Vf2+++MT2iX+Nm+/l16H65B/n3y3EH4np8ldivMT63/3d3/Xx/3d+53f8VTTii1/8otvv966RBxGJP/qjP4qFpKKQ/Td+4zfcr/7qr7pf+ZVfcZ/5zGfivTz/8i//sv/7C7/wC07+6nPp+uM//uPV/EP135sv/rB94l/ipaS9l1+H6pN/nH9Liz+/9Eu/5PSv8ldiuvyVeC+xXhZDEv/lKlrwB3/wB35TIZuLRsXia77ma1zp71d/9Vc7+VvKk7RD+VLm8fFxdv1D9g/ls33iT/5x/s2NX4fiy6H8tcQf2X2ocDRyDCU7C+kc/xABIkAEiAARQAREGH/913/dyVGVnEo1n/70p93P/MzP+N0AFuQ9ESACRIAIEIGHhwf3Ez/xE+6Tn/yk+9SnPuUaUQ85t+JOg+QgAkSACBABi4DsNOQdiLzjEL1o5GhKXnxQNCxUfCYCRIAIEAERjZ//+Z/3mwt5t9HIZ1byxpyiQXIQASJABIiARUBEQ15jiE6IXjTyOZV8akXRsFDxmQgQASJABEQ0fu7nfs7/bEKOqBp5Ky7nVRQNkoMIEAEiQAQsAiIaP/uzP+t+8Rd/0R9RNfISXB6miMbH/8kPum/9tm8/+u/3/8DH3V//9V9bX/hMBIgAESACC0dAREO+nJIfAsr770Z+sSqfUUnGoT/f/b3/2P3Mz/386N9PfuoXnPz9vo//iPvoD/R//6/v+h7/z5Qcss98IkAEiAARWBYCX/VVX+V+6qd+yh9RyQajkaMpOa+aIho/9IlX95d/9c+P/vuDP/wj/t+yWhYU9IYIEIF7RkB+nzbl79IwaprG+13zS/okZU71R0TjJ3/yJ/0Rlew2Gnkj/s/+2T+bdDz18vpj7pd/9Xfc133LD7u/+X/8kPv6b3t23/B//qD7xu/8uPvFX/x198UvfN79tvyDV5/9rPvC5z/v/v5Hf9r/HReNj7kPNo3vpHRU/n7wY9pdyfuA+/Bn9FmvY3W0jF4/4z78AbD/gQ+73hzY/syH3QeK7aiN01w/9sHGNUPnglHbF+yv5H3QRTiMG5/58AeCvWAjs91X8OXO0j/rO46dcfbCj4L1ByxxPvbBAv7qmPQFsdf0+deiD/PNseaJEZDgeujPlDKHbJw6X3z6l/7lf6UoHGN5c/2QDYXsNORESjYZXjTkc6op7zRefuRH3a985vfdw9/6Pvef/8//j/sv/+73uP/qW77bfc23/yP3qU99xn3h83/sPvtZ+ZcSfyuKxrd8/0+6w6IBk9UHcA2UtYlcSzeweFsmkH3mw+7DPgpPtGFMlh8n2BJfPvBB98EPQF+9sbSuD/CJsCkWpmVvLxXAD2S2pY7YF9G07Rp71cfUv7SYyZOgPCJyad1TPJn20WRBICSIV3Q14DQXI2wY72XBcmqbaJ/370FgiiBMKfMeH+bWLYlDKW2ufawnoiE7DTmR8sdTstOYKhr/5PkTXjT+xrd93P0Xf++73X/8kW91X/l3vtl95Tf/L140vvi5VDS+/fVH3Xf+9A8fJxo+yOlEqwWFWjp2td9hXCZIHPZHxEBWvnodPLV18Vnuy6KR2unrfPCDfRuDbYmFsrr+4DtW0ehPYrkQaMfK2rqneB5pL1l8SFtStoxl78mIrfe4WhCv95hj3dMhMEUQppQ5nUfHWUKRwPvjrBwuLaLx9vaWHk9NFY2PB9H4iq//Fvevfd1H3L/xTd/k/u2/843uK/7+1yU7DT2e+r8//f3uo7/0fceJRjLJahO5lg4AZEED8vwt2sB755yvq0daGmhCmQ/LarrP648/JF3Llo6fpDFYcSY7BMkzbSfPkqfto/9gL+mLLa/lTBtJ/3D13Qut9u+DH5N6Y30zdmXs4i6phqPiMdiNwp74pf0ObRyNe9+XaBt45Y8JtV9DARBW069kTGr9stiF8crGG8eR99dEYIogTClz7T7IUVXtuOoUvr1LNHSn8a9/w992/+bf/lvu3/m7X+/+vf/tf3T/4bd9bS8an/vj5J3GL/zBzzv5e/h4aggg6fGGnbwKgaTX6oQyBycr2q7d9yv1RBw0yEgQigEd66uPcE180UCu+WndacdTUkeDqtgZbCRHMLHdIV+Pq7QbvUCGnR0EVvUObQ9peid2YRyi0dQnX/pjHwzvGPrgmr1vgD6k5UMbavsI3HE3luCi7idtWox0t2v7guWAH0XstC6OVWx8VTe60Dh0XVKnpwjClDLX7JP4dxOi8W995Bvdv/vNf9P9+//7/+C+8h/8d+4/+Yd/A3Yaw4vwf/5Xf+nk72HRgAkqgS6ev5sJGkenlh4LhN3C2GRFG3Dv24dAKEHRBywo45vBZ7wHH8ItBi9J8sKgQdAHLmwPfRa7+Ky2bTq0H4VCTqZ0F2Hyjc1YLvQ9DehQV5uPV8jzdcHXGo62nNqqlU8CuxSGNpN7NQRXsel3PkaovfAo5sq9MbuQV/MzpKfYiS+mbXCPt9dFYIogTClzrV6oYMgV70/tT7bTkBcbu91u0ie3utP4iv914/6Db/3v3X/0Hf+t+0+/679x/9n3/NdeND7/uT/yL8H746nPuT/7sz91+y996TjR8JOsEOwSJGASJ+n40K9oY2zGLH+PNuDeT34IfrEelBmrH8vrjdTTAIVXbcPa1XpylTwtN5aONkKQ+pgGTLUTgmOhf1E0QhNe1OJXbGgbfTB2gxjGoFlox9c+Nj0TBvQH761v8lzAImkfAzrawnvTz6R+3maKndYtjWFelymXRWCKIEwpc1mv+9ZKIlFKO4Vv8sntj/3Yj3lhklcZzVGi8UOfcJ/++V93X/+93+W+4aP/0P1P//g73Dc9/QP34e//NvdP/+mnnYiGfnL7+c99zv3Jn+z9j/qustMQtMKKMhGO4tdTGCTkvvC55tzgJT7gOb8fRRQ0bNsOseSVAg4GO99ROI8f+h0DeOJ737+ISSUIDrujQ/7pSt360bcz+KB96/uep9fK2/bxGe/VfnrVIB7bw/HwfVf/0RaOj+KJ5Ur8GNodsPNKGnY7Qz7vloHAFEGYUubSvRkTh7G8uX5monHM11M/8IOfcP/iX/x/7k/2X3R/Gv7+2Z/+ifuzP927P/2TL7q/+H//3P3VX/6F+/M//zMvGF/60hed/D0sGrgC18kpXZSJjHk6WWvpBVh8YAAbMYBjkMD7MNGxXR9hTZkkEPdHQf48N0bj3hdZxceABe75YFa0C4V8GyXR6I+4BrvWNwl6WM/kJ5gA3smxzVBf+lDqW3pU1Pvt+6UYJ+3oMZ+UE3+GMYmQFcsb3yfiHlH0NqGPYSfr+5N8Am3aQSzs12clP7E8Cr2kxw5Gr3izAAQkwE75uwBXExeEu+J37Y/kSZlT/cmOp44RjX/03d/rBUBEoPT3h15+1H3i9cfd8ydek/zv+M6t//9lT9UJ2uEK9jY4YHeEt+E1vSQCiMC7ROMv/uIvfPCX/1f8mL/yH5JLXf45LQLDbuW0dmntNAj4HRp3GacBk1auhsC7RONqXrNhIkAEiAARuAoCFI2rwM5GiQARIAK3iQBF4zbHjV4TASJABK6CQCYax3xyexWP2SgRIAJEgAhcDYHsk1uKxtXGgg0TASJABBaPQCYax3xyu/je0UEiQASIABE4KQLZ8RRF46T40hgRIAJEYFUIUDRWNZzsDBEgAkTgvAhQNM6LL60TASJABFaFwKho7Pd7x7/EgBwgB8gBckA5QNGgMHJhQA6QA+TAZA5QNEiWyWTRlQavXHWSA/fLgUw05D8Mf3l5cY+PjwwmFBRygBwgB8iBhAMPDw/u6enJPT8/u9fXV9fgJ7dcTdzvaoJjz7EnB8iBEgeynQZFg0QpEYVp5AU5QA4IByga3HomW08GBgYGcoAcGOMARYOiQdEgB8gBcmAyBygaJMtksoytPpjH1Sk5cB8coGhQNCga5AA5QA5M5kAmGvhPo3PlcB8rB44zx5kcIAemciD7p9EpGiTPVPKwHLlCDtwfBzLR4Ce390cCTnyOOTlADkzlQHY8RdEgeaaSh+XIFXLg/jhA0eALsMkvwBgg7i9AcMw55pYDFA2KBkWDHCAHyIHJHKBokCyTyWJXHHzmKpQcuD8OUDQoGhQNcoAcIAcmcyATDX5ye38rB64WOebkADkwlQPZJ7cUDZJnKnlYjlwhB+6PA5lo8JPb+yMBJz7HnBwgB6ZyIDueomiQPFPJw3LkCjlwfxygaPAF2OQXYAwQ9xcgOOYcc8sBigZFg6JBDpAD5MBkDlA0SJbJZLErDj5zFUoO3B8HKBoUDYoGOUAOkAOTOZCJxiI+ud1tXNt0bmsHspZuy2XPO7dpG9dtD6wKzm0/88v4M7t9Y+dQO9fIX0LfruDDtpvAu7ONx0Tez25/67qmdZsd8M9j3LimSf+2m10flKpj0Psq9WLZ2X6BP2ID28T7U9k/1g76gPfH2rlS+eyTW4pGQawODs6JJucNEmjy8cQS+nYFH1YtGtvOdV2XBvkixiAuxXwT2A/ONyMKh8rX2jxU71z56A/en6u9E9vNRGMRn9zWgEzShYid22zasKoxK5695IfVTtu5Dnca3s6wEup3IFA+7nJKaUpYyLP2ZZCkjXbjdnHARFiCj8X2zcRJ+mryvE1oP/obfNt2sNIbEcExP0Kfmmh7pL3Yx73b19oO/ek6i3sBz9imEWNvA8ZZ2hKMJb3duE3Vdmhjlg86lj2HjsXDi0Y3jEey2/X+VPCo4Xho7Md4j+OE5SLe2tcJWO6Vz1vXIc8DxukpAYxjMR+51brNR81JA9aR+9GxNrZ2+Ny5Ldoaw/JgO8pbuWIbwE/fVmF80Qe8F39Gxx3bvN59djx1W6LR9EEjgj0ESJmscZsbBmIQBzuwoZ4ZQLSxE3HqtvHcD/N0oJOAECdVGFyx7SeXEGxC+8aXZIu93ztsP/VN7A84pHlItEN+pMcq9faszUrbvj9mTCDYoH2PZ8gT/3UcfV+awa+Yd8B23A0dKIc+JLiFeji+1bJJYO7HyQubpHs7is8I/j4Iabm9S3wZHfuUF2Ve9uOF/iPevY/1cUqwDGMktiI2SR+B+8r5Ur7FxpbBZ39f8w/ESWOC+JjVH7B9Nw5+nkP/dSHjx/DYeT517uKcu/z9zYtGJGsSpFPw93Zgk4kNZZFcdtCTiQx1vC1D1mA/BrV9P/E1+MWJ58uBLWwf76Vc8ix1gJCZb5g3lVQVP6KPaBPKhr72fbJ+QduJ/6X+DBO5X7mF9qReDE6t22y6IN660rW2Cs/q40EfKn209Ua5AX0OAX7gaB/U8XngAmI6guNo22hD/Cjzssd3BG9YdKS8G/qG3Paiowsqj9WwutZ3G7HPGZbBJqbjveX+MXmlcU/qW7wA96TcEZzSNrMrtIW28T4b2wHvgSfXT7tx0cBJDhMyGYge5GQ1FCazEjoeOST1ZJAt+SGQ4cQqBAc/yGLPBzwIcIFM4s9o+4kvlrQjvol9X1ftpxhZ8h30w/t7oD2cILW2x/pj84oLgDDpYtnwHPsLQTCWMRPMpifPI31MyonNkbKIhedFiv8kHsY+lcZwpO3MT5gT6FdWDvhp8+yzt9OL0cBf8TPgXywP41DLx3S8j1hU7GNZuQ8LjITntkzV12NxCHOt1GbA++D8Qt9iX0vjDhgG20kfL5i2TNGoKW5CCpk8OCFhwH19CCLJiqufdMWVTzKAUg5t4KDZvH4SRZtxAINPWyTzxPYTX1QI1B/bPvpm7uN22aSHwBd9xvbw3vfliPZi38P5rE4oazN5tvbleRhbH2g3G9f61WzANO44LDaFZ/UpadOWsz4AXrZexi8oq22FayoSyBNpD441sjbAZjKGI35mfmF7YC8rB3hbP+yz9EvSdFxtP0vlEZNaPqbjvbanc/GYPG0X6+D9e3Gwvml7/joyvugD3if1zfyxeVd8Xqho9CskfIegW+3hiKcflFgmmVh9/VhW8nSC2kHyzyFAmTyZ8IkNmChZnto3g+nPo/EzQtNGvysotQ8TORxvxdVc2NkUfTM4JOfV6NtkP/pgk/UXsIgrnrG2i+2pCBbGC+2H8dP+KqZFwZM+2ra03zbdPFf7aMpJf6tlta1wlXKRo2gH76PPgQdjOB5oO/OrwsusnOJd9GsYJ+m74B+x1/6KzyLqtr7m67WWn6SPcD8pZ8faiKSW1WvEeejPe3DoeT+hzdhuYZ6jbwfGPc4zxfJK18WKhk5M3AJr0OjB64nVdbWvp/rB9PXN100adPI8raOkCsLkj6nCgMeB0rLyMt58nRXLKKnTutX2kUBRKPqtarvZmJ1P3TcfqOLRmvYFV5r9/VQ/BrwPb5urbZu+5cEF+2N89nUBQy8iUOag7dD3g+XQB2jP1vPjWymLYx8CvHyW2vMYbJrxtRyq4niw7Ym89KtsHc9jsBT7UD72V/AofPkU8ytjoPkGY+Rmwn1TbpxHirdicuTXU7q7ER9tu+q3v5a5gH1Ixhdt4X3gyxDzSjjn8/jSYpKJxtvbm3t5eXGPj4/xS6FLOzWtvUBS/GFRMpDXB3daP+gncSIHyIHb4cDDw4N7enpyz8/P7vX11TWL+OR2UvCnaHCi3c5E41hxrNbCgWyncTuiQRKuhYTsB7lMDtwOBygak3Y1tzOgnHwcK3KAHDgnBygaFI2Fv7tiADhnAKBt8utYDlA0KBoUDXKAHCAHJnOAokGyTCbLsSsSlucqlhxYHwcy0VjEP43OQM5ATg6QA+TAIjmQ/dPoFI31rQy42uOYkgPkwKk4kIkGP7kluU5FLtohl8iB9XEgO56iaKxvkDlxOabkADlwKg5QNHhuushz01MRnHYYLMmB03KAokHRoGiQA+QAOTCZAxQNkmUyWbhiO+2KjXgSz1vkAEWDokHRIAfIAXJgMgcy0eAnt1z93OLqhz6Tt+TAZTiQfXJL0bgM8CQ4cSYHyIFb5EAmGvzklkS+RSLTZ/KWHLgMB7LjKYrGZYAnwYkzOUAO3CIHKBp8ATb5BdgtEpw+MzCTA6flAEWDokHRIAfIAXJgMgcoGiTLZLJwxXbaFRvxJJ63yAGKBkWDokEOkAPkwGQOZKLBT265+rnF1Q99Jm/JgctwIPvklqJxGeBJcOJMDpADt8iBTDT4yS2JfItEps/kLTlwGQ5kx1MUjcsAT4ITZ3KAHLhFDlA0+AJs8guwWyQ4fWZgJgdOywGKBkWDokEOkAPkwGQOUDRIlslk4YrttCs24kk8b5EDyxSN3ca1TeOa7G/rNrtANF+mc9tS0K/WF5vH1Wk3u/lBdczHkt9T0kLfMr/O0dYUf0yZ3aZ13rc4BiW8t67zY1vKO2EgiT5YLp25XYPJaGAQH7vtfI4d0xbLEucTcGDBolGY2NtuCPpjQXIsrwZasU4f3LIAXbNxiXTvZ0H8iv6fMABP6pvgFcbN+9O6tm1ctzV+yDi2rWu17CTbxobUOdTnSv62a1zTbtxubrvvqVfwSfzJMHpPG6xLcTgjBzLReHt7cy8vL+7x8fF6wBcmVr9ak6AUdhvVMhOCSQnQmj0UqlK9S6cFPze6otf2a/5r/gWucZchbdX83O+dD5Ib2U0WFgbH+Hmoz7X8Wvoxbc8tW2rbi+iVRGxuP1jvevHxytg/PDy4p6cn9/z87F5fX12ziE9uSxNLgJLJpVv5WhkpN5ZXA7xaB4TK1+13H/3RGa6qMQDu3EZW2B8xgdG3MRyVpKvLgt2Sr9FPaQPajOlhRe7Fbmgr4rYPvvmgHfIFU/RNMa71t+SXt1s4PhS7yape+tm5rfUX29eFgbaT9EXbQLw0zexGbBtqL0tHW4CplE/8sjuCSr1gX4Rdj1j73SqWR58lHZ9NP9RvXu82UI8ecV6YF9lOYzmiAQEP3m3Eo6Js4sNEMxNdJ66/JgHR1jEBww9GCLL+iAXv905W1v0xR5ruA40EysTHPmBEoUjy0vqDXfBPiYH1qiJq2vJBV4NS39ZwPBMCmQZ2bz8tqz5P9kt8jX5Ke2oPhD/mSx9L/upYSJ6pn/iq5Q5gpfiFnU4mouEILe2j8SvxeWTMfLmmf7cj7Xr8g5+JDfU5tbWkAEFfdIx4VS4sWDQKwcBPuBBAipMvDOxYHgQPBcFfq3VgQmdlhoDmg00QJLkfXgaHfkjg0GBnfRixm/go9ZKyEJCTdEvwwc+97jTiewbon/cLnjObaMe0gYHR+Bnx0KMpaRtt4733AduRe7vCnzjO3m6++IgLD+NnjzW0PXfMfLsgdNg/vPd97fsiR3aJX5CXcYB53HFckQO3JRq4Iq1MvnEBMIEOga/agyDiy9ggBCLmRaEcyNMVrPFjzC76KPfWT3mOx0sgtJlNDWIgCt72yHNmQ/qudkwfbIBFP+XeYyNYFlbctm4mbL1w6I5Rdz4ZFlOwsgI00sfZY4Z9t2Nm84LPFA3DJzuWfF6MUN6gaECQ1gBkCVWZmKMrtlodXEHXysSJ37rNVgOkCfBZYIRJcsBu4nehbPZi2ZfB4A7ClwXkQ6IBQmRxxmfrV/Ic2q9hk5QVXNBfwEnaO2I8iqLi6wM2WdvQ3twxszbxGe8BP4oG4A64JNxn+iKE46ZEI1n5VSbfaXca/Qp3ODYwAdb64AMSHDMk+b2tdJWsweuAXZwsic0w0Xya7ALgKEzv9Qw/7hBMW6MiYsqW2lbfbJ55lqAoO4WIZZJvsMmEQXEqiQbkqS96TdoYgpL3JR4VjvXR+OXtaXsj9Wy7+JzYUJ+MLfWf10UESQqX8rS/ZqKxiH8a3U8sewwEQVEmU6WMD0qVvOx4AydlpU4M8rFsH0h6WxpAFFTJg5W5t2mfh36ltsfsqn3tN9gMfnlBjW33QUj72262/ddchZf5h99xTPTLio/t+6EVfoK/wTWIcY750M8Uy4CX9cGOYfwoYqSPiV/23Uqlnm03eS75LHZMn6OvMPZMo4gsgAPZP42+CNFYADBcXRwfrES44k6CYzg9wIkoxp3P8biTq8TskhzIRGMRn9wy4EwPOIvCSlbM+S7okoS+xbb8O6n4NRsD4C2O4T35nB1PUTQ4ad8zAbjbOJI/cnTFXcaNLpKOHOtFLfDm+07RWMlAvifQs+78CUTsiN29cYCiQdHgKo8cIAfIgckcWKRoOP4hAkSACBCBgwhcY5dD0Tg4LCxABIgAEVgmAosQjSV8crvM4aFXRIAIEIFlIXAN0cg+uaVoLIsU9IYIEAEiUENgEaKxhE9uawAxnQgQASJABAYEriEafKcx4M87IkAEiMBNIUDRCJ+93dSo0VkiQASIwJUQoGhQNK5EPTZLBIjALSJA0aBo3CJv6TMRIAJXQoCiQdG4EvXYLBEgAreIwCJEg5/c3iJ16DMRIAL3iMA1RIO/07hHprHPRIAIrAKBRYgGf6exCi6xE0SACNwBAtcQDf5O4w6IxS4SASKwTgQoGnwRvk5ms1dEgAicBQGKBkXjLMSiUSJABNaJAEWDorFOZrNXRIAInAUBigZF4yzEolEiQATWiQBFg6KxTmazV0SACJwFgUWIxtvbm3t5eXGPj4+T/8/YUzt+FnRplAgQASKwMgROHXun2Ht4eHBPT0/u+fnZvb6+uoa/01gZq9gdIkAEVovAlCB/6jL8ncZq6cSOEQEisHYETi0IU+xRNNbOKvaPCBCB1SIwJcifugxFY7V0YseIABFYOwKnFoQp9igaa2cV+0cEiMBqEZgS5E9dhqKxWjqxY0SACKwdgVMLwhR7mWjw/9NYO83YPyJABNaCwJQgf+oy/P801sIe9oMIEIG7Q+DUgjDFXiYa/J3G3fGOHSYCROBGEZgS5E9dJjueomjcKHvoNhEgAneHwKkFYYo9isbd0YwdJgJEYC0ITAnypy5D0VgLe9gPIkAE7g6BUwvCFHsUjbujGTtMBIjAWhCYEuRPXYaisRb2sB9EgAjcHQKnFoQp9jLR4O807o537DARIAI3isCUIH/qMtkntxSNG2UP3SYCRODuEDi1IEyxl4kGP7m9O96xw0SACNwoAlOC/KnLZMdTFI0bZQ/dJgJE4O4QOLUgTLFH0bg7mrHDRIAIrAWBKUH+1GUoGmthD/tBBIjA3SFwakGYYo+icXc0Y4eJABFYCwJTgvypyyxSNE7dSdrbO2JADMgBcuAUHMhEYwmf3J6iY7TBCUIOkAPkwOk5kH1yS9E4PcgkLjElB8iBtXAgE40lfHK7FnDZDwYKcoAcWBsHsuMpigZJvjaSsz/kNDlwOg4sWzR2G9c2jWvajdvtT9fpixNo27mmaVy3NX0I/cvS5/RVsRK8/N/WbXZ7t5d0xE+fs/Kmnvqg5fU5Xreui3bx3vQxlrfpO7dpg497vJdyW9c1ndvGupKv/jWu6bb+xf5u04a+DnntZpe/9A/4F8dA25hSxpe1vqX92naDLw30AdOT8a61W0vPsJL2e3wSu9qvQ9fq+Kb9Ks8ZO25T6ry3zDXafK/P66q/aNEYgoIGlxsFPwSAbFKHwJ2lH5ropXw7+aVNCeo23T7v905wLgZbaadQ3gcQTMf7km+lNKyD914wJPAOouF5EISiGiDFBtQZgpwEeRDQ2WWEe2Ir9W1oR/IrAU3HwuOAZWq+1dJr4yE2C4uSEu6nTEvG7UJz8xptnhKzFdhasGiECdp1fqLaoLbbdP0upGlc223jTqSWvt8O5Zumdd12WJFinabt+hV6GNyxvGk2W9d1/Yo4EzgwdOgAACAASURBVAcf6BrXdYNvfT/7IDDssBSLrZM2iytmO5n0Wa9KVvs8STQ61+lK3wfv4J/fBX7IfUjzokjZ8hpwUyHQMR1ES+xKGenvUDYNzGWRk5V8hq/0Oemv2C8sQKaU8YJQ8g18FTsFv4f+9YE1PtfaraWbsfJi6segxzv2P3DE7zhhV6Z4C55FH7z/ulMC/Av2MhthnmKbWsaniZ8q/L5/A0fazTbuJKOPh9pUPvtrz0fff7F9CV/Ev7jTvpBgJn2+XpvLFY1AGiFCv7W3JMbVY9OvlH2dQnqYDCoUu1q5fWhLyRDqKZG9HyavaDP43tfbBf8LQS3Yl8kkx2+9X325PiCkffGTAnBJgqnYUt+EXFJOnm26fcYAUiKl91EDrQmQ2h7aTMrDZDa2t53aFMyH+75P0I6plx9dWWEwk0lw0GAVxjcGV7U9pYyWHRM0j3kbFzOxXR0Lb6PHxHOj1m4t3fuPnAhzwmMe+IVjgf1N0kE8Y7pgPoyD55/gFvN7XFGc47hJmSiWMHZJXZOubfm60KcCZ4ttCpa+rojc4HefprHCtKl8xTG07ast9V2vYfzRl6H9wtyOfDF8XEH6YkUjCdAyieCdQB9QlRjDoIyn6wpquPbBQ4ilaa1ru43byrsAP7j1vL4trTdcxWbmh/E/BvtA+iGI9e31YtPfR3uR8OqbuQZbcVVnya9kNZNAfBF/VRijb8XypWBjgraxX7YtfdPxw3vtUylN8iQdAkTwUbhS9X8kAMe+TimjeGDAiWnqt2Cxg12v7Gj7PM9nz7N+5zlPNAZcLK4xmAWuDTwYsEmCvAqpjpdebZ+q9gZfUmEBjogtsQvzK3vPhu3q/YQ2/RwrzQm14ftxTl9gzIM4VzloMb3x50w03t7e3MvLi3t8fMxfKF6ss0LIIRDHCRCI7gkTg84weOPpebCJQWO/c7vtxnWtvljFsuW8vi0sN+JHmAQaQGK7YUIN6X2/lXw+0HQbv3XXtFjXjkUyWQZf0gltAnywIX2p2k/swiTE9Np9TZAEDw1aeB/7BAFJ06SNgmAUdx5aR67oW+2dw5Qy0WbBt5gHuNf6ftTqX+wB5oCVHbNENBRb61eoH8siPgkG0A9oM+Eepid1jb9xngpuYb5g+dI92sY+2HSpG4TYixH2x9c7oy/aVohTwxwG7ND3Fd0/PDy4p6cn9/z87F5fX12zhE9uSwHZB1AloJAn7jwg0NbSA7nk3YcQv7efbu01aMo7jLjd1Xrhi5xi3kGbE46nwooJj6f8BA39if4I8ZI+AkFx8iUEhcmqfTdBxQagJDgkdmESYrq91+DgA16+dceghfdDuyYwi30d+6RvVhQAj1gO+l+1M6WM2ja+xXbC2AC2gqsPJjJmmp74UGu3nJ5gldmB46kq/vKVm7xL0F0e4gdtSp/EZ+Glb0cXRzL+fTuZL3HVDxzBfnveThSNKW0i7sgzqXsBXyI+iR/KkXVfs53GEkTDf14ZBz4MgCfdsNXGF9RypKSf5FbTzYvwuDKRQGryOvhs85i8xGZ8UT/nRbiSTiay+eQ44JCtbJLJovVT7PyOzeI6siL2QTyxCwHBH9Oob+CnLz+85IzBMh7roA28R5/F3hDYJEDF3WZY2anI+8mrATlO4LS+Cu2w0JC2ZpTx9k09Ywd9jT6G3YX2IRm7MJ6pb8PiYEjPseoXP4JN61r8egpsDvj3+Hr/EC8cX7kP+OLXa4hfb8/4gjZwZ6QcEZvh5bTvO5av3Wd9MG3GsUbeoAhKOtaRcQs8ercvps2aLytNX6RoDCvO+x6c/a4nOgafxWODQWClk2bxY0Dcr3i0vv6YRdFY6ASLq0g8Slior0kQpWgwYN0CT+njbJ5SNEie2eRJxII4Ekdy4C44QNEg0e+C6BS49R+bcIwvM8aZaPCfRr8M8CQ4cSYHyIFb5ED2T6NTNEjkWyQyfSZvyYHLcCATjSV8csvBv8zgE2fiTA6QA8dyIDueomiQRMeSiOXJGXLgfjhA0eCLcL4IJwfIAXJgMgcoGiTLZLJwNXk/q0mONce6xgGKBkWDokEOkAPkwGQOUDRIlslkqa08mM5VKTlwPxzIRIOf3N7P4HOic6zJAXLgWA5kn9xSNEiiY0nE8uQMOXA/HMhEg5/c3s/gc6JzrMkBcuBYDmTHUxQNkuhYErE8OUMO3A8HKBp8Ec4X4eQAOUAOTOYARYNkmUwWribvZzXJseZY1zhA0aBoUDTIAXKAHJjMAYoGyTKZLLWVB9O5KiUH7ocDmWjwk9v7GXxOdI41OUAOHMuB7JPbRYiG/D/TTeOa7G/rNrswyL5M57alnUK1vtg8rk672c1fiY/5WPL7mLRt55oG8KjW3bquWm4s73KTSf4/dI9zHLfSGImvI+NX7f+R/Yg+WP6VfDrS9il97LbzeXkqP2jnLscgE41FfHJbC7Y+UIbJWysjRB7LqxG9WKcPVO8Sjlp770rfuU3buK7rXHMweIwJw1jepQKi+IBj2rpW+rY17cvYt61rtexc/IrjDG1V8rdd45p243Zz231PvYJP4k+G0XvaYN27FIBjdxlSPjueWrRo7CHIFSZSBGAsrzY5anVQqGp1L52uvup1tH3ALCs3lgeBNKt3ury4y5A2Qn82uvOAdn2Q3MgO9J0r/kOY1fJr6eBj5N+p00ptexG9koidun+0d1OCdVuiIRNFV9aliaTkG8vTMvZarWMDqzzr0QWukDGYhZ3AR0yQ821oXbtSLNi1PoZnCbSKgwTTbCfkhS6003Xp8VQtT3xrO9e1Uk/7MuIT2rHHX2N5SZ8EJzhi0zHwvmBAFD86t9V8teGfFU+wI/lFH7A/pnxiU/sP4mjb9gsYbduUT/yaOM7BvgimHsv241rzWdIrfdC+8HpTwfhsi44T82DBoqETMr3GAJlNYjvB03o6ETXYZgNUtRcEwB+X4P3e+eDtjyzSdL9ilvTEZj/545FCkpfWH+xCn+LAm2AhwTE5Nknb8bZicBnJ8/5ggBvzacyHsTzTnwSDYaex3UvbEBClj7JYSMqnfelFQoP3iA+JDeOPYFzJ98dTumDx/g1YpeNl/ErsjWDqy8ECwIte6E9iQ31ObWV8jnzR8rwSo9NwYMGioQEAOuonTwgmxYkUyo7l1SZTtQ5MzqzMEJx84AhBRe69uGH5LLjbfmF/B7sZ0TM7JkgV8wNmY3neVwjU6LvHDH0ybSaYjuVBn6WO+BN3NWnAjhju9y6e36NPeH+Mf1k945PPzxcccbEibWU2AJsMY7A/Vs/nVfDP6vU2i7vMZCygbaZz13EiDtyWaIQjAb9ar0wkH2TH8mrAVetAQPBlbEABEYu7DkgLQTFdjZrJPGY38bcXsLhrisdkTTyuytsZ/B/LywLhQZ96cVBf4g7K+zuWB323ARbHQO49nmKrsOK2dc3qf58cHw27gqyfCb4FQQg4JP0bwSbHGPo7Ui/zy5ct9Bv8pWgAtoBLttBi3kkF8wZFIw/IGUlwwk0lTK0OroZrZUIb2651m60GOxOAsiAHhD9gN/avVs6nB1yydgbR8Cv77CirgmetrRKeiJHNH8uzbSTPwe8anklZwRL6OeZDVg/GQeqV8n0fAk61Mtpmhj/YL9nWejYPn/Fey4cdWLIDgrzIGaadNGAS18LXU29vb+7l5cU9Pj5eD+zKJElWcZUyflDH8mqTqFhHAhGcM9vVrK3jgwuUT/J7W3HF6vM0EMERmPiX1BuCTnquPqRLn4dVZ9qOx2zyOw08IhvxKfHdHDON5VnsbT/Ns+8v4p/kp/1MjrrGfLB5h3wK+d6XKLgj2OBuOI7lhHFO+mY4UPTZ+GD7wefrxa+VY//w8OCenp7c8/Oze319dc1yPrm1x0DyDEHNT6S8zPAuIc8rH6WE4FuxF4N8JEIfrHpbGgw0gEue9dE+D36ltsfsin3Jt+1pu6XA3bfTbjZpPehnkufTwVff3xGfgkAWcRjLiziK7ybwWR+8HeizzYe+ZD90rPrQtyl+p/gHLG0b0d+ARXwZPoJN4pdtp1LPtps8l3wWO4BN9BM4wTQKxxk4sMzjqTN0lNvKZQYT2QnxiGXG2Igoxp3PjPqcYxSUmRygaMwEjiJ0qkAlK2a7wzmV7fXakeOy4k6JfKYYnJkDFI0zA0xxORy4uds4jFHCIzm64i6D4nCl2EXRuBLwSRCgDwwA5AA5cCMcoGjcyEBRZI5cjXNcGYTJgbNwIBONJfzT6I5/iAARIAJE4CAC11hMZv80OkXj4DixABEgAkRgEQgsQjSW8DuNRYwGnSACRIAILByBa4hGdjxF0Vg4S+geESACRCAgQNEIL67ICCJABIgAETiMAEWDonGYJSxBBIgAEQgIUDQoGpwMRIAIEIHJCFA0KBqTycKCRIAIEIFFiAY/uSURiQARIAK3gcA1RIO/07gNbtBLIkAEiECGwCJEg5/cZuPCBCJABIjAIhG4hmjwdxqLpAKdIgJEgAgcRoCiwRfhh1nCEkSACBCBgABFg6LByUAEiAARmIwARYOiMZksLEgEiAARoGhQNDgLiAARIAKTEViEaPB3GpPHiwWJABEgAldF4Bqiwd9pXHXI2TgRIAJEYD4CixAN/k5j/gCyJhEgAkTgkghcQzT4O41LjjDbIgJEgAicEAGKBl+En5BONEUEiMDaEaBoBNG4BhBsc++IATEgB8iBQxxY5PHUIaeZT2KTA+QAOXAdDlA0uLvhDoMcIAfIgckcoGiQLJPJwpXddVZ2xJ24L4kDmWi8vb25l5cX9/j4yGBCQSEHyAFygBxIOPDw8OCenp7c8/Oze319dc0SfqcRVXW3cW3TuKbduN0tD9y2c03TuG5rVkyhf1n6nL4qVoKX/9u6zW7v9pKO+OlzVt7UUx+0vD7H69Z10S7emz7G8jZ95zZt8HGP91Ju67qmc9tYV/LVv8Y13daTeLdpQ1+HvHazSwjuuRTwL46BtjGljC9rfUv7te0GXxroA6Yn411rt5aeYSXt9/gkdrVfh67V8U37FedkYs+O21idmo+19DFbc/KO8bVmv+ZrLb1m57bTs53GkkRjCAoaXG4U7BAAskkdAneWnkzMiX22k1/alKBu0+3zfu8E52KwFT8K5X0AwXS8n+o71sF7LxgSeAfR8DwIQlENkGID6gxBToI8COjsMjIOYiv1bWhH8iuBScfCY4Nlar7V0mvjcaWglYzbIZ7WfKylH7J3ZP5RvtZs13ytpdfs3Hb6gkUjTNCu8xPVBrXdput3IU3j2m4bdyK19P12KN80reu2w4oU6zRt16/QQ/Aby5tms3Vd16+IM3Hwga5xXTf41vezJ+Gww1IsZIUt90NAjUHLTgp91qsGc/s8STQ61+lK3wfv4J/fBX7IfUjzokjZ8jJJUr9RqIZ7sSt9S8vGPsYxyUVOVvIZvlI+6a/YLyxAppTxglDyDXwVO4WxGfrXB4v4XGu3lm7GSuz4XWXb4x37D7sU3JXhHCr64P3XnRJwrGBPxiTaCPf9DnfYCWqZko9F332/lTuh/WLbwD+Z/3F3WUtPfR341JdX3KJPwuu4SOnrXr0PycLjuqKzXNEIZJEB7bf2lsS4egzE8XUK6WEyqFDsauX2oS09dgn1lJTeD5NXtBl8VwHQowklZyStTtIger1fffDrCZz2JauvQpAFx70TQTvZTkNX6hjM/QQPx4b2PpZPJ2Xst8d5CN7bbrjvy0Agxj76+0Ietm/LCw4QAIriMqVMtFtoX/M85m1czMR2dSx8uR4Tz41au7V0xM1zJ8wJfx9E02AR+5ukiw/ALc9p6dcwDp5/gltSr58fysM4bkkZwEfSVUT9PfhYTR98qLad4APt1dIRNxmD4IssHv0Rrqbp3LY8r/pawb9qF/Cr+VpLVx/9TreyQPL8Or+gLFY0kgAtQMI7gT6ggogEsMbTdQU1XHvyC+k0rXVtt3FbeRfgbdbz+ra03nAVm5kfxv8YPHEiQXu92PRtR3uR0OqbucaJoL7YoBDKSzljS/xVYYy+KQGT8qVgY1bzSfnaCg8mOk5QbbOYJv5LPZjoobxwpep/Mglh0sa2gsAeEpZYHn03YyBldjvY9cqOti/j+ex51u8854nG0LYdsygOgWtx1Q8r8STIa391vPQa+xn6VrU3+OI5I/VhHkkwrvlYS7ci4Rc+0WbPa48btqX98NiDD5gOfJK2hx28GT+0G3hW87WWfr4+pL6Oct6O4YmfFyoaQkgNfnANRPADr+oPgIyn58FmCJA7t9tuXNfqi1UsW87r28Jyw6BmfswSjbDr6Tb+JXA1KGr/a5Pepttnc8wwYBL6k5Q/kWhgIMd77QtM8uiP+FEQDHvsFcurrZr/mi/XKWVieRMsY/ow/uqD8KA0bjHA19qtpQNW1na0CWXUj3gNebEs9j1pE/pSs4fpch/no+DTz4uaj7X0dBxyMY/9UMzF5xAnVJx9GZuOvmqffT2Yv0vvQ+L3wnYaS/j/NIRUydZRj42UmH6AFbheYOLKLe5IID2QSN59CKl6++nWUie3vMOIbWu9cGZazDtocxeO19RfmJBK7rDyx+MpT/7Qz+iPTpbSVWyZHUQ/yYZJHPuerMLyFWFf7x2iEYN7fxSTTOgwlpqWBLDYL/EZdpIeJ3iO5WzAB2xjGeh/1c6UMmrb+BbbyYOc8Mz3E4NW4kOt3XJ6glVmJ/DLp2swtPjLV27yzgCwlPKeN9Cm9El8lvSKvcQX7J/nbGh/1Ef1QdoF35HDlbb9/AUOiy8yf2vpia84XvjV2cL7EMcj8V85ednrIv8/Df95JZJHSQxbbXxBLUdK+kluNd28CI9nmSIiJq+LL9aOy0tsxhf1c16EKwn6CZVupyVNJ5yWOxA8/UQOOzaL69ydht8N6OfQ4KcPQvoyE18oqt+wW6l9bWR2GjLp8bhF7lXk/WSCADIIJWAE/VexynYoU8r4Cav9UOzTZ/Q1+hgXPX0/Bh9CcC6tljN/ELe+7X7xIzZb17awKIG68b1KCDbeP8TLjxe8m4o7/DJ+vT3rSxh/qRs+XNE+1nwspqMvGhwrfUGccX7k6dZXHTd7XXIfrK/Xfc5EY0mf3CYrXiXRPV13PZEx+Cwek9LEv6cxY1/z38kQk1VhstB3GtdV0iUE5rgSw6OEW5h8FI1VBYglzAX6sKx4SNG4hUBMHxmIyQFyYCEcoGgsZCC4mlrWaorjwfEgB8ocoGhQNLiCIwfIAXJgMgcoGiTLZLJw5VVeeREX4nJPHMhEYwm/07inAWBfGXDIAXLgljiQfXJL0SCBb4nA9JV8JQcuy4FMNPg7jcsOAAlPvMkBcuCWOJAdT1E0SOBbIjB9JV/JgctygKLBF+F8EU4OkAPkwGQOUDRIlslk4Yrusis64k28l8gBigZFg6JBDpAD5MBkDlA0SJbJZFniqoc+cTVODlyWA5lo8JPbyw4ACU+8yQFy4JY4kH1yS9EggW+JwPSVfCUHLsuBTDT4ye1lB4CEJ97kADlwSxzIjqcoGiTwLRGYvpKv5MBlOUDR4ItwvggnB8gBcmAyBygaJMtksnBFd9kVHfEm3kvkAEWDokHRIAfIAXJgMgeWKRry/0w3jWuyv63b7MLqw5fp3LY02NX6YrNSJ9rZus602252ZUC3nWsa61PJb0n7Mvflxu7QP7AR/Nh2jWu6bdqub69x1p9iWbEzhlHs74TVXM0OpuM92sb07D7HyvattNKS/z/dl/P2amOq43hovCf0H/tj76MPti9nbtf6MfYsPloujZVnXjrviEeCx4JFozDpfNAM6RiA7KCO5dmy+BwCQLfFQNIHnzyY7dymbVzXdXlwF5tjPozlBX8kMDbtxu3APxGHvL3ej9w/7MMBf6CNUpCu9gX7gfdoD9Nr97F8DWvsi5RBDrSulXFIxmzv9sKVtnWtlo1toK0J9+hzyUYl3wu5Gb8itiWb700r+OS5YzF6bzusnwTTi43vlXHPROPt7c29vLy4x8fH6wFSIH0/IBIwwqq8WmZugBwJvqW2NE2vdiBr6VJuLE/tZGU0WOpVAx5gonVL18ye1p9wrdXFdLzH9jG9do/lcWGA6eE+7jLkOdjb6M4DyvsguZEda2HxAeUOTnT0uVSvll9LL9k4dVqpbS+i6SLkYN9P7RftXS+mnhD7h4cH9/T05J6fn93r66trFvHJbYn00mkhvm6za2Wk3FheDbwj6/idQPBFAlS20h+zN5YX/RMxgBW01PErVxE3OM7CYODLdK5rw5FNbKe31R+HQd09po8E12jHCAym433sgxkLLIP3WN77hD5im6bvakOuyape+tW5rearff+sx0imDS9WNg/xMeUTmwXsbNtjWCd+wZj7NtAHaCfYF8HUY86eg1gefZZ0fEZceU8Bnc6BbKexHNHQCZxeY3DOJiV02kxCnVT+qqKjk16vGHw1rXo1E7BU96B/EAAq7aAY4Qrb3qdCCkEHfcB7316/s9JjHS+CSeC1eBb8RZt4j/3B9No9lt+nfiWTGetLnfhsxETGQ8Y55ktf+mCq/fULkLgLGRnPxAZgoj5X8mXs4riYPqVYG78SeykWST1fDhYrXvTCGCU21OfUVoKr9oXXVewEzj22CxaNWpAKq6XixAgTZCyvNjEKgd9P/PjyGlZpWVkz8aWNMR/G8tA/DX77vRNfkoAXAnyS7u2Cn9gO3hf9M4ET/bB1NQ/T8V7zbTtYBu+xvAmwyQTAwGhso5BGTLANvPftYX8L46c+ZfU0CCPX0oWNLE7i4sb42fcH2s64BPaztqGez5s41qEvgkvil/aRV4rFERy4LdHA1WI2ocYmG+TVwBmzlxyZ9Cu2ZPeiwoK7mDF7Y3non5Tz4iDBAkVUn/WKAQzKYTt4L234ZxvsIAhZP5L2C+1Z+1of02v3WtZfITAm6fpyG87lrT2LFeZnwdmuvKXdAY8o0GjD+iPPNt8/g8DHMoPtnjs91snuwdoPtlKuhTEqtju20+gXHhSNCbHAjgOfE1G9QdGoTBocWDuhMK963weR8qSCQFaz7dMh6NbKSftjeYl/4lPrNlsVDyV8Jd3axWe8P8oHaRP6j/4lgXhCGfQB763NkkCVfE5shPYRK8zHe99exV/Jwx1NVk/HIFxL+b7+RC4kGE6wrVjZdvEZ77V82K2W+W3ahTrJTo/pSfC8V2xuSjSSVVllYviBHMsbI76vZ7fwvZjo7zFkiz+cVaeTLdn+j/kwlmf88zbl01HzWxHBQj6/TdKtXXz29xDI7DEQljU+CKa+38k7Dwm6KVYHy2AbeB/by20mE9PWMc++ffQpye9txx1EJgyAzVhe9HVENDK8eg7Ftsf88nnqy0i9xIZZiCQ2lKPGlu0HnykIEzmQicYi/ml0T3q7nZdne/SSl/FBtFq/Lx8nbxEkFQmwHY+dRlanYisLNuAvtmUnPObZe29Tg4gGAG2rdAwCbSbtDP0a+t8HUjwuSYK08UWDsh6XJIIVyo6WQX8qYzT4Bn2NfpjAh/akjMXK5idtGkx9XR1zzCvhBr7ZNqKvAduEOyX7GvA1z4xpOJLNxsi2mzyXfD7A3eg39I1pFJICB7J/Gn0RolFwdCyYMe9+Jjq+8Oa4HzHuIorJTvGIupyPFA/gQCYai/jkFhxkYODkTjkgK2bYTZErkwKa7ADHd3HkWcoz4lHDIzueomiQLDWyLCWdu40jOSpHV9xlTBLXpXB8yX5QNLhS5WQiB8gBcmAyBygaJMtksix59UPfjtx9kPfk/UwOLFI0HP8QASJABIjAQQSusViiaBwcFhYgAkSACCwTgUWIxhI+uV3m8NArIkAEiMCyELiGaGSf3FI0lkUKekMEiAARqCGwCNFYwie3NYCYTgSIABEgAgMC1xANvtMY8OcdESACROCmEKBohE/AbmrU6CwRIAJE4EoIUDQoGleiHpslAkTgFhGgaFA0bpG39JkIEIErIUDRoGhciXpslggQgVtEYBGiwU9ub5E69JkIEIF7ROAaosHfadwj09hnIkAEVoHAIkSDv9NYBZfYCSJABO4AgWuIBn+ncQfEYheJABFYJwIUDb4IXyez2SsiQATOggBFg6JxFmLRKBEgAutEgKJB0Vgns9krIkAEzoIARYOicRZi0SgRIALrRICiQdFYJ7PZKyJABM6CwCJE4+3tzb28vLjHx8er/R+6Z0GXRokAESACK0PgGqLx8PDgnp6e3PPzs3t9fXUNf6exMlaxO0SACKwWgWuIBn+nsVo6sWNEgAisHQGKBt9prJ3j7B8RIAInRICiQdE4IZ1oiggQgbUjQNGgaKyd4+wfESACJ0SAokHROCGdaIoIEIG1I7AI0eD/p7F2mrF/RIAIrAWBa4gG/z+NtbCH/SACRODuEFiEaPB3GnfHO3aYCBCBG0XgGqLB32ncKFnoNhEgAkSAosEX4ZwFRIAIEIHJCFA0KBqTycKCRIAIEAGKBkWDs4AIEAEiMBkBigZFYzJZWJAIEAEisAjR4O80SEQiQASIwG0gcA3R4O80boMb9JIIEAEikCGwCNHg7zSycWECESACRGCRCFxDNPg7jUVSgU4RASJABA4jQNHgi/DDLGEJIkAEiEBAgKJB0eBkIAJEgAhMRoCiQdGYTBYWJAJEgAhQNIJoXAMItrl3xIAYkAPkwCEOZC/Cl/A7jUNOM5/EJgfIAXLgOhxY5O80SIbrkIG4E3dygBw4xIFMNJbwO41DTjOfxCYHyAFy4DocyI6nKBrXGQhOAOJODpADt8CBZYvGbuPapnFNu3G7W35Jvu1c0zSu25pJEfqXpc/pq2IlePm/rdvs9m4v6YifPmflTT31Qcvrc7xuXRft4r3pYyxv03du0wYf93gv5bauazq3jXUlX/1rXNNt/Uv73aYNfR3y2s0uf6Ef8C+OgbYxpYwva31L+7XtBl8a6AOmJ+Nda7eWnmGVtl8POjhGeC/1Lf5TbYZykSPWbs3OONVBrwAAIABJREFUO9vTMdNrbB/b6zmTYK3lec3nyBGYLFo0hqCgwQVJcUP3IQBkBA6BO0s/YgBjkLATR9qUoG7T7fN+7wTnYrAVPwrlfZuYjvdTfcc6eO8FQwLvIBqeB0Eo+gBXE+ChTsTF2wMBBbvHlRG+iWCkvg02JL8SDHUsPDZYRuyVfKulj4zHIdwRY7wfG+NDNm2+tWvz9XlqOS0/60rRSLl5uni5YNEIE7Tr/ES1QW236fpdSNO4ttvGnUgtfb8dyjdN67rtsCLFOk3b9Sv0QNSxvGk2W9d1/Yo4EweZPLID6Qbf+n72hB92WIrF1kmbxRWznYj6rFedePZ5kmh0rtOVvg/ewT+/C/yQ+5DmRZGy5TXgDkEdhWq4F7tSRvo7lLXkH8oPE0FW8hm+0uekv2K/sACZUsYLQsk38FXsFPy2/sbnWru1dDtWgQsisJuNcLrHQ+z3u03dlY2MF9pM2t07vztKxBoErtUx7tzW1zM8EOyjf+rH4J+dz8liIPEDxmxCeux78M9jkoj2wBnLKz5Pw2a5ogHBsd/aQxDxeUBgEQ45lqilC9n88VAvFLtauX2YKHrsEuopwb0fJk/FJ7EZfFcB6P0vBLVgX45b5Pitt9GX68mf9jFOgNpRl/qmEzYGcTjeSybe2CQOBPI+aqA1AVLbQ5tJ+T5YaTDDSbnt1KZgPtz3ZaAdFbt4LeRh+7Fc8F/GIga+fnwzf6aUiXYL7Wue2GnbuJiJ7fp0HYMek8jXkm8j/gxYiR+Km9wHfiVYgK+Yjvee82oHArQIt/Tl4BiDMKNdvA/zSnEf+hDq4nGqYJnUBZ8OpUu+ira/hzkXnosLLh0/XicdWy1WNJIALZNIJ0VYGeHxhQajPtCCuAQSxNWHJ+dw5tyTuJ9w/cqsdW23cVt5F+Dr1vPGbGZ+GP/VXz85oF96/NGLzRAIvD2dvDViw6TQvoy+0wA7Yl+FMfqm+WI3tl2ZwFgG73EVq/b8FYJZcVeB+ToWcpV0DXBDunCl6v9IAI59nVIm+l/zLfiz28Gud1j968LB73K7gHet3Vo6YmVwFvsalJVXVR4kddP+RC7Iznyzi4Ie0wWHpD48Y7r0wcy3gdf9HK3yGu3gkd+B9I8aHieYxPHrFw5VvkC5yA+mJWKSicbb25t7eXlxj4+PScHLAihEHoJ7JF9YlXmy6YoCBnQ8PQ82Q592brfd+JVVMtG87XJe31bZZuZHmEBxUqvPMgmqohF2Pd3GvwQ+SPJkQg0BtTrB1YdqYNcgeAbRwKCI99GnNJD5cfJYlfAulI12IKD5NBC9Y8vE8gfai+Xq74piMEvGDHyrpSNWSRnYQXmu6cJJfA2YYXm8R5vie8jb6nGXF49teqyH9aFO8v7M2lVcbLrYGt1pVPqAC4jgz6hoxHZAXNUnXo+K9Q8PD+7p6ck9Pz+719dX1yzhk9tSQO5XamEy+Imhgy+kwuOpQnogjLz7kACUBHXNC1/dyDsMWQ3GVbra9vUKeQdtymqtF8CaaOi7Czye8oEy9DP6I+RO+j4iDnEiwKTTvsORiOJRFaUwIfuv1yqBDct4PDW4S3kdj8HXGDTNsYXvs/dbfNbAFwIZPse+DUGu/nUd9N/7BnajnSll1H/jW7QRxgawFZ75McdAmfhQa7ecjriluy4pH3DGtjxXgMu6Y4TxSm1KH/sxbv27pYCvvFfUutJfqO/HTJ/1qmV0HnmbvX95e4orcEXs6Hj7e+hDLV38w3peVAAT9B/HjPdHCYaMd7bTWIJo+M8r7SCHYKnBDV9Qy5GSBo1qunkR7kUhEEaCdb/akeDeug4+2zwmL7EZX9TPeRGuE6kPBioqfoIGHIoCZDHTCRHq+F1UoYwEN8V1CNzBBwwEeFQQJmXvG/jpy+tLUnwBKmUkYIPwJPfaZ7lq2T5NAk3cbYYdaPRX+gaBuvc/ra9CKzYG3GaU8XiaeiO+Rh/1XVnwffBhWASkvpXSEbeAVRzXznXxeEr8C3iFj0j69kK6H3+9l5fXKvAD/n5RFXnSB3PsS1U0Ek6kfejHqNAH5ai5xjH3L7QHH4vpwNF+QdjP47awYMn4bdpl/sCDGhaLFI2as3eXvusndzJhl05ymMB3N15XG5vpwZhjcjgoEqNxjCgaV5vo4wMTV0x6TLBQP7MJRtE4erufYThprGFHAUeo82yNc5E2iQ9ygKIxaYKSNEga3pMP5MD9coCiQdG40Mr4ficZAyzHfk0cyESD/58GCb4mgrMv5DM5cFoOZP80OkXjtACTsMSTHCAH1sSBTDSW8MntmgBmXxgwyAFyYE0cyI6nKBok+JoIzr6Qz+TAaTlA0eCLcL4IJwfIAXJgMgcoGiTLZLJwxXbaFRvxJJ63yAGKBkWDokEOkAPkwGQOUDRIlslkucVVEX3map4cOC0HMtHgJ7enBZiEJZ7kADmwJg5kn9xSNEjwNRGcfSGfyYHTciATDX5ye1qASVjiSQ6QA2viQHY8RdEgwddEcPaFfCYHTssBigZfhPNFODlADpADkzlA0SBZJpOFK7bTrtiIJ/G8RQ5QNCgaFA1ygBwgByZzgKJBskwmyy2uiugzV/PkwGk5kIkGP7k9LcAkLPEkB8iBNXEg++R2EaIh/89007gm+9u6zS4Q0Jfp3La0U6jWF5uVOtFO+n8viw/tZldejW871zTWp5LfkvZl7suz/mhZsKF+VPtwyP85E1T6XPBBfKnhjOl4r/7buljG32vfh2sVZ7Ap/3e6LxdtlPDQMSzlzcGnUif6MPSh5+yZ2wU8DgYj8bHblvl7jB2WJYaBA5loLOKTWz8ZCxPPB+mQXisjHRvLGyO/r9e4botBog9AeUDbuU3buK7rXFOalGM+jOWpf5Uy265xTbtxOy13kus1RMOObw1nOxY4/q1rZQyS8dq7vfCkbV17cIGAtgv3lTGIgbqSf54xKvhXGvuCT+JPhlGpLtMoDBM4kB1PLVo09hDcCpPj0GSO+UVgehHIxaEiQtq+Xq3NWrqUG8tTO7UytXStN+sKuNr6tfYwHe+xPqbX7rE8LgowPdzHXYY8B3sb3XlAeR8kN7JbtcI0MfCqLfRZ0/Bay6+lY91z3Zfa9iJ66oXGkVieq7+0e3Ghuy3REPLrqr40OZRAY3laxl6PrCMBTH2RIJWJzZi9sTz1q1YmS+9X6MVjER+E4ehEsZM2MK/rrnA8VQroI+K1F1GHIzTFQa7JzktsdG6r+QmeigXYsVjEYzrE1ZRPbBb6Ydv2ix1t25T3ZTXP7gjQB6gX7Itg6hFuzz8sjz5LOj4z4I8vIInPGD4LFo1hIunEkGsMztnEhIE2ExHra6DPQDlqNWYmYanuQf8gCGgQwmulvj/6iME/HJGF4xkvZDGA9gEkHkt4kdDAkeb5erWgUvFDV/r+ndKxZWrlvTDYwBnG1daJz0ZMpJ+CT8yX+ml/e8FU/EfGMrEB/NJxquTPHqPE3sjY+nIwF/zYhv4kNtTn1FbGfe0Prxdftd/iWCxYNHRSK/H1SCIEvuLkCGXH8moToxD4/eSPL6814OqZOW73TVCSNsZ8GMtT/3yZXDijaBbbMAFQbfkr5GV9hbykzkg/sA94j/UxvXaP5cdEAwOj1AF7eGwlY+aFEvKxbD9Jsb9yP1GoEl/Vh3eMUTYOlus4B8Bn3zfg42hfe5uCS8Id2xc+UzAmcuC2RANXjDhRbGfH8mxZfR6tAxM2BLZk96LCEncAGlBw0o8FBMir+eP9M8EtpKW+2GCCQa3PS3ck0jb2z/hSwwXT8V79lyum1+6x/JgfNsBae36HJf0orLht3UycpN6AU9ydYRuJnwEjm++fp49RPg6AfbBVHNtiu4V+g88UDcAWcLnFlf61fb5B0QhB0U4cJMJYHpZL7vstfHk1BkG1Ztun24B9QtEQX/1q+5g2oCwG5CyIQv8STGSiVfISGxPKIG54j+35/k3ELLER2t/C+w3Mx3vfXsXfiPF4AI6TNrN75BglGJqgVrKtWNk8fMZ7Lb/fO4qGwRewiePJtEm7rUw03t7e3MvLi3t8fJxk4CyAV4ifrMwqZbw/Y3ljxPD17Da+FxP9PYZMvtp7kWRijvkwlqf+Vcr49uN7C3NWjXVMAPb14nsLCZrDitjjGvPyyZW2qUKS4nSwDPqG99pfL06pzYRbto557vsH9ZP8tL/JOw1fDsQVcbN50deAUdLGgFuKxcgYhT6nOxv1ZaSebRefiz4bW7YffL5erLtB7B8eHtzT05N7fn52r6+vrlnOJ7fDccGwRYdVqJ8ceRm/U6jkqZ04SYsD1k8wLeuv8dhpZIUqtrKAA/5iWzjJMR3vq2X6ADgIV3j2xysacCSApf1oN9v+dyX6mwbAqN1sDn5do0FZcSntyEbLYH+gbbUn1ynjEsugvYg99N/mJ21CuVhXuYR5A4ax3ZOOkR7hadsWg8rYFvumXCv5fIC32CfeU0AOcCDbaSxCNA44naxAWfZuSC47opJYkQ/DLqeIxdgxGOfP3cyfIjdmjD9FYwZopwKfdg4Eu2xsZMWsK+pj695vedkBFndKGb73ixHn4vSxp2hw4tzUSou7jemT2wdCOcqK78COrMu5cVNz41LCR9HgxODEIAfIAXJgMgcoGiTLZLJcaiXDdrgjIAeWy4FMNJbwT6M7/iECRIAIEIGDCFxDXLN/Gp2icXCcWIAIEAEisAgEFiEaS/jkdhGjQSeIABEgAgtH4BqikR1PUTQWzhK6RwSIABEICFA0wktpMoIIEAEiQAQOI0DRoGgcZglLEAEiQAQCAhQNigYnAxEgAkRgMgIUDYrGZLKwIBEgAkRgEaLBT25JRCJABIjAbSBwDdHg7zRugxv0kggQASKQIbAI0eAnt9m4MIEIEAEisEgEriEa/J3GIqlAp4gAESAChxGgaPBF+GGWsAQRIAJEICBA0aBocDIQASJABCYjQNGgaEwmCwsSASJABCgaFA3OAiJABIjAZAQWIRr8ncbk8WJBIkAEiMBVEbiGaPB3GlcdcjZOBIgAEZiPwCJEg7/TmD+ArEkEiAARuCQC1xAN/k7jkiPMtogAESACJ0SAosEX4SekE00RASKwdgQoGhSNtXOc/SMCROCECFA0KBonpBNNEQEisHYEKBoUjbVznP0jAkTghAhQNCgaJ6QTTREBIrB2BBYhGm9vb+7l5cU9Pj66azgkbfIPESACRIAIHEbgGjH64eHBPT09uefnZ/f6+uoa/k7j8ECxBBEgAkRgCQhcQzT4O40ljDx9IAJEgAjMQICiwXcaM2jDKkSACNwrAhQNisa9cp/9JgJEYAYCFA2KxgzasAoRIAL3igBFg6Jxr9xnv4kAEZiBwCJEg/+fxoyRYxUiQASIwBUQuIZo8P/TuMJAs0kiQASIwCkQWIRo8HcapxhK2iACRIAInB+Ba4gGf6dx/nFlC0SACBCBsyBA0eCL8LMQi0aJABFYJwIUDYrGOpnNXhEBInAWBCgaFI2zEItGiQARWCcCFA2KxjqZzV4RASJwFgQWIRr8ncZZxpZGiQARIAInR+AaorHI32lcAwi2ub/a/59C7Ik9OXA7HMhEYwm/0yCBbodAHCuOFTlwXxxY5O80SML7IiHHm+NNDtwOByga4eU7SXs7pOVYcazIgetxgKJB0eC7DHKAHCAHJnNg2aKx27i2aVzTbtzulgd127mmaVy3NauD0L8sfU5fFSvBy/9t3Wa3d3tJR/z0OStv6qkPWl6f43XrumgX700fY3mbvnObNvi4x3spt3Vd07ltrCv56l/jmm7rCb7btKGvQ1672eXkD/gXx0DbmFLGl7W+pf3adoMvDfQB05PxrrVbS8+wStuvr8BxjPBe6lv8p9ocK9eP2dDXE7dR5KVtc8w/5tW5Mo7NokVjCAoaXMY7MxeEs9cLAWCYQKEfIXBn6RrIjrnaSSRtSlC36fZ5v3eCczHYSvuF8h4vTMf7qT5jHbz3giGBdxANz4MgFH2AqwnwUGcYUwnyIKBg97gyMmZiK/VtsCH5lcCoY+GxwTI132rpI+NxCHfEGO/HxviQzdF8E8Btm6N1585z0+ZZ2pjr23rqZaKxhN9p9BMxTNCu8xPVBrXdput3IU3j2m4bdyK19P12KN80reu2w4oU6zRt16/QA+HG8qbZbF3X9SviTBxkIskOpBt86/vZk3/YYSkWWydtFlfMdlLqs151AtnnSaLRuU5X+j54B//8LvBD7kOaF0XKlpcJI30YgjoK1XAvdqVMWjYNzGWRk5V8hq/0Oemv2C8sQKaU8YJQ8g18FTvQR/V76F8fOOJzrd1auh2rwAUR2M1GOD3Y73ebuisbGS+06dvVsQtjFdtQW7U2THrb20Gf7BxOFgC1Pk9IFzx9f7HNRKh733Q8eH0fHtknt4sRDQiO/dZ+CDh94MTVY9OvlH2dQroQzx8P9UKxq5Xb751vS49dQj0leylPxSexGXxXAej9LwS1YF+OW+T4rbfRl+snQtoXPwEBl4T8yeTa9+ISgzgc79lyGDRUWPDqfdRAawIk4oT3urL3gbbQb4+z2hTMh/u+T9AO+uLvC3mFPkVsBK+4S+nHVwPZUWWiH4X2NU/aatu4mInt+nQdgz6Ae27UfKulJ7iJH4qb3AecEyzAV0zHe7Qp6dGmFVzALqlv2lDR9LaGsU/GOOTJ4s0foQp+iU0Q90Pp3laIDcFuHN/wXFxk6Zjxmh/nHsAkE42l/E4jCdAyiXRShCCHxxc6+ftAC+ISOh9XIvG8vz937snVT7h+Zda6ttu4rbwL8HXreWM2Mz+M/+qvnyjQLz3+6MWmb1t89PY0KNcGFCaI9mX0nQbYEfsqjNE3zRe7se3KZMYyeF8VJAg0xV0F5utYyFXSIdAEH4UrVf9HAnDs65QyikfRX/Bxt4Nd77D614WD3+V2Ae9au7V0bNvgLPZLwTIGZiyP9yM2dVfb86mfMxFnsRHnUz8mlkeDT8N4Vrmc+FThGR7/hfIfNdwd2oQxCYvB6Hscy7RM5APzR4UkO55ahmgIyXqSImF15eaJpysaGODx9DzYDCTZud1247pWX6xi2XJe3xaWGwiY+SFBIBGHUDZMvDjZ/QQeAqAPNN3GvwQ+SPhk0g2+pCs4u6Lry4m/VfuJ3cpkxjJ4XxMNDIp4H8dyCDJxjMRuQTDssVcsr7YSf8B/zZfrlDKxfMG3mAe41/oeApgf81q7tXTEKikDuwDPNV04ia+Bo1ge70dsetGAXVrEttKG5VEM4NiG4u3nN8wf9MnPg4LfhfRR0RCbIY4Mcywdo9inyhgyP8drkaJRCsg+gKpQeNLqyqoXGB/0aumBPPLuQ0iQBHXNC1/dyDuMZHUm70zG8g7a3PVHXiOioe8u8HjKkzX0J/ojxE76CAOaTDpIx4mmfTeBwE72ZKIkdiHoYrq910BVOZ6KwQQDaDJpTWAW+zr2STkb8LHfem8CZ9HOlDJoT4OypoWrjA1gK7j6YIXpSV9q7ZbTEbd01yXlw3zAtjxXCsEXxiuxCemeA95XDewy9hPaiPgOPiVtJOMHNhEXbHcsXXbAmB8WXRHzuEM245T4wLxkvk/AZpGi4T+vtAPuJ0AawHUVIUdK+kkuvrhO0s2L8HiWKoHU5HXw2eYxeYnN+KJ+zotwJXI/8VRUUEiylZNMHouZEiBg53dthTKzRCNM0N438NP7oS9T8eWplJFgC8KT3Guf5apl+zQJOsmOE4S8vBpO66vQpru9GWU8nqbeiK+62JBxwz4kYwdjM56OuAWsYt3OdfF4SvwLeIWPSHq7Id2Pv97LRwwqChUBjm3YsSy1oQsyyWtd60Wm4Lfy0lwjRv6F9uBXMR343i8CsU3kEu+PFYVD5RcpGoecvpv8XT+5Mfgsvu8wmRfvqwlat+vv9MB8u31k8F/K2FE0Fho44urJf4J6QxOGojH6EvF0Ex92FLjzWiifT9fvG5oLKx0LisZKB5aTlMGFHCAHzsGBTDTe3t7cy8uLe3x8vNCKiQN7joGlTfKKHCAHzsGBh4cH9/T05J6fn93r66trlvHJLQf7HINNm+QVOUAOvJcD2U6DokFSvZdUrE8OkQPr5QBFg+80eAxJDpAD5MBkDlA0SJbJZOHqcb2rR44tx3YqBygaFA2KBjlADpADkzlA0SBZJpNl6kqE5bhqJQfWy4FMNBbzT6MzmDOYkwPkADmwOA5k/zQ6RWO9KwSu/ji25AA58F4OZKLBT25JqveSivXJIXJgvRzIjqcoGusdbE5kji05QA68lwMUDZ6ZLu7M9L2kZn0GRnLgfBygaFA0KBrkADlADkzmAEWDZJlMFq7ezrd6I7bE9lY4QNGgaFA0yAFygByYzIFMNPjJLVc8t7LioZ/kKjlweQ5kn9xSNC4/CCQ+MScHyIFb4UAmGvzkluS9FfLST3KVHLg8B7LjqUWIhvw/003jmqZz2+ysUf9v5FLe5QG8Hml3btMKRvC3204+l5zut+Ddus2ujq38f+btZuf2Sxi36APgUuVSvU/T8ZlhQ3w8y1jN8CWbX7Rx1rFfAd4LFo3WtW3juq0h8bZzTdu6tigopuySB8gHt/nCt+0a1ySBJ4hIknYKPA6JhuSHfvg+nXncDuFWyfd4tRu3uwYnCj6JPxm3r+Eb2zzDQusU8265NhYsGp3b6AoWiO0n20Z2IvMD7iJWEoVAMt2vSiB/l80aSStthTGJuwx5Du2fddwO9bGWX0sHbk3Hv4ZVJb3Utl/8XEnELtFntrFaMVq0aGxlsiWrw7CqzSahpOtxhBETmZwxzxyzTM4zq3rffmiv2/hjomHVOOJLnEhYBnxCu6NHQlN3FdgO4BLwk+Cu2PjjJfUPcem6keMp8cP637nJ4zbWX/QhYoH9gXbVb7mGvmXHmlk62gJsog3lk90RVOpVMcXy6LOk43NFcLBvvF9tID7bguUMnFm2aOxNUJJAIscvSQDoA6gGbVn5NlFozMSU+pPzIFj4AKYTvA8CSXuNlh3zxQSFpA+Sl9rd+zZNMEsI0JfXoJ8eVYm9EV98203/HkJsJm2lfng8a8HN9iE+Txm3tJ3cB8U7+KfjFtsweCo2lfz0OG8EGzsOib2Rer5cBdPEhvqd2rqloEFfdQzv85qJxiI+uYVJhscf8RwY8lMBkUGUYKQBxwQmDSz+OpZnyQA2E+HR9oJooF+xDfXF2LRl7XPSD1M36cfggxcQfacxZs/ngV9Yttg/KIttJ2KTrvLPNm7oK/qi9z5/2CWoqCY7qczG2PgC9mP1fB7ghGXxXv3c753wOfEL8hiYAXfisqgdVvbJ7dJEw4uCX2XKxA4rb5yE/t4GCZi8YeWowUN3CP2k7IWjmJfZ7W2mOxkhNqwYszriF/oCEwH7IJMiC9Zgd+qk8TZDe2O+2LbhOe8fBFTrh/UZ7BwcN1sXcfTtVMYG27D+yLPN98+6Ewz4hzQd9/5aG187ZhWuFdst8BV8pmgAtoALBXPZuGSisZxPbvVoJgStLbzfwAmK94eIZ1fGWB7zvE0M9hA4s2DXBzcvRsf4Ysva57GdBvqKfcDAm9kDIto8fC72D7GYaEf9nzxugHHSJ3N8hr7acvJcyvd4QR9KZdRW1v+R/mqdUrvYBt5DHYoGYAu4UDSWjUt2PLU80ei38bIajFv5ZBKaFTnm+XsIFhhsx/KwXDhGGHYMIBL7vfMr88o7jWIA08lh2w87orgTMj6kE6nv8/B+pidZuks4hIuKsg20pf4Bhuq/XBHrwrMExfq4pe0k7zQsNoiFzUN/Cj4obt4XfS+C4prVMX4l7c3ENLGhAcHYsv3g86KOZJRHvO7dTYhGH1AgcPlJCEEvOYKCcjLxfMDRI4WpeSEoh6+u2s02/ULKtx9sZl8X9UEHjzzKRBvaiEKBdmvHWhBMNCj3bTXwkl8DU8UXi1/xWQP+Bt4RqV29msBn7XjsAXOb75/nj03EDTDJhCzmBSz0nc8YZxK/zNFWrV6xb8rRwlh7O4BN9FOx5bU8b4jLtXFZpmjc1ASSYHS/k192N3EHeFPjduXgI4Iadz5X9oXjxl3NERygaBwBlld4v6IEkcCjk2NtraK8iKauqBn8pq4CZZdY3CmtghPkwVQe3GI5isaMSarvMQ4fQd3H5OFu48hxloUHdxlc3c+IPUsQGYrGjQ7cEshDH44UC3KNQrECDmSi8fb25l5eXtzj4yMHeAUDzMDOwE4OkAOn5MDDw4N7enpyz8/P7vX11TVL+OT2azcfdvxLDMgBcoAcGOfAKcVgqq1sp7EU0XD8QwSIABFYMQJTg3StnAhqLe+c6RSNFZOSXSMCRGC5CLw3sFM04P2BgME/RIAIEIE1I0DRgKB/CjDWTBb2jQgQASJwijj5Xhtz6vN4itwlAkSACFwBgTkBG+ss5nhqCf80Oo+nrsBgNkkEiMBFEUABmHN/LdHI/ml0isZFecPGiAARuFMExoSi67qDX0YtRjT4ye2dMpjdJgJE4KII1ERDBEP/1spI+rVEg+80LkoTNkYEiAAR6BEoCYKKBV5L5Sga5ssrvtPgtCICRGDtCFgxsEJhn2157jRAOCgaa58u7B8RIAJWBFQkML2UpvkUDYoGZxERIAJ3hIAGf72KQOg9XmvpFA2Kxh1NF3aVCBABFIY594sRDX5ySzITASJABM6PwByhwDrXEg3+TuP83GALRIAIEIEMARSAOfeLEQ3+TiMbWyYQASJABE6OwByhwDrXEg3+TuPkVKBBIkAEiMBhBFAA5txTNPgi/DDLWIIIEIHVIPDJT37Szf0rIkPRoGisZjKwI0SACBxGYK5gSD2KBgiGgnEYcpYgAkSACNwuAhQNE/jnnNFpHdl28Q8RIAJEYM0IrEY0+DuNNdOUfSMCRGApCNyqaPB3GkthEP0gAkTgrhBYjWjwdxp3xVt2lggQgSshcKuiwd9pXIkwbJYIEIH7RoCiwRfh9z0D2HsiQATNdhaxAAAgAElEQVSOQoCiQdE4ijAsTASIwH0jQNGgaNz3DGDviQAROAoBigZF4yjCsDARIAL3jQBFg6Jx3zOAvScCROAoBFYjGm9vb+7l5cU9Pj4W/+tB/dX2Oa/8RfhR3GNhIkAEbhCBWxWNh4cH9/T05J6fn93r66tr+DuNG2QfXSYCRODmELhV0eDvNG6OanSYCBCBNSBA0eA7jTXwmH0gAkTgQghQNCgaF6IamyECRGANCFA0KBpr4DH7QASIwIUQeO/HRPyf+0B0+PXUhVjLZogAEbgaAqsRDf5/GlfjEBsmAkTgjhC4VdHg/6dxRyRlV4kAEVgOAqsRDf5OYzmkoidEgAisF4FbFQ3+TmO9nGTPiAARWDACFA14kX0KMBY81nSNCBABIvBuBE4RJ99rY0597jTePfQ0QASIABE4HoE5ARvr8JNb2Knwk9vjCcgaRIAI3BYCKABz7ikaFI3bYjy9JQJE4F0IzBEKrLMY0eDvNN7FA1YmAkSACExCAAVgzv21RIO/05g0vCxEBIgAETgtAnOEAussRjT4O43TEoPWiAARIAIlBFAA5txfSzT49VRpNJlGBIgAETgzAnOEAutQNPgi/MwUpXkiQASWhAAKwJx7igZFY0l8pi9EgAicGYE5QoF1KBoUjTNTlOaJABFYEgIoAHPuKRoUjSXxmb4QASJwZgTmCAXWWYxo8HcaZ2YKzRMBIkAEnHMoAHPuryUa/J0G6UsEiAARuAICc4QC6yxGNPg7jSuwh00SASJwdwigAMy5v5Zo8Hcad0dVdpgIEIElIDBHKLAORYMvwpfAY/pABIjAhRBAAZhzT9GgaFyIqmyGCBCBJSAwRyiwDkWDorEEHtMHIkAELoQACsCce4oGReNCVGUzRIAILAGBOUKBdSgaFI0l8Jg+EAEicCEEUADm3C9GNN7e3tzLy4t7fHx8949P5gAhdQQM/iECRIAIrBmBufFR611LNB4eHtzT05N7fn52r6+vruHvNNZMU/aNCBCBpSCgwX/u9Vqiwd9pLIVB9IMIEIG7QmCuWGg9igbfadzVhGFnicC9I6DBf+6VokHRuPc5xP4TgbtCYK5YaD2KBkXjriYMO0sE7h0BDf5zrxQNisa9zyH2nwjcFQJWLLquK36xWktfjGjw/9O4K96ys0SACFwJgZJoWIGQZ5um9a4lGvz/NK5EGDZLBIjAfSOgwV+vKhAqEvZZy+l1MaLB32ncN5HZeyJABC6DgAZ/vKJQ6D3m4/21RIO/07gMP9gKESACRCBBAAUA71Us5Irp9p6iwRfhCaH4QASIwLoRsCKAz4cEQ8pSNCga654h7B0RIAIJAigSc+4pGhSNhFB8IAJEYN0IzBEKrEPRoGise4awd0SACCQIoADMuV+MaPB3Gsm48oEIEAEicBYE5ggF1rmWaPB3GmehA40SASJABMYRQAGYc78Y0VjK7zQEEP4lBuQAOUAO1DkwR2zeW2eRv9N4b6dYfz/6fTfxIT7kADkwlwMUDXgBPxdE1uMEJAfIgXvhAEWDosFdCTlADpADkzlA0SBZJpPlXlZS7Cd3DeRAnQMUDYoGRYMcIAfIgckcyERjCb/TiCq/27i2aVzTbtzulgd127mmaVy3Neod+pelz+mrYiV4+b+t2+z2bi/piJ8+Z+VNPfVBy+tzvG5dF+3iveljLG/Td27TBh/3eC/ltq5rOreNdSVf/Wtc0209wXebNvR1yGs3u5z8Af/iGGgbU8r4sta3tF/bbvClgT5gejLetXZr6RlWaftx7mi/jrracTilbdp639gsB79F/k5DwR2CggaX5QCnPk66hgCQBAuZzCFwZ+lHTfSAiQ3u0qYEdZtun/d7JzgXg636GMUB8Ec7eD/Vd6yD914wJPAOouF5EIRi74NmTYCHOsO4SJAHAQW7x5WRvout1LfBhuRXgq6OhccGy9R8q6UXFgFT8Z5SLhkHGOspdVkmX6ysFJNMNJbwO41+IoYJKv9zVdNkQW236fpdiOR127gTqaXvt0P5pmldtx1WpFinabt+hR4GfCxvms3WdV2/Is7EQSap7EC6wbc+eIeVdQzWisXWSZvFFbOd8PqsVyWwfZ4kGp3rdKXvg3fwz+8CP+Q+pHlRpGx5DbhDUEehGu7FrpSR/g5l08BcFjlZyWf4Sp+T/mLAhqA4pYwXhJJv4KvYKfg99K9vMz7X2q2l41j5MgPO7WYbd2MJh8LOM1kUBA6JMG82MheMX8oVf+3H2pc52OY+8tPvdo3Q9ztgnMvAIzPHBSMtrztLz4OK7zovknYTsYbxTvrHdDu/Dj1nx1OLEQ0Ijv3WHoKIz8PVYyBiLV3I7o+HeqHY1crt9863pcE61NMJV8pT8UlsBt918vb+F4JasC+TQo7feht9uX7SpH30EzfY1okeB9hPaDjGk3IxiEO6LYeBqDSZvI+60zMBEnHCe13Z13YFHme1KZgP931/oJ3Mp0JeoU8RF8EhBq9+fDPsppSJfhTa1zyPeRsXM7FdHQtfrg+Unhu1dmvpiBuOi72XsUhsoM9yr3jL/cDLZBy8TdlVaVndGYfnUpuSpjwIcylyNo4B+FLzMbED5f1iQv0B35PyZoy9n/2RYTbuOm68HrVLWqxoJAFayAXk7gMqiEgY9PH0njhx9RLt9eTr01vXdhu3lXcB3mY9L1kJhdWc+pj5YfyPAS0QeiBz314vNsOk8PZgMsb6SHaYHNqX0XcaUFfsqzBmtpMJCSt1TK/dVwVJ+qbjh/eIu+ZrmlylrAaNIV24UvU/CUwmoCgGU8po2QO7oP1uB7veYRWvCwe/y+0C3rV2a+nYdg1zTZer8jIGbLvzQjyGcajyTW0LFqV78VvbxB3OmC9aHn1U+5qnY45tWlGKZft5XuLDKE/i+A68yuYCy/i4uFDREALnQV5XbllQDoM5np4Hm4EUO7fbblzX6pYYy5bz+raw3EC2zI8wmQZxCGXDZBrS+34r4X2g6Tb+2EHTBp+H9nyamVCxnE23z9XADj5GwTqRaGBQxPs4KYcAlvRDg0csJz4WymJ+0l/w/9gysfyB9mK58jGa9EfG1Y95zbdaOmKFZWr34ovkhbmUtwm+oO2kHnC81o6mWxuAReQo+qL51kexkywqgg/aTqgXcRxr19rWNnk9ancR5+F+7xYpGqWA7AOoEsmTSrfVEGhr6YE48u5DOp8Edc0LX93IO4y4JZ+Sd9Dmrj/yijsbCPZK6BCU8XjKD1LoT/RHiJ700diKwR3Szerc992s6iStKkriY7QLQRfT7X0M7lJex2nwKU52DKDJJDaB2eNU2nmYFW9iQ9sTWxB0lENJ2Sll0F7FFxkbwFZw9YEa05O+1NotpyNuxZW+9CmMxUflnQD4InX7MQbbnhv9+CS2E2xgDO04Ky803fdNRWaoZzmnvtTSPcfVd893tVn2vRdGLTO06+2oj0mfdCx5RTGYer9I0fCfV9rBDsFSgxu+oJYjJf0kt5puXoT7o5tAJAnWuhrzxwfw2eYxeYnN+KJ+zotwJbNMEvPJccBh2J2EsjpxS5Mj1PFHBxbXuTuNEHD6z6HBT+/H8IJ2CFxSRoKtTGqc4HqvfZarlu3TJMgUjz2kr9I3DTCx72l9FVqxMeA2o4y3b+qN+KpclcmIfRh8GBYBqW+ldMRtEAfPexx7uMc2k8/WIx861/ldj7EdccQxmdYmYo3jUvOlnC4YhzEPH8JEzDLfg48xffgke2oQZDkzzrXxD+mLFA0OYhjEXT95MPgsHhsIWov39cDkWL//E8VikTjdsu/HBeml8TATjbe3N/fy8uIeHx9nn3ktrZO36I/fuvtdRuUoZJET2axGl+rjXfsFq3jzmevy58kt+37bQoHceHh4cE9PT+75+dm9vr66ZjGf3N71xF4PwZBsvOe4kgO3z4Fsp0HRuP1B5cTkGJID5MC5OEDR4I6Gx5DkADlADkzmAEWDZJlMlnOtXGiXq2Jy4HY4QNGgaFA0yAFygByYzAGKBskymSxcDd7OapBjxbE6Fwcy0VjU/6fBgM6ATg6QA+TAojiQ/dPoFA2uUM61QqFdcoscuH0OZKLBT25vf1A5MTmG5AA5cC4OZMdTFA2S7Vxko11yixy4fQ5QNHheuqjzUgaV2w8qHMN1jyFFg6JB0SAHyAFyYDIHKBoky2SycAW57hUkx5fjO4UDFA2KBkWDHCAHyIHJHMhEg5/ccrUxZbXBMuQJOXCfHMg+uaVo3CcRGAA47uQAOTCFA5lo8JNbEmcKcViGPCEH7pMD2fEUReM+icAAwHEnB8iBKRygaPAF2OQXYFMIxTIMPOTAujmwTNHYbVwr/z929vcE/1+2tz3PzrYLPrUbt7uE2FRxaN1mF4g51p9qfenHIQzS/49ZxqLd7MoCs+1c01ifSuMnaV/mvjwbVy0LNhJ8d27Taplw7bZlX5J6l5u88n+6e3wi5iV8FdNS3gl9jT4YzA6O+Ql9ODQO4uPCxpBiN238Fywa+cTyQfu9AdtPqNz2YcLIhK8FtWlgH27D2Kn56oN06EOtjEzasbyxSe3rNa7boj99wMuFow/oXde5phQExnwYywP//LgntoOIJGno66XvBRscj9a1rcVv7/Yybm3rWi0LfTyKG4dwq+SfZP6c0GfxJ+XYpceN7R3FuzD2NyUas4MgEr0yoQ6CN7cetn3sfbVNELBqmbmi0QfkXBwq9rR9vdo+1tKl3FhetAN9jWlT614mKMRdBvRpozsP8NkHyY3soucsWqAvh3Cr5dfSwceD82Bu2VLbXkQvtGuf6zfrZTv6TDQW8cltiWAyeFl6v/rtj7FwIkrga91mI8cm5jgDbOQr2L2TAJCtmH2dYavffWTj2rZznT8ywRWmlsEdSViJ+2ABvqDN2ooZfE0ms0w2rVMrU8QLAk9tMozZK9RBvATPTGzG7I3lxbam7ioqXJA24li17l9NAnYYG7+jmlIfOaZYBq7Z40LfLgZEsd+5re2zfy7xJuxMlL9xl4t+Is/Un9I8CXm27T3aMn1L/LI7gkq9YF8EU+ddzwcsjz5LOj5DH+L4My2Z+wvAJfvkdsmikQZ5nPAh2MejqxBoYoDoSesJjBMH7/1gpDaTwcKy/h4nUm8/brXx+GgffIm+hQmkz95WZeKEdnQC4jUGZ/TLEmqkfhQdW+eo1Z+Z9KW6B/0zwcr6458DZhpAVTBj2XTcvJAl+OpYpeX8IsSXS9Pr9QsBzPYvPotNGFcV+pgvtsZ4M4JtYmOCTwGn6fPH+JW0dxiryE2cB4kN9Tm1lcy3OLZaltel4JOJxiI+ufUE09XXcI1kFEJlJMRJlpMxroiTeqZckmdIinn+HgIC5nmyj/li2gyiEgUHJ0tmN/iE7dfKFDEyfcK29L4Q+H2w0YCNK8OsrAk2h3wY8139ya59G15AVTwyO4A/YrVPd5LCiWwh4dur188mLgZG099of793gqEfY/QV7227VlAQh6yeGVefP8wbXWxMnj/ZuIL9rO0RrLAs3kNfBJfEL8jLsGZedlR0DYyy46nliAasQMMkSAJrSNMJ0V81kNvArC8hN25nyBvFJASUKoGxHt4LkbNJhu3jvUy+Q89jE1Tz+sCZBSE7qayfNr/0PFoHAoTuoKKYQJDSYC72x+yN5ZV8wzRfN4y3v4f2vU+YZ7gUdxdYZmJ99EHu7dhjn+TetyW4BR8w39bNuNGPs3I88h9tWH/k2eb7Z91tBQ6FNLWN88fPCd2pWfsj9crtFvoNNikaOqdv53oboiEkkwmGq1w7MYCIeWCGFWZWTye0BHMVncIAYj28l3bts18lqq1DImHzoe3MruZB8K6WKfml9ceuvT9l8ZzQrvdH+37AhzHfdTz9uEPQ13QMsGN2CnnbrnWbrQb0d/po7SfPAa9aW0lZGRPAN/YzjBXikNUz41nKP2b+SNlR0SiNRwFH9APvoW8UDTN2gM01dhFT2rwd0Qhb/IHMJtgmpOzzhrIyGQvHA2GA/NGBvKiuTRQph/bx3tsA+/KMExyDmy9r/M7ygURZO31eshKslPGDP5bnfYG28NnXs8cGAdMg3IJZ7b1IEgjGfBjLi/7YsSxgYDFEu3ivNv34YP/MmGAdvNf6eLX55tnjhL9xSfJHeOPLgfgip2we+iP3SRvDGHtfIsdH+myPxpL2RurZdvE5saE+GVu2H3xexHGUFZKbEg19cTgEq37S4da672Ago/x2IByfxJUzEllJGYJI3P5rOl6xHt5rGZ+mRxww2W1AO/isE0onv9rEK6z0knaHMr6/lTzFZLS/wU8t66/x2Elwxz6Cz4JHFuDAX8VLriUcMR/uNfhGf2Lw07YrXCi2IWWtT8fU1zblagKfbc9jAVjZfP+s4wblpO+Bl32fMa9vU9KLY2jbiDiGPibjWGk78cu2MxGrxI+Sz2IH+4W48t4G66U8L1M0IsnnEsdM5EP2EnLPbZP1lkLqS/uBL7wv3fZNtyeimIk/59HSx5SiYb6oWfqA0b8lBhVZMdudyxL9XJZPsnss7pQOLfKYf9Vjq0w03t7e3MvLi3t8fLyqY+8LjhN3GnELzgn/PryXFYyu0RfuNo7kgMw97jJuMsY+PDy4p6cn9/z87F5fX12ziE9uuZK4STJdI1izzSODNecW59Y7OZDtNCganIQMxOQAOUAO1DhA0Xin6taAZTonHTlADqyRAxQNiga36+QAOUAOTOYARYNkmUyWNa6a2CfuBsiB4zhA0aBoUDTIAXKAHJjMgUw0FvFPo3MAJw8gV0nHrZKIF/EiB97HgeyfRqdovA9QEpL4kQPkwJo5kIkGP7kl4ddMePaN/CYH3seB7HiKovE+QElI4kcOkANr5gBFg+9P+P6EHCAHyIHJHKBokCyTybLm1RP7xt0BOTCNA4sUja/dfNjxLzEgB8gBcmCcA9cQusWKhuMfIkAEiMCKEXhvwBdBfa+NOfUz0VjCJ7cCBv8QASJABNaMwJyAjXWuJRrZJ7cUjTXTlH0jAkRgKQigAMy5X4xoLOGTW+40lkJr+kEEiMC5EJgjFFjnWqKRHU9RNM5FEdolAkSACAwIoADMuadowKev3GkMxOIdESAC60RgjlBgHYoGRWOdM4O9IgJEoIgACoC977ru4JdRFA2KRpFYTCQCRGCdCFih0GcRDP2raaUrRYOisc6ZwV4RASJQRKAkBCoWeC2Vk7TFiAY/uS2OLxOJABEgAidFwIqBFQr7bMtfSzT4O42T0oDGiAARIALTELAioCKB6aU0zV+MaPCT22kDzlJEgAgQgfcgoMFfryIQeo/XWvq1RIO/03jPqLMuESACRGAmAigMc+4pGnwRPpN6rEYEiMAtIjBHKLAORYOicYu8p89EgAjMRAAFYM49RYOiMZN6rEYEiMAtIjBHKLAORYOicYu8p89EgAjMRAAFYM49RYOiMZN6rEYEiMAtIvDJT37Szf0rIrMY0Xh7e3MvLy/u8fGx+PnXHEU8to6AwT9EgAgQgTUjMFcwpN41RePh4cE9PT255+dn9/r66hr+TmPNNGXfiAARWAoCtyoa/J3GUhhEP4gAEbgrBCga8E7i2OMoW57HU3c1d9hZInCXCFA0KBp3SXx2mggQgXkIUDQoGvOYw1pEgAjcJQIUDYrGXRKfnSYCRGAeAqsRDf5/GvMIwFpEgAgQgWMQuFXR4P+nccwosywRIAJE4EQIrEY0+DuNEzGCZogAESACIwjcqmjwdxojg8osIkAEiMC5EKBo8EX4ubhFu0SACKwQAYoGRWOFtGaXiAAROBcCFA2Kxrm4RbtEgAisEAGKBkVjhbRml4gAETgXAqsRDf5O41wUoV0iQASIwIDArYoGf6cxjCHviAARIAIXQ2A1osHfaVyMM2yICBCBO0bA/uvexz4v5n/uo2jcMYvZdSJABC6GwLEiYctTNOBFOv8/jYvxlg0RASJwJQSsCBz7TNGgaFyJumyWCBCBayBwrEjY8hQNisY1eMs2iQARuBICVgSOfaZoUDSuRF02SwSIwDUQOFYkbPnFiAZ/p3EN+rBNIkAE7g0BKwLHPl9LNPg7jXtjKvtLBIjAIhA4ViRs+cWIBj+5XQSf6AQRIAIrR8CKwLHP1xIN/n8aKycmu0cEiMAyEThWJGx5igZfhC+T2fSKCBCBsyBgReDYZ4oGReMsxKRRIkAElonAsSJhy1M0KBrLZDa9IgJE4CwIWBE49pmiQdE4CzFplAgQgWUicKxI2PIUDYrGMplNr4gAETgLAlYEjn1ejGi8vb25l5cX9/j46I7txKnKCxj8QwSIABFYMwLvjZfXEo2Hhwf39PTknp+f3evrq2v4O40105R9IwJEYCkI3Kpo8HcaS2EQ/SACROCuEKBowDuJU4BxV+xhZ4kAEbg7BE4RJ99rY0597jTujqrsMBEgAktAYE7AxjrXeqdB0VgCe+gDESACd4cACsCce4oGHG/x66m7mz/sMBG4OwTmCAXWWYxo8P/TuDvussNEgAhcAQEUgDn31xIN/n8aVyALmyQCRIAIzBEKrLMY0eDvNEhmIkAEiMD5EUABmHN/LdHgi/Dzc4MtEAEiQAQyBOYIBdahaPBFeEYqJhABIrBeBFAA5txTNCga650d7BkRIAIZAnOEAutQNCgaGamYQASIwHoRQAGYc0/RoGisd3awZ0SACGQIzBEKrLMY0eDvNLKxZQIRIAJE4OQIoADMub+WaPB3GienAg0SASJABA4jMEcosM5iRIO/0zg82CxBBIgAEXgvAigAc+6vJRr8ncZ7R571iQARIAIzELBC0XVd8X9LraVTNPgifAbtWIUIEIFbRaAkGlYg5NmmaT2KBkXjVrlPv4kAEZiBgAZ/vapAqEjYZy2nV4oGRWMG7ViFCBCBW0VAgz9eUSj0HvPxnqJB0bhV7tNvIkAEZiCAAoD3KhZyxXR7vxjR4O80Zow+qxABIkAEjkTAigA+HxIMKXst0eDvNI4caBYnAkSACJwCARSJOfeLEQ3+TuMUdKANIkAEiMA4AnOEAutcSzT4O43xcWUuESACROAsCKAAzLmnaPBF+FmISaNEgAgsE4E5QoF1KBoUjWUym14RASJwFgRQAObcUzSMaAgg/EsMyAFygByoc2CO2Ly3ziLfaby3U6y/H/2+m/gQH3KAHJjLAYoG7HDmgsh6nIDkADlwLxzIROPt7c29vLy4x8dHrlYpKOQAOUAOkAMJBx4eHtzT05N7fn52r6+vrlnC7zTuRbHZT65OyQFy4NY4kO00KBok8a2RmP6Ss+TA5TiwbNHYbVzbNK5pN273/7d3JTluxDCwX+X39CFAcswhf/BjfJofZEfWzo4kyIYgH/APFBQlSpRasntsYywP6jBwjxaKIktFUWrPXHKKuBndMAxu3BSODfOblR8818mtV4OMhfGGYeXWUxgz6ODLQ91VsK+0bfSDLtCz6oONG2O5fS7m2ZwP9FUd7TP6b9w4jG4T+xZzGzeSMk/rlZmvn8NqPWXptBCKmX/T3kvaiD6lbvl8N6O1ZZqDLc90aI3bKt+WtsrHP5pAo78P8anqckxflcHPo30Z18/pbNl10EiEoMRyuonfqDPC4s+IAs48adDwpJoRpowbSAvPgWhrc4ets74WbJFECvvbcvts++56tn3sswQMEG8iXMFC1N/PtW7P1CfNEyQfMIRxjNzrtcH8ISvXLclAfYPQYf8YYG2blm6t8l1BvPDPLtvvqlNf6Oeutq26Y/q2ZLJ8vhk6g006DhphceI/Vw3DjNCm9eizENSNm5iJtMq3m9QeO/Bxk3ajts+wGtPufLt1u+qWyVy5cfS74TrJDfKfuSSjivP0pJhIRm2xcRizmrVkpJTIYzMGsjw6aIxu1CxGyDvoKJngA/dA60CMQhhleyXcROo2UKVnyEUbzDm1zYkZfpkHOezkZzbGosoIzBJ2stOiNhIQaroZXTFWRe9S3/h7S7dWuWAyzF3aqJ2DrQI+JKMsgqxmmXFz0BpDygufNsnJ4KDEr2CjxEPbp6WP+bvBZ9P+N9+m36BhyNGn9QZsUmd3jiGotMqxCOR4yAeKqdVuu3Uylu4IQz9dZLU6DT6ZzKC77zd5mTuOp5AB4PjNy/DEB1KJx0tR/20zaEQSaoEr6KTEkQKSB93O/jK+ZnsFQVpb2Wfd2QvR1sk8BjSxu8rXRWDGmc2pUgcddfyyPeYeCdT7eBZclrSJcivjax3krFZxQxPHlXI9ZvVEK/hojdsqt7bK/FIGRzPPTJbRPbOZCaZarp86t9rnEtmlnjU5LOsii1gSqGdBo4f/pwHFM4IGMA3pekI1QSQAbne5PWf2z544sIi0buVW49pt9B4gHkWgPq/zY2m/9AmZMz0K/aNjZDFZQvW6+GDjn6O8FiGauWtwi/YL85J5ZotbiTl9QmfbP+oI+Rl5VMilbJO1r2cF+Z2FIbIwn7w+6enLywDj8dLUv5g7sOV9b+QuabNXtyBvmkzmi6zWlwumxSc++xR9W+O2ym0GVthZs9C4MdCdf8CZlJvgudevpfw4f2O3JbKXyKnJZlmXgaTL/6eRzo0TGVvAz0g5gGt3+ZxoEjFObtqs3bjSS1Xbtl7nx7Lt0kKa6QECMEEvjhsWnJKKzlvJT0hmXMvltpbFvuWCwhiVwBIJsiChUg50bo6RLfoTBQ2rj32O86oEErFXzeaVtlHOjqB33Tax/Z7xYrtWwDRZwBLb2nsSa6usb8hCbVAweoi/xX5+TQnmsv6YU7CtlutnKaf2+y7Z15FTk82yroLHLGj08MptjZD9Li0/t/VkC7Db4yndRZryAGjcfWDxZKSudeGNG9xhlMdCSqbVur0yFxxPBbK3x1OyyEEQYWdavgWVAo0GK3PkEReZt4G0tWQT67Vvm9wi2cSAtDBoKAE1jqdiMAtZ5Xw+0N1kk+In87udw15SgixDiFZulLOkjdqr0C3KmBM3sDazfzaX1sX4f4cAAAPJSURBVLj1cmu3PFMIwVHnaewueDfBBDIE01YPeTY2gr/32jWspZZsxcwCOYIza0c+dxUorH9mx1M9BA15bVQBp+AJBGoJPF4ej3pWDBCnC28cNemruiBkbR+DQpBd1o3mlc3r1EVizy7QD7kIt+RUvHIc7DAnWd/HB9eUocV2MQBV6uzlqtrbfmaL3gQNPb4TX4Hkgq7SXi9oB3OfoGRrZdhnnTc+tW19XgimigU5ljHE5QGe97dHN9EmxRiL2ohdCtmFHOuDqKMeudojQ7Wx8U3SLd1fpSy1sFXml2A7IyvepxRj24w06rqCv4qgkfnX+iZ/jjLU/9FGFg9pLVoC4nNuy0uwR5dB4xIMdyM6TiAnQ45KMr1/1sisd52pX7c72xtZa/T/Yv8zaHQKFn+Ehp1a40imU71lgTNoLF6AF0GI8GfIkPxxqWarITPpGYvU7eRYZNAgqE4OqosgQvqdficGDsIAgwaBcxBwGBgu7yyaPqPPToGBWdDo5Xsap5gcZXCREAPEADFwWgzMXrll0DitgQlY2pMYIAZuEwZmQaOHV25vk4E5FxIGMUAM3CYMzI6nGDQI8NsEcM6FeCYGTosBBg1ehPMinBggBoiBxRioBo0PHz64+/fvLxbCSH7aSE570p7EADHQKwZmQeP79++OQYOA7RWw1IvYJAbOiwEEjefPn7tpmtznz5/dwKBxXodwQdD+xAAx0DMGZkHjy5cv7u3btw4VPStO3biwiAFigBi4eQzgldsnT564169fy6nUgO9pMGjcvCMIftqcGCAGLgED/J4G35pgRkkMEAPEwGIMzC7C+T0N7nYuYbdDHYlTYuA8GEDQePHihXv//r3DydSAoPHp0ye+csudx+KdBxfveRYv7U67nwMDCBovX76U+4yvX7+64cePH/IaFb+nQUCeA5Ack7gjBvrGAIIGLsE/fvzovn375oafP386vEHFoNG347iw6B9igBg4BwYQNN68eSMnUviKxvDr1y+HlINBg4A8ByA5JnFHDPSNAQQNfLEP9xlIMoY/f/44RA8Gjb4dx4VF/xADxMA5MICggb8agqMpJBnDu3fv3KtXr9y9e/eqP3fv3nX4ObQe/e7cuXNwf45P+xN/XH/kn8P4+VT8+/jxY/lTIrjbGP79++eQbfz+/VsyDqQgeJsKr1chJcGtOV630k/8DZJnz565p0+fyrcEHz586PCDbwy2fq6urpp1+/ofWw+dOD7t38Lmsfja15/44/rrnX8ePXoknA5uV65HcMCXvvGDLAOnUcgy/v796/4D3CGPoZKNDB4AAAAASUVORK5CYII=;" vertex="1" parent="1">
          <mxGeometry x="1100" y="300" width="397" height="710" as="geometry" />
        </mxCell>
        <mxCell id="AZcHS8FLPlwrAeguX1iB-7" value="Screen when the User Chooses to Use this app in API Mode" style="text;html=1;align=center;verticalAlign=middle;whiteSpace=wrap;rounded=0;fontSize=18;fontStyle=1" vertex="1" parent="1">
          <mxGeometry x="1132.5" y="250" width="332" height="30" as="geometry" />
        </mxCell>
        <mxCell id="AZcHS8FLPlwrAeguX1iB-8" value="&lt;b&gt;Note:&lt;/b&gt; This app assumes that the BLE-capable server has a BLE GATT Characteristic which is dedicated to sending replies back (like an ACK signal or a reply string). That is the role of the BLE Server Write Characteristic UUID (because it will write a reply back to us)." style="text;html=1;align=center;verticalAlign=middle;whiteSpace=wrap;rounded=0;" vertex="1" parent="1">
          <mxGeometry x="1107.5" y="1028" width="380" height="60" as="geometry" />
        </mxCell>
      </root>
    </mxGraphModel>
  </diagram>
  <diagram name="Manual Workflow" id="n5HDwYYb-N4Obx8aIzvy">
    <mxGraphModel dx="1257" dy="767" grid="1" gridSize="10" guides="1" tooltips="1" connect="1" arrows="1" fold="1" page="1" pageScale="1" pageWidth="1169" pageHeight="827" math="0" shadow="0">
      <root>
        <mxCell id="0" />
        <mxCell id="1" parent="0" />
        <mxCell id="b-T0LnGMNMlS7ake3-13-1" style="edgeStyle=orthogonalEdgeStyle;rounded=0;orthogonalLoop=1;jettySize=auto;html=1;exitX=0.5;exitY=1;exitDx=0;exitDy=0;entryX=0.5;entryY=0;entryDx=0;entryDy=0;" parent="1" source="b-T0LnGMNMlS7ake3-13-3" target="b-T0LnGMNMlS7ake3-13-6" edge="1">
          <mxGeometry relative="1" as="geometry" />
        </mxCell>
        <mxCell id="b-T0LnGMNMlS7ake3-13-2" value="Opens Dialog&lt;div&gt;(BLE GATT Message Config)&lt;/div&gt;" style="edgeLabel;html=1;align=center;verticalAlign=middle;resizable=0;points=[];" parent="b-T0LnGMNMlS7ake3-13-1" vertex="1" connectable="0">
          <mxGeometry x="-0.0571" relative="1" as="geometry">
            <mxPoint as="offset" />
          </mxGeometry>
        </mxCell>
        <mxCell id="b-T0LnGMNMlS7ake3-13-3" value="BLE_Client&lt;div&gt;Init_Dialog&lt;/div&gt;" style="rounded=1;html=1;arcSize=11;fontSize=16;fontStyle=1;spacingLeft=6;spacingRight=6;whiteSpace=wrap;" parent="1" vertex="1">
          <mxGeometry x="250" y="160" width="130" height="90" as="geometry" />
        </mxCell>
        <mxCell id="b-T0LnGMNMlS7ake3-13-4" style="edgeStyle=orthogonalEdgeStyle;rounded=0;orthogonalLoop=1;jettySize=auto;html=1;exitX=1.004;exitY=0.348;exitDx=0;exitDy=0;entryX=-0.006;entryY=0.437;entryDx=0;entryDy=0;exitPerimeter=0;entryPerimeter=0;" parent="1" source="b-T0LnGMNMlS7ake3-13-25" target="b-T0LnGMNMlS7ake3-13-23" edge="1">
          <mxGeometry relative="1" as="geometry" />
        </mxCell>
        <mxCell id="b-T0LnGMNMlS7ake3-13-5" value="User Presses &quot;OK&quot;" style="edgeLabel;html=1;align=center;verticalAlign=middle;resizable=0;points=[];" parent="b-T0LnGMNMlS7ake3-13-4" vertex="1" connectable="0">
          <mxGeometry x="-0.3473" y="-2" relative="1" as="geometry">
            <mxPoint x="17" y="-2" as="offset" />
          </mxGeometry>
        </mxCell>
        <mxCell id="b-T0LnGMNMlS7ake3-13-6" value="BLE_Client_Main_GUI_Dialog&lt;div style=&quot;font-size: 11px;&quot;&gt;&lt;font style=&quot;font-size: 11px;&quot;&gt;&lt;br&gt;&lt;/font&gt;&lt;/div&gt;&lt;div style=&quot;text-align: left; font-size: 11px;&quot;&gt;&lt;span style=&quot;font-weight: normal;&quot;&gt;&lt;font style=&quot;font-size: 11px;&quot;&gt;Requires the relevant fields to be filled out correctly:&lt;/font&gt;&lt;/span&gt;&lt;/div&gt;&lt;div style=&quot;text-align: left; font-size: 11px;&quot;&gt;&lt;ul&gt;&lt;li&gt;&lt;span style=&quot;font-weight: normal;&quot;&gt;&lt;font style=&quot;font-size: 11px;&quot;&gt;BLE Server Device Name or MAC Address&lt;/font&gt;&lt;/span&gt;&lt;/li&gt;&lt;li&gt;&lt;span style=&quot;font-weight: normal;&quot;&gt;&lt;font style=&quot;font-size: 11px;&quot;&gt;BLE Server GATT Read Characteristic UUID&lt;/font&gt;&lt;/span&gt;&lt;/li&gt;&lt;li&gt;&lt;font style=&quot;font-size: 11px;&quot;&gt;&lt;span style=&quot;font-weight: 400;&quot;&gt;BLE Server GATT Write Characteristic UUID&lt;/span&gt;&lt;/font&gt;&lt;/li&gt;&lt;li&gt;&lt;span style=&quot;font-weight: 400;&quot;&gt;&lt;font style=&quot;font-size: 11px;&quot;&gt;Message to Send&lt;/font&gt;&lt;/span&gt;&lt;/li&gt;&lt;/ul&gt;&lt;div&gt;&lt;span style=&quot;font-weight: normal;&quot;&gt;When user presses &quot;OK&quot;, starts the process of sending msg.&lt;/span&gt;&lt;/div&gt;&lt;/div&gt;" style="rounded=1;whiteSpace=wrap;html=1;arcSize=3;fontSize=16;fontStyle=1;verticalAlign=top;spacingLeft=6;spacingRight=6;" parent="1" vertex="1">
          <mxGeometry x="160" y="335" width="310" height="225" as="geometry" />
        </mxCell>
        <mxCell id="b-T0LnGMNMlS7ake3-13-7" style="rounded=0;orthogonalLoop=1;jettySize=auto;html=1;entryX=-0.001;entryY=0.446;entryDx=0;entryDy=0;entryPerimeter=0;" parent="1" target="b-T0LnGMNMlS7ake3-13-3" edge="1">
          <mxGeometry relative="1" as="geometry">
            <mxPoint x="55" y="200" as="sourcePoint" />
            <mxPoint x="250" y="205" as="targetPoint" />
          </mxGeometry>
        </mxCell>
        <mxCell id="b-T0LnGMNMlS7ake3-13-8" value="Mouse Click" style="edgeLabel;html=1;align=center;verticalAlign=middle;resizable=0;points=[];" parent="b-T0LnGMNMlS7ake3-13-7" vertex="1" connectable="0">
          <mxGeometry x="-0.25" y="-4" relative="1" as="geometry">
            <mxPoint x="15" y="-4" as="offset" />
          </mxGeometry>
        </mxCell>
        <mxCell id="b-T0LnGMNMlS7ake3-13-9" value="PC User" style="shape=umlActor;verticalLabelPosition=bottom;verticalAlign=top;html=1;outlineConnect=0;" parent="1" vertex="1">
          <mxGeometry x="20" y="163" width="30" height="60" as="geometry" />
        </mxCell>
        <mxCell id="b-T0LnGMNMlS7ake3-13-10" value="PC User" style="shape=umlActor;verticalLabelPosition=bottom;verticalAlign=top;html=1;outlineConnect=0;" parent="1" vertex="1">
          <mxGeometry x="20" y="400" width="30" height="60" as="geometry" />
        </mxCell>
        <mxCell id="b-T0LnGMNMlS7ake3-13-11" style="edgeStyle=orthogonalEdgeStyle;rounded=0;orthogonalLoop=1;jettySize=auto;html=1;entryX=-0.001;entryY=0.543;entryDx=0;entryDy=0;entryPerimeter=0;" parent="1" source="b-T0LnGMNMlS7ake3-13-10" target="b-T0LnGMNMlS7ake3-13-25" edge="1">
          <mxGeometry relative="1" as="geometry" />
        </mxCell>
        <mxCell id="b-T0LnGMNMlS7ake3-13-12" value="Enters Text&amp;nbsp;&lt;div&gt;Fields&lt;/div&gt;" style="edgeLabel;html=1;align=center;verticalAlign=middle;resizable=0;points=[];" parent="b-T0LnGMNMlS7ake3-13-11" vertex="1" connectable="0">
          <mxGeometry x="-0.1636" y="4" relative="1" as="geometry">
            <mxPoint x="4" y="4" as="offset" />
          </mxGeometry>
        </mxCell>
        <mxCell id="b-T0LnGMNMlS7ake3-13-13" style="rounded=0;orthogonalLoop=1;jettySize=auto;html=1;exitX=0.998;exitY=0.222;exitDx=0;exitDy=0;entryX=0.005;entryY=0.477;entryDx=0;entryDy=0;entryPerimeter=0;exitPerimeter=0;" parent="1" source="b-T0LnGMNMlS7ake3-13-24" target="b-T0LnGMNMlS7ake3-13-16" edge="1">
          <mxGeometry relative="1" as="geometry" />
        </mxCell>
        <mxCell id="b-T0LnGMNMlS7ake3-13-14" value="function call&lt;div&gt;(main) func&lt;/div&gt;" style="edgeLabel;html=1;align=center;verticalAlign=middle;resizable=0;points=[];" parent="b-T0LnGMNMlS7ake3-13-13" vertex="1" connectable="0">
          <mxGeometry x="-0.1635" y="-2" relative="1" as="geometry">
            <mxPoint x="4" y="-2" as="offset" />
          </mxGeometry>
        </mxCell>
        <mxCell id="b-T0LnGMNMlS7ake3-13-15" value="GUI_Funcs&lt;div style=&quot;font-size: 11px;&quot;&gt;&lt;font style=&quot;font-size: 11px;&quot;&gt;&lt;br&gt;&lt;/font&gt;&lt;/div&gt;&lt;div style=&quot;text-align: justify; font-size: 11px;&quot;&gt;update_qt_text_str(s): &lt;span style=&quot;font-weight: normal;&quot;&gt;This function is called for each of the fields that has been updated by the user. It updates the global field value dictionaries.&lt;/span&gt;&lt;/div&gt;&lt;div style=&quot;text-align: justify; font-size: 11px;&quot;&gt;&lt;br&gt;&lt;/div&gt;&lt;div style=&quot;text-align: justify; font-size: 11px;&quot;&gt;main_screen_ok_button_clicked: &lt;span style=&quot;font-weight: normal;&quot;&gt;Check if the prepared message is ready to send, if its OK, then call the BLE Request Handler to send the msg to the BLE device.&lt;/span&gt;&lt;/div&gt;&lt;div style=&quot;text-align: justify; font-size: 11px;&quot;&gt;&lt;span style=&quot;font-weight: normal;&quot;&gt;&lt;br&gt;&lt;/span&gt;&lt;/div&gt;&lt;div style=&quot;text-align: justify; font-size: 11px;&quot;&gt;&lt;span style=&quot;font-weight: normal;&quot;&gt;Each field is checked by the (check_if_valid_field_value) function, if any field is invalid, an error is returned.&lt;/span&gt;&lt;/div&gt;" style="rounded=1;whiteSpace=wrap;html=1;arcSize=5;fontSize=16;fontStyle=1;verticalAlign=top;spacingLeft=7;spacingRight=7;" parent="1" vertex="1">
          <mxGeometry x="600" y="353" width="310" height="200" as="geometry" />
        </mxCell>
        <mxCell id="b-T0LnGMNMlS7ake3-13-16" value="BLE Request Handler&amp;nbsp;&lt;div style=&quot;font-size: 10px;&quot;&gt;&lt;font style=&quot;font-size: 10px;&quot;&gt;&lt;br&gt;&lt;/font&gt;&lt;/div&gt;&lt;div style=&quot;font-size: 11px;&quot;&gt;&lt;font style=&quot;font-size: 11px;&quot;&gt;find_ble_device: &lt;span style=&quot;font-weight: normal;&quot;&gt;Attempts to find the selected BLE device using either MAC or Device Name.&lt;/span&gt;&lt;/font&gt;&lt;/div&gt;&lt;div style=&quot;font-size: 11px;&quot;&gt;&lt;font style=&quot;font-size: 11px;&quot;&gt;&lt;span style=&quot;font-weight: normal;&quot;&gt;&lt;br&gt;&lt;/span&gt;&lt;/font&gt;&lt;/div&gt;&lt;div style=&quot;font-size: 11px;&quot;&gt;&lt;font style=&quot;font-size: 11px;&quot;&gt;send_ble_msg:&lt;span style=&quot;font-weight: normal;&quot;&gt; Attempts to send a message to the respective BLE GATT characteristics&lt;/span&gt;&lt;/font&gt;&lt;/div&gt;" style="rounded=1;whiteSpace=wrap;html=1;arcSize=5;fontSize=16;fontStyle=1;verticalAlign=top;spacingLeft=7;spacingRight=7;" parent="1" vertex="1">
          <mxGeometry x="1020" y="350" width="120" height="230" as="geometry" />
        </mxCell>
        <mxCell id="b-T0LnGMNMlS7ake3-13-17" style="rounded=0;orthogonalLoop=1;jettySize=auto;html=1;exitX=1;exitY=0.5;exitDx=0;exitDy=0;entryX=0;entryY=0.245;entryDx=0;entryDy=0;entryPerimeter=0;endArrow=none;endFill=0;startArrow=classic;startFill=1;" parent="1" edge="1">
          <mxGeometry relative="1" as="geometry">
            <mxPoint x="910" y="509" as="sourcePoint" />
            <mxPoint x="1020" y="509" as="targetPoint" />
          </mxGeometry>
        </mxCell>
        <mxCell id="b-T0LnGMNMlS7ake3-13-18" value="reply_str" style="edgeLabel;html=1;align=center;verticalAlign=middle;resizable=0;points=[];" parent="b-T0LnGMNMlS7ake3-13-17" vertex="1" connectable="0">
          <mxGeometry x="-0.1635" y="-2" relative="1" as="geometry">
            <mxPoint x="4" y="-2" as="offset" />
          </mxGeometry>
        </mxCell>
        <mxCell id="b-T0LnGMNMlS7ake3-13-19" style="rounded=0;orthogonalLoop=1;jettySize=auto;html=1;exitX=1;exitY=0.385;exitDx=0;exitDy=0;entryX=0;entryY=0.245;entryDx=0;entryDy=0;entryPerimeter=0;endArrow=none;endFill=0;startArrow=classic;startFill=1;exitPerimeter=0;" parent="1" source="b-T0LnGMNMlS7ake3-13-29" edge="1">
          <mxGeometry relative="1" as="geometry">
            <mxPoint x="490" y="510" as="sourcePoint" />
            <mxPoint x="600" y="510" as="targetPoint" />
          </mxGeometry>
        </mxCell>
        <mxCell id="b-T0LnGMNMlS7ake3-13-20" value="reply_str" style="edgeLabel;html=1;align=center;verticalAlign=middle;resizable=0;points=[];" parent="b-T0LnGMNMlS7ake3-13-19" vertex="1" connectable="0">
          <mxGeometry x="-0.1635" y="-2" relative="1" as="geometry">
            <mxPoint x="4" y="-2" as="offset" />
          </mxGeometry>
        </mxCell>
        <mxCell id="b-T0LnGMNMlS7ake3-13-21" style="edgeStyle=orthogonalEdgeStyle;rounded=0;orthogonalLoop=1;jettySize=auto;html=1;exitX=1;exitY=0.5;exitDx=0;exitDy=0;entryX=1;entryY=0.5;entryDx=0;entryDy=0;strokeColor=#2119FF;" parent="1" source="b-T0LnGMNMlS7ake3-13-23" target="b-T0LnGMNMlS7ake3-13-26" edge="1">
          <mxGeometry relative="1" as="geometry" />
        </mxCell>
        <mxCell id="b-T0LnGMNMlS7ake3-13-22" value="Values Updated" style="edgeLabel;html=1;align=center;verticalAlign=middle;resizable=0;points=[];" parent="b-T0LnGMNMlS7ake3-13-21" vertex="1" connectable="0">
          <mxGeometry x="0.6066" y="1" relative="1" as="geometry">
            <mxPoint x="6" y="-1" as="offset" />
          </mxGeometry>
        </mxCell>
        <mxCell id="b-T0LnGMNMlS7ake3-13-23" value="" style="rounded=1;whiteSpace=wrap;html=1;fillColor=none;strokeColor=#2119FF;" parent="1" vertex="1">
          <mxGeometry x="600" y="387" width="310" height="50" as="geometry" />
        </mxCell>
        <mxCell id="b-T0LnGMNMlS7ake3-13-24" value="" style="rounded=1;whiteSpace=wrap;html=1;fillColor=none;strokeColor=#FF8000;arcSize=10;" parent="1" vertex="1">
          <mxGeometry x="600" y="440" width="310" height="90" as="geometry" />
        </mxCell>
        <mxCell id="b-T0LnGMNMlS7ake3-13-25" value="" style="rounded=1;whiteSpace=wrap;html=1;fillColor=none;strokeColor=#2119FF;arcSize=11;" parent="1" vertex="1">
          <mxGeometry x="160" y="370" width="310" height="110" as="geometry" />
        </mxCell>
        <mxCell id="b-T0LnGMNMlS7ake3-13-26" value="Field Format Funcs&lt;div style=&quot;font-size: 11px;&quot;&gt;&lt;font style=&quot;font-size: 11px;&quot;&gt;&lt;br&gt;&lt;/font&gt;&lt;/div&gt;&lt;div style=&quot;text-align: justify; font-size: 11px;&quot;&gt;&lt;span style=&quot;font-weight: normal;&quot;&gt;Defines the values of the global [&lt;/span&gt;ble_msg_fields_dict&lt;span style=&quot;font-weight: normal;&quot;&gt;] dictionary that can be updated/accessed from multiple parts of the application.&lt;/span&gt;&lt;/div&gt;" style="rounded=1;whiteSpace=wrap;html=1;arcSize=5;fontSize=16;fontStyle=1;verticalAlign=top;spacingLeft=7;spacingRight=7;" parent="1" vertex="1">
          <mxGeometry x="600" y="220" width="220" height="95" as="geometry" />
        </mxCell>
        <mxCell id="b-T0LnGMNMlS7ake3-13-27" style="edgeStyle=orthogonalEdgeStyle;rounded=0;orthogonalLoop=1;jettySize=auto;html=1;exitX=0.5;exitY=1;exitDx=0;exitDy=0;entryX=0.5;entryY=0;entryDx=0;entryDy=0;" parent="1" source="b-T0LnGMNMlS7ake3-13-29" target="b-T0LnGMNMlS7ake3-13-30" edge="1">
          <mxGeometry relative="1" as="geometry" />
        </mxCell>
        <mxCell id="b-T0LnGMNMlS7ake3-13-28" value="Opens Dialog&lt;div&gt;(automatically)&lt;/div&gt;" style="edgeLabel;html=1;align=center;verticalAlign=middle;resizable=0;points=[];" parent="b-T0LnGMNMlS7ake3-13-27" vertex="1" connectable="0">
          <mxGeometry x="-0.0694" relative="1" as="geometry">
            <mxPoint as="offset" />
          </mxGeometry>
        </mxCell>
        <mxCell id="b-T0LnGMNMlS7ake3-13-29" value="Once the (reply_str) is received, we open the &lt;b&gt;Received Message GUI Dialog&lt;/b&gt;." style="rounded=1;whiteSpace=wrap;html=1;fillColor=none;strokeColor=#FF8000;arcSize=11;" parent="1" vertex="1">
          <mxGeometry x="160" y="485" width="310" height="65" as="geometry" />
        </mxCell>
        <mxCell id="b-T0LnGMNMlS7ake3-13-30" value="&lt;div style=&quot;&quot;&gt;&lt;font style=&quot;font-size: 16px;&quot;&gt;Received_MSG_GUI_Dialog&lt;/font&gt;&lt;/div&gt;&lt;div style=&quot;text-align: left; font-size: 11px;&quot;&gt;&lt;span style=&quot;font-weight: normal;&quot;&gt;&lt;font style=&quot;font-size: 11px;&quot;&gt;&lt;br&gt;&lt;/font&gt;&lt;/span&gt;&lt;/div&gt;&lt;div style=&quot;text-align: left; font-size: 11px;&quot;&gt;&lt;span style=&quot;font-weight: 400;&quot;&gt;Displays the reply_str variable in a separate Qt5 Dialog.&lt;/span&gt;&lt;/div&gt;" style="rounded=1;whiteSpace=wrap;html=1;arcSize=14;fontSize=16;fontStyle=1;verticalAlign=top;spacingLeft=6;spacingRight=6;" parent="1" vertex="1">
          <mxGeometry x="160" y="620" width="310" height="70" as="geometry" />
        </mxCell>
        <mxCell id="b-T0LnGMNMlS7ake3-13-31" value="&lt;font style=&quot;font-size: 18px;&quot;&gt;Manually Configuring a BLE GATT message&lt;/font&gt;" style="text;html=1;align=center;verticalAlign=middle;whiteSpace=wrap;rounded=0;fontStyle=5" parent="1" vertex="1">
          <mxGeometry x="375" y="90" width="420" height="30" as="geometry" />
        </mxCell>
      </root>
    </mxGraphModel>
  </diagram>
  <diagram id="5H21tnFdyMlSl0WOOKPF" name="RESTful API Workflow">
    <mxGraphModel dx="1257" dy="767" grid="1" gridSize="10" guides="1" tooltips="1" connect="1" arrows="1" fold="1" page="1" pageScale="1" pageWidth="1169" pageHeight="827" math="0" shadow="0">
      <root>
        <mxCell id="0" />
        <mxCell id="1" parent="0" />
        <mxCell id="8XCBuqOnwlnn9YZGMq6w-1" style="edgeStyle=orthogonalEdgeStyle;rounded=0;orthogonalLoop=1;jettySize=auto;html=1;exitX=0.5;exitY=1;exitDx=0;exitDy=0;entryX=0.5;entryY=0;entryDx=0;entryDy=0;" parent="1" source="8XCBuqOnwlnn9YZGMq6w-3" target="8XCBuqOnwlnn9YZGMq6w-4" edge="1">
          <mxGeometry relative="1" as="geometry" />
        </mxCell>
        <mxCell id="8XCBuqOnwlnn9YZGMq6w-2" value="Opens Dialog&lt;div&gt;(BLE Client API Server)&lt;/div&gt;" style="edgeLabel;html=1;align=center;verticalAlign=middle;resizable=0;points=[];" parent="8XCBuqOnwlnn9YZGMq6w-1" vertex="1" connectable="0">
          <mxGeometry x="-0.0571" relative="1" as="geometry">
            <mxPoint as="offset" />
          </mxGeometry>
        </mxCell>
        <mxCell id="8XCBuqOnwlnn9YZGMq6w-3" value="BLE_Client&lt;div&gt;Init_Dialog&lt;/div&gt;" style="rounded=1;html=1;arcSize=11;fontSize=16;fontStyle=1;spacingLeft=6;spacingRight=6;whiteSpace=wrap;" parent="1" vertex="1">
          <mxGeometry x="206" y="120" width="130" height="90" as="geometry" />
        </mxCell>
        <mxCell id="8XCBuqOnwlnn9YZGMq6w-4" value="API_Viewer_Dialog&lt;div style=&quot;font-size: 11px;&quot;&gt;&lt;font style=&quot;font-size: 11px;&quot;&gt;&lt;br&gt;&lt;/font&gt;&lt;/div&gt;&lt;div style=&quot;text-align: left; font-size: 11px;&quot;&gt;&lt;span style=&quot;font-weight: normal; background-color: initial;&quot;&gt;Starts a Flask server on localhost:5900. The server runs as a parallel QThread to the rest of the GUI.&lt;/span&gt;&lt;br&gt;&lt;/div&gt;&lt;div style=&quot;text-align: left; font-size: 11px;&quot;&gt;&lt;br&gt;&lt;/div&gt;&lt;div style=&quot;text-align: left; font-size: 11px;&quot;&gt;&lt;span style=&quot;font-weight: normal;&quot;&gt;&lt;br&gt;&lt;/span&gt;&lt;/div&gt;&lt;div style=&quot;text-align: left; font-size: 11px;&quot;&gt;&lt;span style=&quot;font-weight: normal;&quot;&gt;The &lt;/span&gt;update_field_values&lt;span style=&quot;font-weight: normal;&quot;&gt; function runs periodically every second (within the GUI). This function updates the QText with the values of the global field dictionaries.&lt;/span&gt;&lt;/div&gt;&lt;div style=&quot;text-align: left; font-size: 11px;&quot;&gt;&lt;span style=&quot;font-weight: normal;&quot;&gt;&lt;br&gt;&lt;/span&gt;&lt;/div&gt;&lt;div style=&quot;text-align: left; font-size: 11px;&quot;&gt;&lt;br&gt;&lt;/div&gt;" style="rounded=1;whiteSpace=wrap;html=1;arcSize=3;fontSize=16;fontStyle=1;verticalAlign=top;spacingLeft=6;spacingRight=6;" parent="1" vertex="1">
          <mxGeometry x="116" y="295" width="310" height="155" as="geometry" />
        </mxCell>
        <mxCell id="8XCBuqOnwlnn9YZGMq6w-5" style="rounded=0;orthogonalLoop=1;jettySize=auto;html=1;entryX=-0.001;entryY=0.446;entryDx=0;entryDy=0;entryPerimeter=0;" parent="1" target="8XCBuqOnwlnn9YZGMq6w-3" edge="1">
          <mxGeometry relative="1" as="geometry">
            <mxPoint x="90" y="160" as="sourcePoint" />
            <mxPoint x="206" y="165" as="targetPoint" />
          </mxGeometry>
        </mxCell>
        <mxCell id="8XCBuqOnwlnn9YZGMq6w-6" value="Mouse Click" style="edgeLabel;html=1;align=center;verticalAlign=middle;resizable=0;points=[];" parent="8XCBuqOnwlnn9YZGMq6w-5" vertex="1" connectable="0">
          <mxGeometry x="-0.25" y="-4" relative="1" as="geometry">
            <mxPoint x="15" y="-4" as="offset" />
          </mxGeometry>
        </mxCell>
        <mxCell id="8XCBuqOnwlnn9YZGMq6w-7" value="PC User" style="shape=umlActor;verticalLabelPosition=bottom;verticalAlign=top;html=1;outlineConnect=0;" parent="1" vertex="1">
          <mxGeometry x="50" y="129" width="30" height="60" as="geometry" />
        </mxCell>
        <mxCell id="8XCBuqOnwlnn9YZGMq6w-8" style="rounded=0;orthogonalLoop=1;jettySize=auto;html=1;exitX=1;exitY=0.5;exitDx=0;exitDy=0;" parent="1" edge="1">
          <mxGeometry relative="1" as="geometry">
            <mxPoint x="801" y="432.5" as="sourcePoint" />
            <mxPoint x="890" y="433" as="targetPoint" />
          </mxGeometry>
        </mxCell>
        <mxCell id="8XCBuqOnwlnn9YZGMq6w-9" value="&lt;font style=&quot;font-size: 10px;&quot;&gt;function call&lt;/font&gt;&lt;div style=&quot;font-size: 10px;&quot;&gt;&lt;font style=&quot;font-size: 10px;&quot;&gt;(main) func&lt;/font&gt;&lt;/div&gt;" style="edgeLabel;html=1;align=center;verticalAlign=middle;resizable=0;points=[];" parent="8XCBuqOnwlnn9YZGMq6w-8" vertex="1" connectable="0">
          <mxGeometry x="-0.1635" y="-2" relative="1" as="geometry">
            <mxPoint x="4" y="-2" as="offset" />
          </mxGeometry>
        </mxCell>
        <mxCell id="8XCBuqOnwlnn9YZGMq6w-10" style="edgeStyle=orthogonalEdgeStyle;rounded=0;orthogonalLoop=1;jettySize=auto;html=1;exitX=1;exitY=0.75;exitDx=0;exitDy=0;" parent="1" source="8XCBuqOnwlnn9YZGMq6w-12" edge="1">
          <mxGeometry relative="1" as="geometry">
            <mxPoint x="1140" y="491" as="targetPoint" />
          </mxGeometry>
        </mxCell>
        <mxCell id="8XCBuqOnwlnn9YZGMq6w-11" value="BLE&amp;nbsp;&lt;div&gt;Message&lt;/div&gt;" style="edgeLabel;html=1;align=center;verticalAlign=middle;resizable=0;points=[];" parent="8XCBuqOnwlnn9YZGMq6w-10" vertex="1" connectable="0">
          <mxGeometry x="-0.0102" y="1" relative="1" as="geometry">
            <mxPoint x="3" y="-21" as="offset" />
          </mxGeometry>
        </mxCell>
        <mxCell id="8XCBuqOnwlnn9YZGMq6w-12" value="BLE Request Handler&amp;nbsp;&lt;div style=&quot;font-size: 10px;&quot;&gt;&lt;font style=&quot;font-size: 10px;&quot;&gt;&lt;br&gt;&lt;/font&gt;&lt;/div&gt;&lt;div style=&quot;font-size: 11px;&quot;&gt;&lt;font style=&quot;font-size: 11px;&quot;&gt;find_ble_device: &lt;span style=&quot;font-weight: normal;&quot;&gt;Attempts to find the selected BLE device using either MAC or Device Name.&lt;/span&gt;&lt;/font&gt;&lt;/div&gt;&lt;div style=&quot;font-size: 11px;&quot;&gt;&lt;font style=&quot;font-size: 11px;&quot;&gt;&lt;span style=&quot;font-weight: normal;&quot;&gt;&lt;br&gt;&lt;/span&gt;&lt;/font&gt;&lt;/div&gt;&lt;div style=&quot;font-size: 11px;&quot;&gt;&lt;font style=&quot;font-size: 11px;&quot;&gt;send_ble_msg:&lt;span style=&quot;font-weight: normal;&quot;&gt; Attempts to send a message to the respective BLE GATT characteristics&lt;/span&gt;&lt;/font&gt;&lt;/div&gt;" style="rounded=1;whiteSpace=wrap;html=1;arcSize=5;fontSize=16;fontStyle=1;verticalAlign=top;spacingLeft=7;spacingRight=7;" parent="1" vertex="1">
          <mxGeometry x="891" y="386" width="200" height="140" as="geometry" />
        </mxCell>
        <mxCell id="8XCBuqOnwlnn9YZGMq6w-13" style="rounded=0;orthogonalLoop=1;jettySize=auto;html=1;exitX=1;exitY=0.75;exitDx=0;exitDy=0;entryX=0;entryY=0.245;entryDx=0;entryDy=0;entryPerimeter=0;endArrow=none;endFill=0;startArrow=classic;startFill=1;" parent="1" edge="1">
          <mxGeometry relative="1" as="geometry">
            <mxPoint x="802" y="467.25" as="sourcePoint" />
            <mxPoint x="891" y="468" as="targetPoint" />
          </mxGeometry>
        </mxCell>
        <mxCell id="8XCBuqOnwlnn9YZGMq6w-14" value="reply_str" style="edgeLabel;html=1;align=center;verticalAlign=middle;resizable=0;points=[];" parent="8XCBuqOnwlnn9YZGMq6w-13" vertex="1" connectable="0">
          <mxGeometry x="-0.1635" y="-2" relative="1" as="geometry">
            <mxPoint x="12" y="-2" as="offset" />
          </mxGeometry>
        </mxCell>
        <mxCell id="8XCBuqOnwlnn9YZGMq6w-15" value="Field Format Funcs&lt;div style=&quot;font-size: 11px;&quot;&gt;&lt;font style=&quot;font-size: 11px;&quot;&gt;&lt;br&gt;&lt;/font&gt;&lt;/div&gt;&lt;div style=&quot;text-align: justify; font-size: 11px;&quot;&gt;&lt;span style=&quot;font-weight: normal;&quot;&gt;Defines the values of the global [&lt;/span&gt;ble_msg_fields_dict&lt;span style=&quot;font-weight: normal;&quot;&gt;] dictionary that can be updated/accessed from multiple parts of the application.&lt;/span&gt;&lt;/div&gt;" style="rounded=1;whiteSpace=wrap;html=1;arcSize=5;fontSize=16;fontStyle=1;verticalAlign=top;spacingLeft=7;spacingRight=7;" parent="1" vertex="1">
          <mxGeometry x="871" y="280" width="220" height="95" as="geometry" />
        </mxCell>
        <mxCell id="8XCBuqOnwlnn9YZGMq6w-16" value="Access_API_Functions&lt;div style=&quot;font-size: 11px;&quot;&gt;&lt;font style=&quot;font-size: 11px;&quot;&gt;&lt;br&gt;&lt;/font&gt;&lt;/div&gt;&lt;div style=&quot;text-align: justify; font-size: 11px;&quot;&gt;&lt;span style=&quot;font-weight: 400;&quot;&gt;This file defines the API calls which are supported by the Flask server.&lt;/span&gt;&lt;/div&gt;&lt;div style=&quot;text-align: justify; font-size: 11px;&quot;&gt;&lt;span style=&quot;font-weight: 400;&quot;&gt;&lt;br&gt;&lt;/span&gt;&lt;/div&gt;&lt;div style=&quot;text-align: justify; font-size: 11px;&quot;&gt;&lt;span style=&quot;font-weight: 400;&quot;&gt;This server lets users add and retrieve data using HTTP requests (RESTful APIs). Every time a value is updated, the global dicitonary is updated.&lt;/span&gt;&lt;span style=&quot;font-weight: 400;&quot;&gt;&lt;br&gt;&lt;/span&gt;&lt;/div&gt;&lt;div style=&quot;text-align: justify; font-size: 11px;&quot;&gt;&lt;span style=&quot;font-weight: 400;&quot;&gt;&lt;br&gt;&lt;/span&gt;&lt;/div&gt;&lt;div style=&quot;text-align: justify; font-size: 11px;&quot;&gt;&lt;span style=&quot;font-weight: 400;&quot;&gt;Once the user sends the request to send the message, we check if each of the field values in the global dictionary has valid data (using the&amp;nbsp;&lt;/span&gt;&lt;span style=&quot;background-color: initial;&quot;&gt;check_if_valid_field_value function&lt;/span&gt;&lt;span style=&quot;font-weight: 400; background-color: initial;&quot;&gt;)&amp;nbsp;&lt;/span&gt;&lt;span style=&quot;font-weight: 400; background-color: initial;&quot;&gt;to determine if we send the message or not.&lt;/span&gt;&lt;/div&gt;&lt;div style=&quot;text-align: justify; font-size: 11px;&quot;&gt;&lt;span style=&quot;font-weight: 400; background-color: initial;&quot;&gt;&lt;br&gt;&lt;/span&gt;&lt;/div&gt;&lt;div style=&quot;text-align: justify; font-size: 11px;&quot;&gt;&lt;span style=&quot;font-weight: 400; background-color: initial;&quot;&gt;If all fields are correctly formatted, the mesage is sent over BLE GATT. Once the (reply_str) is returned, the global dictionary for the results is updated and displayed.&lt;/span&gt;&lt;/div&gt;" style="rounded=1;whiteSpace=wrap;html=1;arcSize=3;fontSize=16;fontStyle=1;verticalAlign=top;spacingLeft=6;spacingRight=6;" parent="1" vertex="1">
          <mxGeometry x="501" y="255" width="300" height="245" as="geometry" />
        </mxCell>
        <mxCell id="8XCBuqOnwlnn9YZGMq6w-17" style="rounded=0;orthogonalLoop=1;jettySize=auto;html=1;exitX=1;exitY=0.5;exitDx=0;exitDy=0;" parent="1" source="8XCBuqOnwlnn9YZGMq6w-19" edge="1">
          <mxGeometry relative="1" as="geometry">
            <mxPoint x="501" y="350" as="targetPoint" />
          </mxGeometry>
        </mxCell>
        <mxCell id="8XCBuqOnwlnn9YZGMq6w-18" value="&lt;font style=&quot;font-size: 10px;&quot;&gt;Starts&lt;/font&gt;&lt;div style=&quot;font-size: 10px;&quot;&gt;&lt;font style=&quot;font-size: 10px;&quot;&gt;QThread&lt;/font&gt;&lt;/div&gt;" style="edgeLabel;html=1;align=center;verticalAlign=middle;resizable=0;points=[];" parent="8XCBuqOnwlnn9YZGMq6w-17" vertex="1" connectable="0">
          <mxGeometry x="-0.0979" y="1" relative="1" as="geometry">
            <mxPoint as="offset" />
          </mxGeometry>
        </mxCell>
        <mxCell id="8XCBuqOnwlnn9YZGMq6w-19" value="" style="rounded=1;whiteSpace=wrap;html=1;fillColor=none;strokeColor=#2119FF;" parent="1" vertex="1">
          <mxGeometry x="116" y="330" width="310" height="40" as="geometry" />
        </mxCell>
        <mxCell id="8XCBuqOnwlnn9YZGMq6w-20" style="edgeStyle=orthogonalEdgeStyle;rounded=0;orthogonalLoop=1;jettySize=auto;html=1;exitX=1;exitY=0.5;exitDx=0;exitDy=0;strokeColor=#FF8000;entryX=-0.005;entryY=0.682;entryDx=0;entryDy=0;entryPerimeter=0;" parent="1" target="8XCBuqOnwlnn9YZGMq6w-15" edge="1">
          <mxGeometry relative="1" as="geometry">
            <mxPoint x="801" y="345" as="sourcePoint" />
          </mxGeometry>
        </mxCell>
        <mxCell id="8XCBuqOnwlnn9YZGMq6w-21" value="&lt;font style=&quot;font-size: 10px;&quot;&gt;Values&lt;/font&gt;&lt;div style=&quot;font-size: 10px;&quot;&gt;&lt;font style=&quot;font-size: 10px;&quot;&gt;Updated&lt;/font&gt;&lt;/div&gt;" style="edgeLabel;html=1;align=center;verticalAlign=middle;resizable=0;points=[];" parent="8XCBuqOnwlnn9YZGMq6w-20" vertex="1" connectable="0">
          <mxGeometry x="-0.1722" y="1" relative="1" as="geometry">
            <mxPoint as="offset" />
          </mxGeometry>
        </mxCell>
        <mxCell id="8XCBuqOnwlnn9YZGMq6w-22" value="" style="rounded=1;whiteSpace=wrap;html=1;fillColor=none;strokeColor=#FF8000;arcSize=10;" parent="1" vertex="1">
          <mxGeometry x="501" y="328" width="300" height="50" as="geometry" />
        </mxCell>
        <mxCell id="8XCBuqOnwlnn9YZGMq6w-23" value="" style="edgeStyle=orthogonalEdgeStyle;rounded=0;orthogonalLoop=1;jettySize=auto;html=1;exitX=0.5;exitY=1;exitDx=0;exitDy=0;entryX=0.5;entryY=0;entryDx=0;entryDy=0;" parent="1" source="8XCBuqOnwlnn9YZGMq6w-25" target="8XCBuqOnwlnn9YZGMq6w-16" edge="1">
          <mxGeometry relative="1" as="geometry">
            <mxPoint x="721" y="510" as="targetPoint" />
          </mxGeometry>
        </mxCell>
        <mxCell id="8XCBuqOnwlnn9YZGMq6w-24" value="HTTP Requests" style="edgeLabel;html=1;align=center;verticalAlign=middle;resizable=0;points=[];" parent="8XCBuqOnwlnn9YZGMq6w-23" vertex="1" connectable="0">
          <mxGeometry x="-0.3684" relative="1" as="geometry">
            <mxPoint as="offset" />
          </mxGeometry>
        </mxCell>
        <mxCell id="8XCBuqOnwlnn9YZGMq6w-25" value="&lt;div&gt;&lt;font style=&quot;font-size: 16px;&quot;&gt;&lt;b&gt;External&lt;/b&gt;&lt;/font&gt;&lt;/div&gt;&lt;font style=&quot;font-size: 16px;&quot;&gt;&lt;b&gt;Applications&lt;/b&gt;&lt;/font&gt;" style="shape=process;whiteSpace=wrap;html=1;backgroundOutline=1;" parent="1" vertex="1">
          <mxGeometry x="581" y="131" width="140" height="60" as="geometry" />
        </mxCell>
        <mxCell id="8XCBuqOnwlnn9YZGMq6w-26" value="" style="rounded=1;whiteSpace=wrap;html=1;fillColor=none;strokeColor=#00CC00;arcSize=4;" parent="1" vertex="1">
          <mxGeometry x="501" y="383" width="300" height="115" as="geometry" />
        </mxCell>
        <mxCell id="8XCBuqOnwlnn9YZGMq6w-27" value="&lt;font style=&quot;font-size: 18px;&quot;&gt;Starting RESTful server to configure BLE GATT message through API calls&lt;/font&gt;" style="text;html=1;align=center;verticalAlign=middle;whiteSpace=wrap;rounded=0;fontStyle=5" parent="1" vertex="1">
          <mxGeometry x="390" y="50" width="420" height="30" as="geometry" />
        </mxCell>
        <mxCell id="VzVbL2zUcFuZADIkYSwg-1" value="&lt;b&gt;RESTful API Requests&lt;/b&gt;&lt;div&gt;&lt;br&gt;&lt;div&gt;&lt;font style=&quot;font-size: 11px;&quot;&gt;The following HTTP requests show examples on how to configure the necessary parameters to communicate with a BLE Server using BLE GATT.&lt;/font&gt;&lt;/div&gt;&lt;/div&gt;&lt;div&gt;&lt;font style=&quot;font-size: 11px;&quot;&gt;&lt;br&gt;&lt;/font&gt;&lt;/div&gt;&lt;div&gt;&lt;font style=&quot;font-size: 11px;&quot;&gt;Setting up the GATT Read/Write Characteristic UUIDs to use for this message:&lt;/font&gt;&lt;/div&gt;&lt;div style=&quot;font-size: 11px;&quot;&gt;&lt;ul&gt;&lt;li&gt;&lt;font style=&quot;font-size: 11px;&quot;&gt;&lt;span style=&quot;color: rgb(33, 33, 33); font-family: Inter, OpenSans, Helvetica, Arial, sans-serif; white-space-collapse: preserve; background-color: rgb(255, 255, 255);&quot;&gt;http://127.0.0.1:5900/gatt/write/0000&lt;/span&gt;&lt;span style=&quot;font-family: Inter, OpenSans, Helvetica, Arial, sans-serif; white-space-collapse: preserve; background-color: rgb(255, 255, 255);&quot;&gt;&lt;font style=&quot;font-size: 11px;&quot; color=&quot;#ff0000&quot;&gt;XXXX&lt;/font&gt;&lt;/span&gt;&lt;span style=&quot;color: rgb(33, 33, 33); font-family: Inter, OpenSans, Helvetica, Arial, sans-serif; white-space-collapse: preserve; background-color: rgb(255, 255, 255);&quot;&gt;-0000-1000-8000-00805f9b34fb&lt;/span&gt;&lt;/font&gt;&lt;/li&gt;&lt;li&gt;&lt;font style=&quot;font-size: 11px;&quot;&gt;&lt;font style=&quot;font-size: 11px;&quot;&gt;&lt;span style=&quot;white-space-collapse: preserve; color: rgb(33, 33, 33); font-family: Inter, OpenSans, Helvetica, Arial, sans-serif; background-color: rgb(255, 255, 255);&quot;&gt;http://127.0.0.1:5900/gatt/read/0000&lt;/span&gt;&lt;span style=&quot;white-space-collapse: preserve; font-family: Inter, OpenSans, Helvetica, Arial, sans-serif; background-color: rgb(255, 255, 255);&quot;&gt;&lt;font style=&quot;font-size: 11px;&quot; color=&quot;#ff0000&quot;&gt;XXXX&lt;/font&gt;&lt;/span&gt;&lt;span style=&quot;white-space-collapse: preserve; color: rgb(33, 33, 33); font-family: Inter, OpenSans, Helvetica, Arial, sans-serif; background-color: rgb(255, 255, 255);&quot;&gt;-0000-1000-8000-00805f9b34fb&lt;/span&gt;&lt;/font&gt;&lt;/font&gt;&lt;/li&gt;&lt;/ul&gt;&lt;div&gt;&lt;font face=&quot;Inter, OpenSans, Helvetica, Arial, sans-serif&quot; color=&quot;#212121&quot;&gt;&lt;span style=&quot;white-space-collapse: preserve;&quot;&gt;Setting up the BLE Device by using the Device Name or MAC Address:&lt;/span&gt;&lt;/font&gt;&lt;/div&gt;&lt;div&gt;&lt;ul&gt;&lt;li&gt;&lt;font face=&quot;Inter, OpenSans, Helvetica, Arial, sans-serif&quot;&gt;&lt;span style=&quot;white-space-collapse: preserve;&quot;&gt;&lt;font color=&quot;#212121&quot;&gt;http://127.0.0.1:5900/device/name/&lt;/font&gt;&lt;font color=&quot;#ff0000&quot;&gt;XXXXXXXXXXXXXXXX&lt;/font&gt;&lt;font color=&quot;#212121&quot;&gt;&lt;br&gt;&lt;/font&gt;&lt;/span&gt;&lt;/font&gt;&lt;/li&gt;&lt;li&gt;&lt;font face=&quot;Inter, OpenSans, Helvetica, Arial, sans-serif&quot;&gt;&lt;span style=&quot;white-space-collapse: preserve;&quot;&gt;&lt;font color=&quot;#212121&quot;&gt;http://127.0.0.1:5900/device/address/&lt;/font&gt;&lt;font color=&quot;#ff0000&quot;&gt;aa:bb:cc:dd:ee:ff&lt;/font&gt;&lt;/span&gt;&lt;/font&gt;&lt;/li&gt;&lt;/ul&gt;&lt;div&gt;&lt;font style=&quot;font-size: 11px;&quot; face=&quot;Inter, OpenSans, Helvetica, Arial, sans-serif&quot;&gt;&lt;span style=&quot;white-space-collapse: preserve;&quot;&gt;To configure the actual message (string) to send to the BLE Server, use the following request:&lt;/span&gt;&lt;/font&gt;&lt;/div&gt;&lt;/div&gt;&lt;div&gt;&lt;ul&gt;&lt;li&gt;&lt;font style=&quot;font-size: 11px;&quot; face=&quot;Inter, OpenSans, Helvetica, Arial, sans-serif&quot;&gt;&lt;span style=&quot;white-space-collapse: preserve;&quot;&gt;http://127.0.0.1:5900/msg/&lt;font style=&quot;font-size: 11px;&quot; color=&quot;#ff0000&quot;&gt;XXXXXXXXXXXXXXXXXXXXXXXXXX&lt;/font&gt;&lt;br&gt;&lt;/span&gt;&lt;/font&gt;&lt;/li&gt;&lt;/ul&gt;&lt;div&gt;&lt;div&gt;&lt;font style=&quot;font-size: 11px;&quot; face=&quot;Inter, OpenSans, Helvetica, Arial, sans-serif&quot;&gt;&lt;span style=&quot;white-space-collapse: preserve;&quot;&gt;Once the user has defined all the necessary fields to send a message over BLE, we can send the message using the following request:&lt;/span&gt;&lt;/font&gt;&lt;/div&gt;&lt;div&gt;&lt;ul&gt;&lt;li&gt;&lt;font style=&quot;font-size: 11px;&quot; face=&quot;Inter, OpenSans, Helvetica, Arial, sans-serif&quot;&gt;&lt;span style=&quot;white-space-collapse: preserve;&quot;&gt;http://127.0.0.1:5900/send_msg&lt;/span&gt;&lt;/font&gt;&lt;/li&gt;&lt;/ul&gt;&lt;/div&gt;&lt;/div&gt;&lt;/div&gt;&lt;/div&gt;" style="rounded=0;whiteSpace=wrap;html=1;verticalAlign=top;align=left;spacingLeft=5;spacingRight=5;" vertex="1" parent="1">
          <mxGeometry x="30" y="526" width="730" height="284" as="geometry" />
        </mxCell>
        <mxCell id="VzVbL2zUcFuZADIkYSwg-2" value="String Encoding:&lt;div&gt;&lt;br&gt;&lt;/div&gt;&lt;div style=&quot;font-size: 11px;&quot;&gt;&lt;font style=&quot;font-size: 11px;&quot;&gt;This application checks the formatting of each of the following fields (and returns an error message instead of updating the values if certain conditions aren&#39;t met):&lt;/font&gt;&lt;/div&gt;&lt;div style=&quot;font-size: 11px;&quot;&gt;&lt;ul style=&quot;&quot;&gt;&lt;li style=&quot;&quot;&gt;&lt;font style=&quot;font-size: 11px;&quot;&gt;GATT Read and Write Characteristic UUIDs&lt;/font&gt;&lt;/li&gt;&lt;li style=&quot;&quot;&gt;&lt;font style=&quot;font-size: 11px;&quot;&gt;Device Name&lt;/font&gt;&lt;/li&gt;&lt;li style=&quot;&quot;&gt;&lt;font style=&quot;font-size: 11px;&quot;&gt;MAC Address&lt;/font&gt;&lt;/li&gt;&lt;/ul&gt;&lt;div&gt;When updating the actual message field, ensure that you take into consideration factors like URL encoded versions of strings, as this app will not automatically convert strings into URL-compatible strings.&lt;/div&gt;&lt;/div&gt;" style="rounded=0;whiteSpace=wrap;html=1;verticalAlign=top;align=left;spacingLeft=5;spacingRight=5;" vertex="1" parent="1">
          <mxGeometry x="770" y="550" width="360" height="190" as="geometry" />
        </mxCell>
      </root>
    </mxGraphModel>
  </diagram>
</mxfile>
